<svg width="203" height="200" viewBox="0 0 203 200" fill="none" xmlns="http://www.w3.org/2000/svg">
<g opacity="0.03" clip-path="url(#clip0_7604_246759)">
<path d="M180.242 200C192.258 200 202 190.258 202 178.242C202 166.225 192.258 156.483 180.242 156.483C168.225 156.483 158.483 166.225 158.483 178.242C158.483 190.258 168.225 200 180.242 200Z" fill="#383838"/>
<path d="M147.542 178.242C147.542 190.25 137.767 200 125.783 200C113.775 200 104 190.225 104 178.242C104 166.233 113.775 156.483 125.758 156.483C137.767 156.458 147.542 166.233 147.542 178.242ZM113.651 178.242C113.651 184.915 119.085 190.349 125.758 190.349C132.432 190.349 137.866 184.915 137.866 178.242C137.866 171.568 132.432 166.134 125.758 166.134C119.085 166.134 113.651 171.543 113.651 178.242Z" fill="#383838"/>
<path d="M202.025 123.758C202.025 135.767 192.25 145.517 180.266 145.517C168.258 145.517 158.508 135.742 158.508 123.758C158.508 111.75 168.283 102 180.266 102C192.25 102 202.025 111.775 202.025 123.758ZM168.134 123.758C168.134 130.432 173.568 135.866 180.242 135.866C186.915 135.866 192.349 130.432 192.349 123.758C192.349 117.085 186.915 111.651 180.242 111.651C173.568 111.651 168.134 117.085 168.134 123.758Z" fill="#383838"/>
<path d="M147.542 123.758C147.542 135.767 137.767 145.517 125.783 145.517C113.775 145.542 104 135.767 104 123.758C104 111.775 113.775 102 125.758 102C137.767 102 147.542 111.775 147.542 123.758ZM113.651 123.758C113.651 130.432 119.085 135.866 125.758 135.866C132.432 135.866 137.866 130.432 137.866 123.758C137.866 117.085 132.432 111.651 125.758 111.651C119.085 111.651 113.651 117.085 113.651 123.758Z" fill="#383838"/>
</g>
<g opacity="0.03" clip-path="url(#clip1_7604_246759)">
<path d="M10.3733 98.0001C16.1023 98.0001 20.7465 93.357 20.7465 87.6294C20.7465 81.9019 16.1023 77.2588 10.3733 77.2588C4.64427 77.2588 7.62939e-06 81.9019 7.62939e-06 87.6294C7.62939e-06 93.357 4.64427 98.0001 10.3733 98.0001Z" fill="#383838"/>
<path d="M33.4277 98H43.528C43.528 74.0086 23.9975 54.483 7.62939e-06 54.483V64.5807C18.4386 64.5807 33.4277 79.5661 33.4277 98Z" fill="#383838"/>
<path d="M10.3733 20.7413C16.1023 20.7413 20.7465 16.0982 20.7465 10.3706C20.7465 4.64309 16.1023 0 10.3733 0C4.64427 0 0 4.64309 0 10.3706C0 16.0982 4.64427 20.7413 10.3733 20.7413Z" fill="#383838"/>
<path d="M0 33.4192V43.517C23.9975 43.517 43.528 23.9914 43.528 0H33.4277C33.4277 18.4339 18.4386 33.4192 0 33.4192Z" fill="#383838"/>
<path d="M87.6019 20.7413C93.3309 20.7413 97.9752 16.0982 97.9752 10.3706C97.9752 4.64309 93.3309 0 87.6019 0C81.8729 0 77.2287 4.64309 77.2287 10.3706C77.2287 16.0982 81.8729 20.7413 87.6019 20.7413Z" fill="#383838"/>
<path d="M64.5723 0H54.472C54.472 23.9914 74.0025 43.517 98 43.517V33.4192C79.5614 33.4192 64.5723 18.4339 64.5723 0Z" fill="#383838"/>
<path d="M87.6019 98.0001C93.3309 98.0001 97.9752 93.357 97.9752 87.6294C97.9752 81.9019 93.3309 77.2588 87.6019 77.2588C81.8729 77.2588 77.2287 81.9019 77.2287 87.6294C77.2287 93.357 81.8729 98.0001 87.6019 98.0001Z" fill="#383838"/>
<path d="M98 64.5807V54.483C74.0025 54.483 54.472 74.0086 54.472 98H64.5723C64.5723 79.5661 79.5614 64.5807 98 64.5807Z" fill="#383838"/>
</g>
<g opacity="0.03" clip-path="url(#clip2_7604_246759)">
<path d="M153.011 65.3944C162.06 65.3944 169.394 58.0595 169.394 49.0114C169.394 39.9633 162.06 32.6284 153.011 32.6284C143.963 32.6284 136.628 39.9633 136.628 49.0114C136.628 58.0595 143.963 65.3944 153.011 65.3944Z" fill="#383838"/>
<path d="M153.011 0C125.974 0 104 21.9738 104 49.0115V87.5974V98.0229H114.426H153.011C180.026 98.0229 202.023 76.0491 202.023 49.0115C202.023 21.9738 180.026 0 153.011 0ZM153.011 87.5974H114.426V49.0115C114.426 27.725 131.725 10.4255 153.011 10.4255C174.298 10.4255 191.597 27.725 191.597 49.0115C191.597 70.275 174.275 87.5974 153.011 87.5974Z" fill="#383838"/>
</g>
<g opacity="0.03" clip-path="url(#clip3_7604_246759)">
<path d="M87.1553 199.975C93.1309 199.975 97.9752 195.131 97.9752 189.155C97.9752 183.18 93.1309 178.335 87.1553 178.335C81.1796 178.335 76.3353 183.18 76.3353 189.155C76.3353 195.131 81.1796 199.975 87.1553 199.975Z" fill="#383838"/>
<path d="M98 166.572V156.472C74.0025 156.472 54.472 176.003 54.472 200H64.5723C64.5723 181.561 79.5614 166.572 98 166.572Z" fill="#383838"/>
<path d="M37.6217 200H27.1243C27.1243 181.065 34.4948 163.272 47.8709 149.896C61.2469 136.52 79.0403 129.149 97.9752 129.149V139.647C81.8445 139.647 66.6817 145.925 55.291 157.341C43.9002 168.707 37.6217 183.869 37.6217 200Z" fill="#383838"/>
<path d="M10.4229 200H0C0 186.773 2.58091 173.943 7.69309 161.857C12.6316 150.193 19.7042 139.696 28.6878 130.713C37.6713 121.729 48.1687 114.632 59.8572 109.693C71.9428 104.581 84.7729 102 98 102V112.423C74.5981 112.423 52.6108 121.531 36.0831 138.083C19.5553 154.636 10.4229 176.598 10.4229 200Z" fill="#383838"/>
</g>
<rect width="202" height="200" fill="url(#paint0_linear_7604_246759)"/>
<defs>
<linearGradient id="paint0_linear_7604_246759" x1="101.461" y1="8.88889" x2="101.033" y2="200" gradientUnits="userSpaceOnUse">
<stop offset="0.238947" stop-color="white" stop-opacity="0"/>
<stop offset="1" stop-color="white"/>
</linearGradient>
<clipPath id="clip0_7604_246759">
<rect width="98.0248" height="98" fill="white" transform="translate(104 102)"/>
</clipPath>
<clipPath id="clip1_7604_246759">
<rect width="98" height="98" fill="white"/>
</clipPath>
<clipPath id="clip2_7604_246759">
<rect width="98" height="98" fill="white" transform="translate(104)"/>
</clipPath>
<clipPath id="clip3_7604_246759">
<rect width="98" height="98" fill="white" transform="translate(0 102)"/>
</clipPath>
</defs>
</svg>
