<svg width="250" height="409" viewBox="0 0 250 409" fill="none" xmlns="http://www.w3.org/2000/svg">
<g clip-path="url(#clip0_101_92723)">
<g opacity="0.25">
<path d="M55.0426 90.7517C55.7926 90.299 56.5993 89.9475 57.4416 89.7064L57.9329 87.3336L61.9416 87.2656L62.5165 89.6176C63.3668 89.8284 64.1856 90.1499 64.9521 90.574L66.9748 89.2465L69.8598 92.0322L68.6054 94.1228C69.0582 94.8729 69.4097 95.6795 69.6507 96.5218L72.0236 97.0131L72.0915 101.022L69.7396 101.597C69.5335 102.448 69.2117 103.268 68.7831 104.032L70.1107 106.055L67.3249 108.94L65.2343 107.686C64.4861 108.138 63.6812 108.49 62.8406 108.731L62.344 111.104L58.3353 111.172L57.7604 108.82C56.9103 108.614 56.0926 108.292 55.33 107.863L53.3021 109.191L50.4171 106.405L51.6767 104.315C51.222 103.567 50.8704 102.762 50.6314 101.921L48.2481 101.419L48.1801 97.4103L50.5321 96.8354C50.7429 95.9868 51.0645 95.1697 51.4885 94.4051L50.161 92.3772L52.9467 89.4921L55.0374 90.7517H55.0426ZM57.1802 96.088C56.5886 96.6996 56.1916 97.473 56.0396 98.3103C55.8875 99.1476 55.9873 100.011 56.3261 100.792C56.665 101.572 57.2278 102.235 57.9433 102.695C58.6588 103.156 59.4949 103.394 60.3458 103.38C61.1966 103.365 62.024 103.098 62.7232 102.613C63.4225 102.128 63.9622 101.447 64.274 100.655C64.5858 99.8633 64.6558 98.9968 64.4751 98.1652C64.2944 97.3337 63.871 96.5744 63.2587 95.9835C62.4376 95.1916 61.3358 94.7579 60.1952 94.7775C59.0547 94.7971 57.9685 95.2684 57.175 96.088H57.1802Z" fill="#E0E0E0"/>
<path d="M19.8366 129.721H11.8296V154.735H19.8366V129.721Z" fill="#F5F5F5"/>
<path d="M31.795 135.434H23.788V154.735H31.795V135.434Z" fill="#F5F5F5"/>
<path d="M42.8647 143.273H34.8577V154.735H42.8647V143.273Z" fill="#F5F5F5"/>
<path d="M216.166 200.341C216.166 197.872 215.502 195.448 214.244 193.322C212.987 191.197 211.181 189.448 209.017 188.258C206.853 187.069 204.409 186.482 201.941 186.56C199.472 186.637 197.07 187.376 194.984 188.699C192.899 190.022 191.207 191.881 190.086 194.081C188.964 196.281 188.453 198.742 188.608 201.207C188.762 203.672 189.575 206.05 190.962 208.093C192.349 210.136 194.26 211.77 196.494 212.822V216.303H208.583C208.583 216.303 208.656 214.348 208.687 212.603C210.94 211.443 212.829 209.685 214.149 207.522C215.468 205.359 216.166 202.875 216.166 200.341Z" fill="#F5F5F5"/>
<path d="M207.658 218.546H197.272C197.17 218.546 197.069 218.526 196.974 218.487C196.88 218.447 196.794 218.39 196.722 218.318C196.649 218.245 196.592 218.16 196.553 218.065C196.514 217.971 196.494 217.869 196.494 217.767C196.494 217.665 196.514 217.564 196.553 217.469C196.592 217.375 196.649 217.289 196.722 217.216C196.794 217.144 196.88 217.087 196.974 217.048C197.069 217.008 197.17 216.988 197.272 216.988H207.658C207.864 216.988 208.062 217.07 208.208 217.216C208.354 217.362 208.436 217.561 208.436 217.767C208.436 217.974 208.354 218.172 208.208 218.318C208.062 218.464 207.864 218.546 207.658 218.546Z" fill="#E0E0E0"/>
<path d="M207.657 219.221H197.272C197.064 219.221 196.865 219.303 196.718 219.45C196.571 219.597 196.488 219.797 196.488 220.005C196.488 220.213 196.571 220.412 196.718 220.559C196.865 220.706 197.064 220.789 197.272 220.789H198.412L199.927 223.668C200.013 223.828 200.141 223.961 200.296 224.053C200.452 224.145 200.63 224.193 200.811 224.191H204.522C204.703 224.193 204.882 224.145 205.038 224.053C205.195 223.961 205.324 223.828 205.41 223.668L206.879 220.799H207.657C207.865 220.799 208.065 220.717 208.212 220.569C208.359 220.422 208.441 220.223 208.441 220.015C208.441 219.807 208.359 219.608 208.212 219.461C208.065 219.314 207.865 219.231 207.657 219.231V219.221Z" fill="#E0E0E0"/>
<path d="M205.217 223.893C205.217 223.893 204.945 223.799 204.506 223.674C203.355 223.341 202.129 223.375 200.999 223.773C200.77 223.872 200.536 223.959 200.299 224.034C200.494 223.872 200.717 223.746 200.957 223.663C201.523 223.429 202.127 223.299 202.739 223.282C203.352 223.262 203.964 223.356 204.543 223.559C204.786 223.628 205.015 223.741 205.217 223.893Z" fill="#FAFAFA"/>
<path d="M206.9 220.814C206.9 220.861 205.023 220.898 202.718 220.898C200.413 220.898 198.537 220.861 198.537 220.814C198.537 220.767 200.413 220.73 202.718 220.73C205.023 220.73 206.9 220.767 206.9 220.814Z" fill="#FAFAFA"/>
<path d="M206.251 222.042C205.916 222.111 205.575 222.146 205.232 222.146C204.6 222.188 203.722 222.225 202.755 222.241C201.788 222.256 200.91 222.241 200.278 222.241C199.927 222.249 199.577 222.223 199.232 222.162C199.579 222.121 199.929 222.107 200.278 222.12L202.755 222.089L205.227 222.047C205.568 222.023 205.91 222.021 206.251 222.042Z" fill="#FAFAFA"/>
<path d="M214.049 196.191C214.175 196.41 214.268 196.646 214.326 196.892C214.527 197.545 214.667 198.215 214.745 198.894C215.015 201.157 214.659 203.452 213.714 205.527C212.769 207.601 211.273 209.377 209.387 210.658C208.824 211.046 208.225 211.38 207.6 211.657C207.375 211.772 207.136 211.858 206.889 211.913C206.889 211.85 207.872 211.474 209.251 210.47C211.058 209.17 212.493 207.42 213.416 205.394C214.338 203.368 214.715 201.136 214.509 198.92C214.403 198.003 214.249 197.092 214.049 196.191Z" fill="white"/>
<path d="M205.081 189.481C204.804 188.535 203.711 187.913 202.379 187.887C200.17 188.072 198.029 188.739 196.107 189.841C194.805 190.607 193.675 191.632 192.785 192.852C191.895 194.072 191.264 195.461 190.932 196.934C190.785 197.478 190.765 198.048 190.875 198.601C190.935 198.889 191.067 199.156 191.259 199.378C191.451 199.6 191.697 199.77 191.973 199.871C192.246 199.936 192.531 199.934 192.804 199.866C193.077 199.797 193.329 199.665 193.54 199.479C193.959 199.103 194.303 198.65 194.554 198.146C195.117 196.992 195.743 195.87 196.431 194.786C197.119 193.679 198.203 192.877 199.462 192.544C200.288 192.361 201.03 192.345 201.866 192.167C202.912 191.943 203.56 191.963 204.281 191.514C204.577 191.272 204.806 190.958 204.946 190.602C205.086 190.246 205.132 189.86 205.081 189.481Z" fill="white"/>
<path d="M193.687 202.949C193.687 203.259 193.595 203.562 193.422 203.82C193.25 204.078 193.005 204.279 192.719 204.397C192.432 204.516 192.117 204.547 191.813 204.487C191.509 204.426 191.229 204.277 191.01 204.058C190.791 203.838 190.641 203.559 190.581 203.255C190.52 202.951 190.551 202.635 190.67 202.349C190.789 202.062 190.99 201.817 191.248 201.645C191.505 201.473 191.809 201.381 192.119 201.381C192.535 201.381 192.933 201.546 193.227 201.84C193.521 202.134 193.687 202.533 193.687 202.949Z" fill="white"/>
<path d="M206.649 216.345C206.649 216.345 206.612 216.162 206.565 215.822C206.518 215.482 206.445 214.907 206.367 214.254C206.194 212.853 205.959 210.899 205.671 208.505C205.546 207.282 205.342 205.975 205.238 204.517C205.222 204.122 205.363 203.737 205.63 203.446C205.774 203.286 205.971 203.185 206.185 203.161C206.399 203.137 206.614 203.192 206.79 203.315C207.113 203.575 207.324 203.949 207.38 204.36C207.425 204.775 207.372 205.194 207.224 205.583C206.906 206.389 206.285 207.039 205.494 207.392C205.081 207.58 204.631 207.67 204.177 207.656C203.724 207.641 203.28 207.522 202.88 207.308C202.055 206.87 201.429 206.134 201.13 205.249C200.969 204.799 200.912 204.318 200.962 203.843C200.994 203.594 201.084 203.356 201.224 203.148C201.3 203.038 201.401 202.948 201.518 202.883C201.634 202.817 201.764 202.779 201.898 202.771C202.03 202.772 202.161 202.799 202.283 202.852C202.404 202.905 202.513 202.983 202.603 203.08C202.779 203.253 202.92 203.459 203.016 203.686C203.193 204.126 203.28 204.597 203.272 205.071C203.296 205.535 203.222 205.999 203.058 206.433C202.893 206.868 202.641 207.263 202.316 207.596C201.997 207.92 201.593 208.149 201.151 208.256C200.708 208.363 200.245 208.344 199.812 208.202C199.032 207.865 198.39 207.273 197.988 206.524C197.785 206.171 197.624 205.796 197.508 205.406C197.371 205.022 197.328 204.612 197.382 204.209C197.417 203.998 197.515 203.803 197.664 203.65C197.75 203.573 197.858 203.526 197.972 203.514C198.087 203.502 198.202 203.525 198.302 203.582C198.595 203.839 198.781 204.197 198.825 204.585C199.199 205.873 199.446 207.195 199.562 208.531C199.731 210.462 199.631 212.408 199.264 214.312C199.137 215.007 198.962 215.694 198.741 216.366C198.741 216.366 198.772 216.178 198.861 215.843C198.95 215.509 199.065 214.975 199.185 214.301C199.519 212.404 199.593 210.47 199.405 208.552C199.281 207.231 199.029 205.925 198.652 204.653C198.553 204.313 198.459 203.932 198.192 203.77C198.128 203.734 198.055 203.719 197.982 203.726C197.909 203.733 197.84 203.763 197.785 203.812C197.668 203.935 197.593 204.092 197.57 204.261C197.522 204.63 197.566 205.005 197.696 205.353C197.808 205.729 197.964 206.091 198.161 206.43C198.536 207.146 199.145 207.712 199.886 208.035C200.28 208.162 200.701 208.176 201.103 208.076C201.505 207.977 201.87 207.767 202.159 207.47C202.461 207.16 202.695 206.791 202.847 206.386C202.999 205.982 203.065 205.55 203.042 205.118C203.048 204.675 202.966 204.234 202.802 203.822C202.635 203.435 202.305 203.038 201.908 203.048C201.511 203.059 201.245 203.498 201.192 203.921C201.15 204.36 201.204 204.802 201.349 205.217C201.631 206.045 202.218 206.735 202.99 207.146C203.356 207.343 203.762 207.453 204.177 207.468C204.592 207.482 205.005 207.401 205.384 207.23C206.257 207.413 206.769 206.43 207.004 205.552C207.142 205.194 207.194 204.81 207.156 204.428C207.109 204.063 206.922 203.731 206.633 203.503C206.497 203.407 206.329 203.365 206.164 203.384C205.998 203.403 205.845 203.483 205.734 203.608C205.504 203.864 205.383 204.199 205.394 204.543C205.494 205.949 205.682 207.298 205.802 208.505C206.058 210.904 206.267 212.859 206.419 214.254C206.481 214.902 206.534 215.425 206.576 215.822C206.644 216.157 206.649 216.345 206.649 216.345Z" fill="#E0E0E0"/>
<path d="M208.703 25.1322L214.802 25.728C214.802 25.728 215.298 20.606 220.629 21.0242C221.659 21.0864 222.643 21.4684 223.445 22.1167C224.247 22.765 224.827 23.6474 225.103 24.6409C225.347 25.4716 225.392 26.3481 225.233 27.1991C225.074 28.0501 224.716 28.8515 224.189 29.5382C222.987 31.1427 220.53 32.6427 216.511 31.519L215.189 45.108L221.246 45.6934L222.03 37.6393C222.03 37.6393 230.654 36.2752 231.584 26.9563C232.452 18.0346 224.34 15.1548 220.18 14.7523C217.588 14.4962 209.633 14.3656 208.703 25.1322Z" fill="#F5F5F5"/>
<path d="M214.901 47.9334L214.344 53.6504L220.462 54.2459L221.018 48.529L214.901 47.9334Z" fill="#F5F5F5"/>
<path d="M206.272 24.8966L212.361 25.4925C212.361 25.4925 212.884 20.3705 218.194 20.7886C219.222 20.8527 220.205 21.2354 221.006 21.8835C221.807 22.5316 222.386 23.4131 222.663 24.4053C222.912 25.235 222.961 26.1118 222.805 26.964C222.65 27.8161 222.295 28.6194 221.769 29.3078C220.567 30.9124 218.152 32.2399 214.112 31.1162L212.774 44.8672L218.806 45.4526L219.59 37.3985C219.59 37.3985 228.245 36.0344 229.149 26.7311C230.017 17.8147 222.224 14.9662 218.8 14.6317C216.182 14.3599 207.203 14.1247 206.272 24.8966Z" fill="#EBEBEB"/>
<path d="M212.461 47.6952L211.905 53.4121L218.022 54.0076L218.579 48.2907L212.461 47.6952Z" fill="#EBEBEB"/>
<path d="M117.27 10.4522C118.038 10.0333 118.859 9.71863 119.71 9.51664L120.311 7.16992L124.32 7.28491L124.791 9.65775C125.627 9.90013 126.429 10.2516 127.174 10.7031L129.259 9.48528L132.014 12.3965L130.665 14.4087C131.083 15.1773 131.395 15.9981 131.596 16.8495L133.963 17.4557L133.853 21.4645L131.475 21.9349C131.234 22.7722 130.883 23.5736 130.43 24.3182L131.664 26.4088L128.737 29.1579L126.724 27.8095C125.956 28.2277 125.135 28.5406 124.284 28.7398L123.683 31.0918L119.679 30.9768L119.209 28.5987C118.368 28.3621 117.564 28.0103 116.82 27.5534L114.73 28.7921L111.975 25.8809L113.324 23.8687C112.904 23.0989 112.589 22.2762 112.388 21.4227L110.041 20.8269L110.151 16.8181L112.529 16.3477C112.77 15.5104 113.122 14.709 113.574 13.9644L112.341 11.8738L115.252 9.11942L117.264 10.4679L117.27 10.4522ZM119.162 15.8826C118.543 16.4672 118.112 17.2221 117.923 18.0517C117.734 18.8813 117.795 19.7483 118.099 20.5432C118.403 21.338 118.935 22.0249 119.63 22.517C120.324 23.0091 121.148 23.2842 121.999 23.3076C122.849 23.331 123.688 23.1016 124.408 22.6485C125.128 22.1953 125.698 21.5387 126.045 20.7618C126.392 19.9849 126.5 19.1225 126.357 18.2837C126.214 17.445 125.825 16.6676 125.24 16.0498C124.456 15.222 123.375 14.7393 122.236 14.708C121.096 14.6766 119.99 15.0991 119.162 15.8826Z" fill="#E0E0E0"/>
<path d="M93.6197 7.4826C94.1523 7.16084 94.7253 6.91127 95.3236 6.74044L95.6738 5.05227L98.5327 5L98.9404 6.67772C99.546 6.82724 100.129 7.05568 100.676 7.35717L102.118 6.41116L104.172 8.39725L103.278 9.87113C103.599 10.4045 103.848 10.9773 104.021 11.575L105.709 11.9252L105.756 14.7788L104.083 15.1917C103.934 15.7967 103.704 16.3786 103.399 16.9217L104.345 18.3695L102.364 20.4235L100.89 19.5298C100.356 19.8528 99.7812 20.1024 99.1808 20.2719L98.8306 21.9601L95.9769 22.0124L95.564 20.3346C94.9576 20.1874 94.3739 19.9589 93.8288 19.6552L92.3863 20.6012L90.3323 18.6151L91.2312 17.1412C90.9073 16.6098 90.6576 16.0365 90.4891 15.4374L88.7957 15.082L88.7486 12.2283L90.4211 11.8154C90.5725 11.2112 90.8027 10.6296 91.1058 10.0854L90.1598 8.64289L92.1511 6.58887L93.6302 7.4826H93.6197ZM95.1407 11.2875C94.7197 11.7234 94.4375 12.2743 94.3298 12.8706C94.222 13.4669 94.2936 14.0817 94.5354 14.6373C94.7771 15.1929 95.1783 15.6643 95.6881 15.9919C96.1979 16.3194 96.7933 16.4884 97.3992 16.4775C98.005 16.4665 98.594 16.276 99.0916 15.9302C99.5892 15.5844 99.973 15.0988 100.194 14.5348C100.416 13.9708 100.465 13.3538 100.336 12.7618C100.207 12.1698 99.9047 11.6294 99.4682 11.2091C99.1791 10.9298 98.8378 10.7101 98.4637 10.5629C98.0896 10.4156 97.6902 10.3435 97.2882 10.3508C96.8862 10.3581 96.4896 10.4446 96.1211 10.6053C95.7526 10.766 95.4195 10.9979 95.1407 11.2875Z" fill="#F5F5F5"/>
<path d="M141.28 90.1395C141.814 89.8199 142.387 89.5704 142.984 89.3973L143.34 87.7091L146.193 87.6621L146.606 89.3346C147.211 89.4837 147.793 89.714 148.336 90.0193L149.779 89.0733L151.833 91.0541L150.939 92.528C151.26 93.0629 151.509 93.6375 151.681 94.2371L153.369 94.5873L153.422 97.4462L151.744 97.8538C151.594 98.4595 151.366 99.0429 151.064 99.5891L152.01 101.032L150.024 103.086L148.55 102.192C148.016 102.513 147.442 102.761 146.841 102.929L146.491 104.622L143.638 104.669L143.225 102.997C142.62 102.845 142.039 102.615 141.495 102.312L140.052 103.258L137.998 101.277L138.892 99.8033C138.569 99.2696 138.319 98.6947 138.15 98.0943L136.462 97.7441L136.409 94.8852L138.087 94.4775C138.234 93.8711 138.463 93.2874 138.766 92.7423L137.82 91.2998L139.806 89.2457L141.28 90.1395ZM142.801 93.9444C142.381 94.3805 142.1 94.9314 141.992 95.5275C141.885 96.1236 141.957 96.738 142.199 97.2932C142.441 97.8484 142.842 98.3194 143.352 98.6466C143.862 98.9739 144.457 99.1427 145.062 99.1317C145.668 99.1208 146.256 98.9305 146.754 98.5851C147.251 98.2396 147.635 97.7544 147.857 97.1909C148.079 96.6273 148.128 96.0106 148 95.4188C147.871 94.827 147.57 94.2866 147.134 93.866C146.844 93.5825 146.501 93.3595 146.124 93.2098C145.747 93.0601 145.344 92.9868 144.938 92.9941C144.533 93.0014 144.133 93.0891 143.761 93.2523C143.39 93.4154 143.055 93.6507 142.775 93.9444H142.801Z" fill="#F5F5F5"/>
<path d="M228.992 235.093C228.992 235.171 179.423 235.229 118.288 235.229C57.1535 235.229 7.57466 235.171 7.57466 235.093C7.57466 235.015 57.1326 234.957 118.283 234.957C179.434 234.957 228.992 235.02 228.992 235.093Z" fill="#263238"/>
<path d="M11.6344 214.818L15.6274 235.014L36.3872 234.998L40.7723 215.153L11.6344 214.818Z" fill="#069550"/>
<path d="M9.25115 211.752V214.569C9.25184 214.795 9.29713 215.019 9.38444 215.228C9.47175 215.437 9.59937 215.627 9.76001 215.787C9.92066 215.946 10.1112 216.073 10.3207 216.159C10.5302 216.245 10.7546 216.289 10.9811 216.288H41.0337C41.26 216.289 41.4841 216.245 41.6933 216.159C41.9026 216.073 42.0927 215.946 42.253 215.786C42.4132 215.627 42.5403 215.437 42.6271 215.228C42.7138 215.019 42.7585 214.795 42.7585 214.569V211.752C42.7585 211.336 42.5933 210.937 42.2992 210.643C42.0052 210.349 41.6063 210.184 41.1905 210.184H10.8139C10.3989 210.185 10.0015 210.351 9.70855 210.645C9.41563 210.939 9.25115 211.337 9.25115 211.752Z" fill="#069550"/>
<g opacity="0.4">
<path d="M11.86 216.283L12.1056 217.679L39.8376 219.644L40.538 216.283H11.86Z" fill="black"/>
</g>
<path d="M38.0023 225.909C38.0023 225.983 32.6294 226.045 25.9812 226.045C19.3331 226.045 13.9602 225.983 13.9602 225.909C13.9602 225.836 19.3279 225.773 25.9812 225.773C32.6346 225.773 38.0023 225.831 38.0023 225.909Z" fill="white"/>
<path d="M38.1591 227.586C38.1591 227.66 32.7914 227.722 26.1381 227.722C19.4847 227.722 14.1484 227.66 14.1484 227.586C14.1484 227.513 19.5422 227.43 26.1642 227.43C32.7862 227.43 38.1591 227.508 38.1591 227.586Z" fill="white"/>
<path d="M13.7773 210.209C13.7773 210.209 2.09076 196.798 3.39217 196.312C4.69357 195.826 15.0735 203.263 15.0735 203.263C15.0735 203.263 6.15177 183.402 7.93402 181.929C9.71627 180.455 19.1293 199.542 19.1293 199.542C19.1293 199.542 17.6711 171.747 19.1293 171.428C20.5875 171.11 25.9238 199.223 25.9238 199.223C25.9238 199.223 33.8785 173.524 36.1469 173.524C38.4152 173.524 33.7165 198.251 33.7165 198.251C33.7165 198.251 43.1243 182.415 44.5877 184.516C46.0511 186.617 37.9343 203.744 37.9343 203.744C37.9343 203.744 49.8142 193.887 50.2846 195.183C50.755 196.479 37.4692 210.209 37.4692 210.209H13.7773Z" fill="#455A64"/>
<path d="M12.1466 190.008C12.225 189.971 14.3 194.398 16.7721 199.891C19.2443 205.385 21.1937 209.869 21.1101 209.905C21.0265 209.942 18.9568 205.515 16.4846 200.022C14.0125 194.529 12.063 190.045 12.1466 190.008Z" fill="#263238"/>
<path d="M21.5908 192.48C21.6797 192.48 22.0246 196.374 22.3591 201.193C22.6936 206.012 22.8818 209.916 22.8086 209.921C22.7355 209.927 22.3748 206.033 22.0403 201.214C21.7058 196.395 21.4968 192.486 21.5908 192.48Z" fill="#263238"/>
<path d="M34.605 180.031C34.5951 180.14 34.5723 180.247 34.5371 180.35C34.4639 180.585 34.3803 180.873 34.2758 181.233C34.0353 182.043 33.7008 183.136 33.3036 184.469C32.4778 187.202 31.3698 190.991 30.2409 195.199C29.1119 199.406 28.1816 203.237 27.5283 206.018L26.7548 209.31C26.6659 209.671 26.5928 209.964 26.5353 210.204C26.5163 210.311 26.4829 210.415 26.436 210.512C26.4361 210.403 26.4484 210.295 26.4725 210.188C26.5144 209.948 26.5666 209.666 26.6346 209.284C26.7757 208.5 27.0057 207.366 27.3088 205.971C27.9046 203.174 28.8036 199.328 29.9221 195.115C31.0405 190.902 32.1956 187.124 33.058 184.406C33.497 183.042 33.8681 181.949 34.1346 181.192L34.4482 180.329C34.4866 180.223 34.5393 180.123 34.605 180.031Z" fill="#263238"/>
<path d="M40.2341 194.362C40.3073 194.409 38.0233 197.796 35.1382 201.925C32.2532 206.054 29.8542 209.357 29.781 209.305C29.7079 209.252 31.9919 205.866 34.8769 201.742C37.7619 197.618 40.1609 194.31 40.2341 194.362Z" fill="#263238"/>
<path d="M17.7181 209.927C17.3376 209.735 16.9857 209.49 16.6728 209.201C15.8938 208.559 15.1505 207.875 14.4463 207.152C13.7395 206.435 13.073 205.679 12.4498 204.889C12.165 204.578 11.9288 204.225 11.7494 203.843C11.8226 203.786 13.0352 205.249 14.6763 206.922C16.3174 208.594 17.7809 209.854 17.7181 209.927Z" fill="#263238"/>
<path d="M24.8157 204.596C24.9046 204.596 25.0875 205.829 25.2286 207.361C25.3697 208.892 25.4115 210.152 25.3227 210.157C25.2338 210.162 25.0509 208.929 24.9098 207.392C24.7687 205.855 24.7269 204.606 24.8157 204.596Z" fill="#263238"/>
<path d="M11.4315 27.4687C12.0078 24.5291 13.1884 21.7413 14.8986 19.2819C16.6088 16.8226 18.8113 14.7453 21.3664 13.1818C23.9215 11.6182 26.7736 10.6025 29.7418 10.199C32.71 9.79556 35.7297 10.0131 38.6095 10.8378C50.296 14.2037 57.0069 26.993 53.1236 38.5385C51.8769 42.2613 49.6336 45.5711 46.6374 48.1082C46.534 48.1976 46.4258 48.2813 46.3134 48.3591H46.282C41.2457 51.8765 35.0938 53.4238 28.9927 52.7076C27.0154 52.4736 25.0865 51.9341 23.2748 51.1083C18.967 49.0294 15.4687 45.5826 13.3261 41.306C11.1836 37.0294 10.5174 32.1638 11.4315 27.4687Z" fill="white"/>
<path d="M11.4314 27.4681C11.4314 27.4681 11.4314 27.5831 11.3896 27.813C11.3478 28.043 11.3112 28.3879 11.2485 28.827C11.0905 30.1308 11.0432 31.4456 11.1074 32.7573C11.2493 34.8305 11.6767 36.8742 12.3774 38.8306C13.3137 41.422 14.7325 43.8126 16.5586 45.8759C17.0746 46.4616 17.6262 47.0149 18.2102 47.5327C18.8091 48.0926 19.4409 48.6162 20.1022 49.1007C20.4315 49.3516 20.7974 49.5606 21.1475 49.7958L21.6702 50.1408C21.8531 50.2505 22.0465 50.3446 22.2347 50.4491L23.3949 51.0554C23.7922 51.2383 24.2051 51.4108 24.6232 51.5781C28.2484 52.8255 32.1308 53.133 35.9073 52.4718C37.9443 52.1275 39.9314 51.5342 41.8237 50.7052C42.8024 50.2824 43.7537 49.7989 44.6722 49.2575C45.1373 48.9857 45.592 48.693 46.0467 48.3951C46.4929 48.0838 46.9108 47.7341 47.2959 47.3498C50.6384 44.2518 52.8898 40.1561 53.7141 35.6737C54.153 33.4166 54.2042 31.1013 53.8656 28.827C53.7085 27.7158 53.4728 26.6172 53.16 25.5395C52.9719 25.0168 52.789 24.4942 52.606 23.9715C52.5173 23.7102 52.4108 23.4552 52.2872 23.2085L51.9423 22.4611C51.0274 20.5121 49.82 18.7143 48.3621 17.13L47.8394 16.5394L47.2645 16.0167C46.8725 15.6718 46.5119 15.2955 46.1095 14.9714C45.3174 14.3294 44.4808 13.7443 43.6059 13.2205C40.3258 11.2322 36.5652 10.1769 32.7295 10.1683C31.8563 10.158 30.9833 10.2051 30.1163 10.3094C29.6906 10.3462 29.2679 10.4126 28.8514 10.508L27.6128 10.7432C26.8183 10.9836 26.0448 11.1874 25.2765 11.4592L24.1789 11.9087C23.8187 12.0399 23.4692 12.1989 23.1336 12.3843C20.6662 13.6031 18.45 15.275 16.6005 17.3129C15.8586 18.1604 15.1807 19.0618 14.5726 20.0098L14.1544 20.6527C14.0056 20.8391 13.8711 21.0365 13.752 21.2433L13.1405 22.4506C13.0464 22.644 12.9471 22.8269 12.8635 23.0098L12.6544 23.5325L12.2781 24.5255C12.0752 25.0351 11.9109 25.5592 11.7868 26.0935C11.6666 26.5221 11.5778 26.8513 11.515 27.0813C11.4523 27.3113 11.4157 27.421 11.4157 27.421C11.4157 27.421 11.4157 27.3008 11.4889 27.0761L11.7293 26.0778C11.8471 25.534 12.0043 24.9995 12.1997 24.4785L12.5656 23.475C12.6335 23.2973 12.7015 23.1144 12.7694 22.921C12.8373 22.7276 12.9523 22.5551 13.0464 22.3618L13.6475 21.1387C13.7506 20.9186 13.8712 20.7072 14.0081 20.5063L14.421 19.8582C15.0249 18.8987 15.701 17.9867 16.4437 17.13C18.2979 15.0648 20.525 13.3679 23.0082 12.1282C23.3447 11.9417 23.694 11.7793 24.0535 11.6421L25.1563 11.1874C25.9141 10.9104 26.7242 10.7014 27.5135 10.4557L28.7626 10.2153C29.1847 10.1194 29.6124 10.0496 30.0431 10.0062C34.7955 9.45179 39.5983 10.4766 43.7105 12.9226C44.5957 13.4515 45.4427 14.0418 46.2453 14.6892C46.653 15.008 47.0189 15.3896 47.4161 15.7345L47.9962 16.2572L48.5189 16.853C49.9952 18.456 51.2183 20.2749 52.1461 22.2468L52.4963 23.0046C52.6225 23.2544 52.7308 23.5129 52.8203 23.7781C53.0032 24.3008 53.1914 24.8234 53.3796 25.3461C53.6982 26.4371 53.9375 27.5498 54.0956 28.6754C54.4696 31.0032 54.436 33.3783 53.9963 35.6946C53.1625 40.2356 50.8816 44.3849 47.4945 47.5223C47.0966 47.9069 46.6665 48.2566 46.2088 48.5676C45.7488 48.8707 45.2941 49.1686 44.8185 49.4352C42.089 51.045 39.0886 52.1431 35.9648 52.6756C32.1457 53.3331 28.2224 53.0131 24.5605 51.7453C24.1371 51.5885 23.719 51.4161 23.3165 51.2227L22.1144 50.6164C21.9263 50.5119 21.7277 50.4178 21.5448 50.308L21.0221 49.9526C20.6667 49.7174 20.2956 49.5031 19.9768 49.2523C19.3136 48.7658 18.6785 48.2424 18.0743 47.6843C17.4882 47.1577 16.9349 46.5957 16.4175 46.0014C14.5829 43.9166 13.1637 41.5004 12.2363 38.8828C11.5446 36.9097 11.1312 34.8498 11.0081 32.7626C10.9527 31.4461 11.014 30.1274 11.191 28.8217C11.2642 28.3827 11.3217 28.0482 11.3635 27.8078C11.4053 27.5674 11.4314 27.4681 11.4314 27.4681Z" fill="#263238"/>
<path d="M49.094 52.6808C49.1253 52.6808 49.094 52.3516 49.2612 51.7923C49.4831 51.0044 49.9589 50.3117 50.6149 49.8219C51.0948 49.4664 51.6557 49.2358 52.2469 49.151C52.8381 49.0661 53.4411 49.1297 54.0017 49.3359C54.6631 49.5754 55.2369 50.009 55.648 50.5798C56.0907 51.187 56.3292 51.919 56.3292 52.6704C56.3292 53.4218 56.0907 54.1538 55.648 54.761C55.3689 55.144 55.0165 55.4678 54.6112 55.7136C54.2059 55.9594 53.7559 56.1223 53.2872 56.1928C52.8185 56.2633 52.3405 56.24 51.8809 56.1243C51.4212 56.0086 50.9891 55.8028 50.6097 55.5189C49.9541 55.031 49.4782 54.3401 49.256 53.5537C49.1044 52.9944 49.1201 52.6599 49.0887 52.6652C49.0762 52.7431 49.0762 52.8225 49.0887 52.9004C49.0883 53.1291 49.1146 53.3572 49.1671 53.5798C49.3559 54.4113 49.8291 55.1508 50.5051 55.6704C51.2346 56.2325 52.1427 56.5119 53.0619 56.4569C53.9812 56.4018 54.8495 56.0162 55.5067 55.3711C56.1639 54.726 56.5656 53.865 56.6377 52.9469C56.7098 52.0289 56.4474 51.1157 55.8989 50.3759C55.4525 49.7614 54.8288 49.2981 54.1114 49.0484C53.5105 48.8332 52.8649 48.773 52.2346 48.8735C51.6042 48.974 51.0094 49.2319 50.5051 49.6233C49.8291 50.143 49.3559 50.8824 49.1671 51.7139C49.1146 51.9366 49.0883 52.1646 49.0887 52.3934C49.073 52.4887 49.0748 52.5861 49.094 52.6808Z" fill="#263238"/>
<path d="M28.1313 31.4352C28.1302 31.8237 28.0141 32.2031 27.7975 32.5256C27.581 32.8481 27.2737 33.0992 26.9145 33.2471C26.5553 33.395 26.1604 33.4332 25.7795 33.3568C25.3986 33.2804 25.049 33.0928 24.7747 32.8178C24.5003 32.5427 24.3137 32.1926 24.2383 31.8115C24.1629 31.4304 24.2021 31.0356 24.351 30.6768C24.4999 30.318 24.7518 30.0114 25.0748 29.7957C25.3979 29.58 25.7776 29.4648 26.1661 29.4648C26.4246 29.4648 26.6806 29.5158 26.9193 29.6149C27.1581 29.714 27.375 29.8592 27.5575 30.0423C27.7401 30.2253 27.8847 30.4426 27.9832 30.6816C28.0816 30.9206 28.1319 31.1767 28.1313 31.4352Z" fill="#263238"/>
<path d="M34.6017 31.4353C34.6017 31.825 34.4862 32.2059 34.2696 32.5299C34.0531 32.854 33.7454 33.1065 33.3854 33.2557C33.0253 33.4048 32.6291 33.4438 32.2469 33.3678C31.8647 33.2918 31.5136 33.1041 31.238 32.8285C30.9625 32.553 30.7748 32.2019 30.6988 31.8197C30.6227 31.4374 30.6618 31.0413 30.8109 30.6812C30.96 30.3212 31.2126 30.0134 31.5366 29.7969C31.8606 29.5804 32.2416 29.4649 32.6313 29.4649C32.8903 29.4642 33.1468 29.5147 33.3862 29.6134C33.6255 29.7122 33.843 29.8573 34.0261 30.0404C34.2092 30.2235 34.3544 30.441 34.4531 30.6804C34.5519 30.9198 34.6024 31.1763 34.6017 31.4353Z" fill="#263238"/>
<path d="M41.0669 31.4353C41.0669 31.825 40.9513 32.2059 40.7348 32.5299C40.5183 32.854 40.2106 33.1065 39.8505 33.2557C39.4905 33.4048 39.0943 33.4438 38.7121 33.3678C38.3299 33.2918 37.9788 33.1041 37.7032 32.8285C37.4277 32.553 37.24 32.2019 37.164 31.8197C37.0879 31.4374 37.127 31.0413 37.2761 30.6812C37.4252 30.3212 37.6778 30.0134 38.0018 29.7969C38.3258 29.5804 38.7068 29.4649 39.0965 29.4649C39.3555 29.4642 39.612 29.5147 39.8514 29.6134C40.0907 29.7122 40.3082 29.8573 40.4913 30.0404C40.6744 30.2235 40.8195 30.441 40.9183 30.6804C41.0171 30.9198 41.0676 31.1763 41.0669 31.4353Z" fill="#263238"/>
<path d="M228.421 149.273H179.14C176.28 149.273 173.961 151.592 173.961 154.453V168.627C173.961 171.488 176.28 173.807 179.14 173.807H228.421C231.282 173.807 233.601 171.488 233.601 168.627V154.453C233.601 151.592 231.282 149.273 228.421 149.273Z" fill="white"/>
<path d="M228.421 173.806C228.954 173.779 229.48 173.686 229.989 173.529C230.721 173.287 231.389 172.883 231.944 172.347C232.499 171.812 232.926 171.158 233.193 170.435C233.384 169.942 233.49 169.421 233.507 168.893C233.533 168.344 233.507 167.748 233.507 167.137C233.507 165.91 233.507 164.579 233.507 163.144C233.507 161.708 233.507 160.179 233.507 158.555C233.507 157.74 233.507 156.909 233.507 156.046C233.54 155.174 233.504 154.3 233.397 153.433C233.206 152.523 232.77 151.682 232.136 151.002C231.503 150.321 230.695 149.826 229.801 149.571C228.826 149.375 227.83 149.311 226.838 149.382H223.702H210.16H179.13C178.466 149.382 177.809 149.512 177.195 149.766C176.582 150.021 176.025 150.393 175.557 150.864C175.088 151.334 174.717 151.892 174.464 152.506C174.212 153.12 174.084 153.778 174.086 154.442C174.086 157.121 174.086 159.761 174.086 162.36V168.109C174.054 168.725 174.116 169.341 174.269 169.938C174.6 171.113 175.342 172.129 176.36 172.802C176.853 173.133 177.402 173.37 177.98 173.503C178.557 173.623 179.147 173.671 179.736 173.644L205.08 173.675L222.165 173.717L226.812 173.743H222.165L205.08 173.79L179.736 173.816C179.128 173.845 178.518 173.796 177.923 173.67C177.315 173.532 176.738 173.284 176.219 172.938C175.154 172.229 174.379 171.16 174.034 169.928C173.874 169.309 173.809 168.669 173.841 168.031C173.841 167.398 173.841 166.766 173.841 166.128V154.468C173.839 153.768 173.975 153.076 174.241 152.429C174.507 151.782 174.898 151.194 175.392 150.699C175.886 150.204 176.472 149.811 177.118 149.543C177.764 149.275 178.457 149.137 179.156 149.137H210.186H223.728H228.374C228.882 149.138 229.386 149.208 229.874 149.346C230.804 149.612 231.642 150.128 232.299 150.838C232.956 151.547 233.406 152.423 233.601 153.37C233.682 153.815 233.717 154.267 233.705 154.719V156.02C233.705 156.882 233.705 157.713 233.705 158.529C233.705 160.153 233.705 161.682 233.705 163.118C233.705 164.553 233.705 165.884 233.705 167.111C233.705 167.727 233.705 168.308 233.705 168.872C233.679 169.409 233.566 169.939 233.371 170.44C233.045 171.288 232.505 172.037 231.803 172.614C231.291 173.034 230.704 173.351 230.073 173.55C229.687 173.668 229.289 173.742 228.887 173.769C228.563 173.811 228.421 173.806 228.421 173.806Z" fill="#263238"/>
<path d="M223.278 163.144H195.97C195.483 163.144 195.017 162.951 194.673 162.607C194.329 162.263 194.135 161.796 194.135 161.31C194.137 160.824 194.331 160.359 194.674 160.016C195.018 159.673 195.484 159.48 195.97 159.48H223.278C223.764 159.48 224.23 159.673 224.574 160.016C224.918 160.359 225.112 160.824 225.113 161.31C225.113 161.796 224.92 162.263 224.576 162.607C224.232 162.951 223.765 163.144 223.278 163.144Z" fill="#E0E0E0"/>
<path d="M188.109 157.291H184.989C183.505 157.291 182.302 158.494 182.302 159.977V163.098C182.302 164.581 183.505 165.784 184.989 165.784H188.109C189.593 165.784 190.795 164.581 190.795 163.098V159.977C190.795 158.494 189.593 157.291 188.109 157.291Z" fill="#069550"/>
<path d="M183.614 161.659L184.472 160.807L186.123 162.271L188.878 159.506L189.672 160.363L185.998 163.922L183.614 161.659Z" fill="white"/>
<path d="M221.784 87.2598H162.41C160.139 87.2598 158.297 89.1013 158.297 91.373V127.724C158.297 129.995 160.139 131.837 162.41 131.837H221.784C224.055 131.837 225.897 129.995 225.897 127.724V91.373C225.897 89.1013 224.055 87.2598 221.784 87.2598Z" fill="white"/>
<path d="M221.768 131.843C221.815 131.839 221.862 131.839 221.909 131.843C222.047 131.837 222.185 131.823 222.322 131.801C222.867 131.733 223.39 131.549 223.858 131.263C224.621 130.801 225.214 130.104 225.547 129.277C225.98 128.299 225.798 127.04 225.829 125.675C225.829 120.172 225.829 112.217 225.787 102.391C225.787 99.9348 225.787 97.3581 225.787 94.6769V92.6438C225.817 91.9614 225.789 91.2778 225.703 90.6002C225.562 89.9209 225.247 89.2899 224.789 88.7687C224.331 88.2475 223.746 87.8539 223.09 87.6263C222.403 87.4196 221.683 87.3434 220.968 87.4016H204.698H162.41C161.5 87.4091 160.618 87.722 159.907 88.2901C159.203 88.8627 158.715 89.6568 158.522 90.5427C158.442 90.9892 158.412 91.4433 158.433 91.8964V106.818C158.433 113.89 158.433 120.71 158.433 127.202C158.367 127.992 158.512 128.785 158.851 129.501C159.2 130.198 159.745 130.777 160.419 131.169C161.084 131.554 161.845 131.745 162.614 131.717H173.898H189.98L213.259 131.764L219.588 131.791H221.235H221.799C221.799 131.791 221.606 131.791 221.235 131.791H219.588H213.259L189.98 131.832H173.898H164.94H162.614C161.802 131.862 160.998 131.662 160.293 131.257C159.578 130.843 159 130.226 158.631 129.486C158.277 128.734 158.124 127.904 158.187 127.076C158.187 120.574 158.187 113.754 158.187 106.693V91.8912C158.164 91.4187 158.196 90.9452 158.281 90.48C158.487 89.5307 159.012 88.6805 159.768 88.0702C160.523 87.4599 161.465 87.1263 162.436 87.1246H204.724H220.994C221.735 87.0686 222.479 87.1501 223.189 87.365C223.88 87.6052 224.497 88.0203 224.98 88.5699C225.463 89.1195 225.795 89.7848 225.944 90.5009C226.031 91.1941 226.059 91.8935 226.027 92.5915V94.6769C226.027 97.3581 226.027 99.9348 226.027 102.391C226.027 112.217 225.996 120.161 225.986 125.675C225.986 126.36 225.986 127.013 225.986 127.62C225.998 128.198 225.893 128.772 225.677 129.308C225.336 130.148 224.726 130.852 223.942 131.31C223.464 131.597 222.929 131.775 222.374 131.832C222.173 131.852 221.97 131.856 221.768 131.843Z" fill="#263238"/>
<path d="M199.628 113.146H199.623C198.604 113.146 197.778 113.973 197.778 114.991V121.624C197.778 122.643 198.604 123.469 199.623 123.469H199.628C200.647 123.469 201.473 122.643 201.473 121.624V114.991C201.473 113.973 200.647 113.146 199.628 113.146Z" fill="#069550"/>
<path d="M168.776 111.652H168.771C167.752 111.652 166.926 112.478 166.926 113.497V121.625C166.926 122.644 167.752 123.47 168.771 123.47H168.776C169.795 123.47 170.621 122.644 170.621 121.625V113.497C170.621 112.478 169.795 111.652 168.776 111.652Z" fill="#069550"/>
<path d="M176.49 109.191H176.485C175.466 109.191 174.64 110.017 174.64 111.036V121.631C174.64 122.65 175.466 123.476 176.485 123.476H176.49C177.509 123.476 178.335 122.65 178.335 121.631V111.036C178.335 110.017 177.509 109.191 176.49 109.191Z" fill="#069550"/>
<path d="M184.2 109.969H184.194C183.175 109.969 182.349 110.795 182.349 111.814V121.624C182.349 122.643 183.175 123.469 184.194 123.469H184.2C185.218 123.469 186.044 122.643 186.044 121.624V111.814C186.044 110.795 185.218 109.969 184.2 109.969Z" fill="#069550"/>
<path d="M191.914 105.406H191.909C190.89 105.406 190.064 106.232 190.064 107.251V121.624C190.064 122.643 190.89 123.469 191.909 123.469H191.914C192.933 123.469 193.759 122.643 193.759 121.624V107.251C193.759 106.232 192.933 105.406 191.914 105.406Z" fill="#069550"/>
<path d="M207.343 105.496H207.338C206.319 105.496 205.493 106.322 205.493 107.341V121.63C205.493 122.649 206.319 123.475 207.338 123.475H207.343C208.362 123.475 209.188 122.649 209.188 121.63V107.341C209.188 106.322 208.362 105.496 207.343 105.496Z" fill="#069550"/>
<path d="M215.052 111.402C214.809 111.402 214.569 111.45 214.345 111.543C214.121 111.636 213.917 111.773 213.746 111.945C213.574 112.116 213.438 112.32 213.346 112.545C213.254 112.769 213.206 113.01 213.207 113.253V121.615C213.207 122.104 213.401 122.574 213.747 122.92C214.093 123.266 214.563 123.46 215.052 123.46C215.541 123.46 216.011 123.266 216.357 122.92C216.703 122.574 216.897 122.104 216.897 121.615V113.253C216.898 113.01 216.85 112.769 216.758 112.545C216.666 112.32 216.53 112.116 216.358 111.945C216.187 111.773 215.983 111.636 215.759 111.543C215.535 111.45 215.295 111.402 215.052 111.402Z" fill="#069550"/>
<path d="M181.769 94.4785H167.511C166.669 94.4785 165.985 95.1618 165.985 96.0047V96.3339C165.985 97.1768 166.669 97.8601 167.511 97.8601H181.769C182.612 97.8601 183.296 97.1768 183.296 96.3339V96.0047C183.296 95.1618 182.612 94.4785 181.769 94.4785Z" fill="#E0E0E0"/>
<path d="M10.3599 77.3457H50.6774C51.4231 77.3457 52.1383 77.642 52.6657 78.1693C53.193 78.6966 53.4892 79.4118 53.4892 80.1576V115.985C53.4892 116.616 53.2387 117.221 52.7927 117.667C52.3467 118.113 51.7419 118.364 51.1112 118.364H9.9313C9.3006 118.364 8.69573 118.113 8.24975 117.667C7.80378 117.221 7.55323 116.616 7.55323 115.985V80.1576C7.55323 79.4127 7.84876 78.6983 8.37496 78.1711C8.90116 77.644 9.61503 77.3471 10.3599 77.3457Z" fill="white"/>
<path d="M10.3599 77.3457H50.6774C51.4231 77.3457 52.1383 77.642 52.6657 78.1693C53.193 78.6966 53.4892 79.4118 53.4892 80.1576V86.696H7.55323V80.1576C7.55323 79.4127 7.84876 78.6983 8.37496 78.1711C8.90116 77.644 9.61503 77.3471 10.3599 77.3457Z" fill="#E0E0E0"/>
<path d="M15.0742 82.5138C15.067 82.8429 14.9629 83.1626 14.7748 83.4328C14.5867 83.7029 14.323 83.9116 14.0168 84.0326C13.7107 84.1536 13.3756 84.1816 13.0536 84.1129C12.7316 84.0443 12.4371 83.8822 12.2068 83.6469C11.9765 83.4116 11.8208 83.1136 11.7592 82.7902C11.6976 82.4668 11.7328 82.1325 11.8604 81.829C11.988 81.5255 12.2023 81.2664 12.4765 81.0842C12.7507 80.902 13.0725 80.8048 13.4017 80.8047C13.6239 80.8067 13.8434 80.8526 14.0478 80.9397C14.2522 81.0267 14.4374 81.1533 14.5928 81.3121C14.7481 81.4708 14.8706 81.6587 14.9533 81.8649C15.0359 82.0711 15.077 82.2916 15.0742 82.5138Z" fill="white"/>
<path d="M20.2118 82.5138C20.2046 82.8429 20.1005 83.1626 19.9124 83.4328C19.7243 83.7029 19.4606 83.9116 19.1544 84.0326C18.8483 84.1536 18.5132 84.1816 18.1912 84.1129C17.8692 84.0443 17.5747 83.8822 17.3444 83.6469C17.1141 83.4116 16.9584 83.1136 16.8968 82.7902C16.8352 82.4668 16.8704 82.1325 16.998 81.829C17.1256 81.5255 17.3399 81.2664 17.6141 81.0842C17.8883 80.902 18.2101 80.8048 18.5394 80.8047C18.7615 80.8067 18.981 80.8526 19.1854 80.9397C19.3898 81.0267 19.575 81.1533 19.7304 81.3121C19.8857 81.4708 20.0082 81.6587 20.0909 81.8649C20.1735 82.0711 20.2146 82.2916 20.2118 82.5138Z" fill="white"/>
<path d="M25.3496 82.5138C25.3424 82.8429 25.2382 83.1626 25.0501 83.4328C24.862 83.7029 24.5984 83.9116 24.2922 84.0326C23.986 84.1536 23.6509 84.1816 23.329 84.1129C23.007 84.0443 22.7124 83.8822 22.4821 83.6469C22.2519 83.4116 22.0962 83.1136 22.0346 82.7902C21.9729 82.4668 22.0081 82.1325 22.1357 81.829C22.2633 81.5255 22.4776 81.2664 22.7518 81.0842C23.026 80.902 23.3479 80.8048 23.6771 80.8047C23.8992 80.8067 24.1188 80.8526 24.3232 80.9397C24.5276 81.0267 24.7127 81.1533 24.8681 81.3121C25.0235 81.4708 25.146 81.6587 25.2286 81.8649C25.3112 82.0711 25.3524 82.2916 25.3496 82.5138Z" fill="white"/>
<path d="M42.132 91.2383H18.9053C17.3263 91.2383 16.0464 92.5183 16.0464 94.0972V110.733C16.0464 112.312 17.3263 113.592 18.9053 113.592H42.132C43.7109 113.592 44.9909 112.312 44.9909 110.733V94.0972C44.9909 92.5183 43.7109 91.2383 42.132 91.2383Z" fill="#069550"/>
<path d="M27.273 102.193V98.7593C27.2763 98.5691 27.3287 98.3831 27.4252 98.2192C27.5217 98.0553 27.6589 97.9191 27.8235 97.8239C27.9882 97.7287 28.1746 97.6777 28.3648 97.6758C28.555 97.674 28.7424 97.7213 28.9089 97.8133L31.8828 99.5276L34.8514 101.247C35.0198 101.343 35.1599 101.482 35.2573 101.649C35.3547 101.817 35.406 102.007 35.406 102.201C35.406 102.395 35.3547 102.585 35.2573 102.753C35.1599 102.92 35.0198 103.059 34.8514 103.155L31.8828 104.869L28.9089 106.583C28.7433 106.673 28.5576 106.719 28.3693 106.718C28.1809 106.716 27.9961 106.666 27.8324 106.573C27.6686 106.48 27.5313 106.346 27.4335 106.185C27.3356 106.025 27.2803 105.841 27.273 105.653V102.193Z" fill="white"/>
<path d="M51.1112 118.363C51.1112 118.363 51.2575 118.363 51.5397 118.31C51.958 118.226 52.346 118.031 52.6634 117.746C52.92 117.516 53.1232 117.232 53.2586 116.915C53.394 116.599 53.4585 116.256 53.4474 115.911C53.4474 115.086 53.4474 114.134 53.4474 113.063C53.4474 108.767 53.4213 102.568 53.4056 94.906C53.4056 91.0697 53.4056 86.8728 53.4056 82.3623V80.6584C53.4241 80.3748 53.4241 80.0902 53.4056 79.8065C53.3733 79.5308 53.2955 79.2624 53.1756 79.0121C52.9956 78.6274 52.727 78.2909 52.3918 78.0301C52.0565 77.7694 51.6642 77.5918 51.2471 77.5121C50.9583 77.468 50.6662 77.4505 50.3742 77.4598H42.9107H27.0064H11.0289C10.68 77.4493 10.3308 77.4615 9.98358 77.4964C9.63933 77.5464 9.30853 77.6646 9.01057 77.8441C8.7126 78.0236 8.45347 78.2607 8.24837 78.5417C8.03963 78.8171 7.88853 79.1317 7.80411 79.4668C7.72378 79.809 7.69384 80.1612 7.71526 80.5121V84.8135C7.71526 87.6637 7.71526 90.4686 7.71526 93.2283C7.71526 98.7422 7.71526 104.063 7.71526 109.133C7.71526 110.397 7.71526 111.652 7.71526 112.885V115.634C7.69748 115.925 7.72034 116.217 7.78321 116.502C7.91643 117.059 8.25889 117.544 8.73966 117.856C8.97428 118.012 9.23692 118.122 9.51319 118.18C9.7933 118.222 10.0768 118.238 10.3599 118.227H13.7519H26.2956L44.4526 118.269L49.3864 118.295H44.4526L26.2956 118.462H13.7519H10.3181C10.0174 118.478 9.71592 118.46 9.41911 118.41C9.11571 118.347 8.82672 118.229 8.56719 118.06C8.04499 117.709 7.6723 117.176 7.52188 116.565C7.45625 116.261 7.43164 115.95 7.44871 115.64V109.154C7.44871 104.084 7.44871 98.7632 7.44871 93.2492V80.533C7.42843 80.1594 7.46009 79.7847 7.54278 79.4198C7.68722 78.8621 7.99192 78.3589 8.4192 77.9725C8.84648 77.5861 9.37763 77.3333 9.94699 77.2455C10.317 77.2103 10.6888 77.198 11.0602 77.2089H50.3376C50.6436 77.1997 50.9498 77.219 51.2523 77.2664C51.5554 77.3276 51.8477 77.4333 52.1199 77.58C52.6588 77.8798 53.0888 78.3428 53.3481 78.9023C53.4774 79.1763 53.5621 79.4692 53.599 79.7699C53.617 80.0623 53.617 80.3556 53.599 80.648V82.3518C53.599 86.8571 53.599 91.054 53.599 94.8955C53.599 102.558 53.5676 108.756 53.5572 113.052C53.5572 114.098 53.5572 115.075 53.5572 115.901C53.5639 116.255 53.493 116.607 53.3494 116.931C53.2059 117.255 52.9931 117.544 52.7262 117.777C52.3991 118.063 51.9993 118.253 51.5711 118.326C51.4633 118.337 51.3548 118.337 51.2471 118.326C51.2034 118.344 51.1578 118.356 51.1112 118.363Z" fill="#263238"/>
<path d="M142.91 29.7578H194.653C195.399 29.7578 196.114 30.0541 196.641 30.5814C197.168 31.1087 197.465 31.8239 197.465 32.5697V68.1101C197.465 68.4224 197.403 68.7316 197.284 69.0202C197.164 69.3087 196.989 69.5708 196.768 69.7917C196.547 70.0125 196.285 70.1877 195.997 70.3072C195.708 70.4267 195.399 70.4882 195.087 70.4882H142.482C142.169 70.4882 141.86 70.4267 141.571 70.3072C141.283 70.1877 141.021 70.0125 140.8 69.7917C140.579 69.5708 140.404 69.3087 140.284 69.0202C140.165 68.7316 140.103 68.4224 140.103 68.1101V32.5697C140.103 31.8248 140.399 31.1104 140.925 30.5832C141.451 30.0561 142.165 29.7592 142.91 29.7578Z" fill="white"/>
<path d="M142.91 29.7578H194.653C195.398 29.7578 196.114 30.0541 196.641 30.5814C197.168 31.1087 197.465 31.8239 197.465 32.5697V39.061H140.098V32.5645C140.099 31.8196 140.396 31.1057 140.924 30.5795C141.451 30.0533 142.165 29.7578 142.91 29.7578Z" fill="#E0E0E0"/>
<path d="M147.734 34.8959C147.734 35.2318 147.634 35.5603 147.448 35.8396C147.261 36.1189 146.996 36.3366 146.685 36.4652C146.375 36.5938 146.033 36.6274 145.704 36.5619C145.374 36.4963 145.072 36.3346 144.834 36.097C144.597 35.8594 144.435 35.5568 144.369 35.2273C144.304 34.8978 144.337 34.5562 144.466 34.2459C144.595 33.9355 144.812 33.6702 145.092 33.4835C145.371 33.2969 145.699 33.1973 146.035 33.1973C146.486 33.1973 146.918 33.3762 147.236 33.6948C147.555 34.0133 147.734 34.4454 147.734 34.8959Z" fill="white"/>
<path d="M152.945 34.8959C152.945 35.2319 152.845 35.5603 152.659 35.8396C152.472 36.1189 152.207 36.3367 151.896 36.4652C151.586 36.5938 151.244 36.6274 150.915 36.5619C150.585 36.4963 150.283 36.3346 150.045 36.097C149.808 35.8594 149.646 35.5568 149.58 35.2273C149.515 34.8978 149.548 34.5562 149.677 34.2459C149.806 33.9355 150.023 33.6702 150.303 33.4835C150.582 33.2969 150.91 33.1973 151.246 33.1973C151.47 33.1966 151.691 33.24 151.897 33.3252C152.104 33.4103 152.291 33.5354 152.449 33.6933C152.607 33.8511 152.732 34.0386 152.817 34.245C152.902 34.4514 152.946 34.6726 152.945 34.8959Z" fill="white"/>
<path d="M158.156 34.8959C158.156 35.2321 158.056 35.5607 157.869 35.8401C157.682 36.1196 157.417 36.3373 157.106 36.4657C156.795 36.5941 156.454 36.6275 156.124 36.5615C155.794 36.4955 155.492 36.3332 155.254 36.0951C155.017 35.8571 154.856 35.5539 154.791 35.2241C154.726 34.8942 154.76 34.5525 154.889 34.2422C155.019 33.9319 155.237 33.667 155.517 33.481C155.797 33.295 156.126 33.1962 156.463 33.1973C156.685 33.1973 156.906 33.2412 157.112 33.3267C157.318 33.4121 157.504 33.5373 157.662 33.6951C157.819 33.8529 157.944 34.0402 158.029 34.2463C158.113 34.4523 158.157 34.6731 158.156 34.8959Z" fill="white"/>
<path d="M163.874 44.2988H147.321C146.17 44.2988 145.236 45.2325 145.236 46.3842V62.9366C145.236 64.0884 146.17 65.022 147.321 65.022H163.874C165.025 65.022 165.959 64.0884 165.959 62.9366V46.3842C165.959 45.2325 165.025 44.2988 163.874 44.2988Z" fill="#069550"/>
<path d="M191.454 48.5738H172.252C172.112 48.5738 171.974 48.5459 171.846 48.4918C171.717 48.4376 171.601 48.3583 171.503 48.2584C171.406 48.1586 171.33 48.0402 171.279 47.9104C171.228 47.7805 171.203 47.6418 171.207 47.5023C171.207 47.2251 171.317 46.9592 171.513 46.7632C171.709 46.5672 171.975 46.457 172.252 46.457H191.454C191.734 46.4569 192.003 46.5662 192.203 46.7616C192.403 46.9569 192.519 47.2227 192.526 47.5023C192.526 47.7865 192.413 48.059 192.212 48.26C192.011 48.4609 191.738 48.5738 191.454 48.5738Z" fill="#E0E0E0"/>
<path d="M191.454 53.4715H172.252C171.974 53.4715 171.709 53.3613 171.513 53.1653C171.316 52.9693 171.206 52.7034 171.206 52.4262C171.206 52.1489 171.316 51.8831 171.513 51.687C171.709 51.491 171.974 51.3809 172.252 51.3809H191.454C191.734 51.3808 192.002 51.4901 192.202 51.6854C192.403 51.8807 192.519 52.1466 192.525 52.4262C192.519 52.7058 192.403 52.9716 192.202 53.1669C192.002 53.3623 191.734 53.4716 191.454 53.4715Z" fill="#E0E0E0"/>
<path d="M191.454 58.3687H172.252C172.112 58.3687 171.974 58.3409 171.846 58.2867C171.717 58.2325 171.601 58.1532 171.503 58.0534C171.406 57.9535 171.33 57.8352 171.279 57.7053C171.228 57.5755 171.203 57.4367 171.207 57.2973C171.207 57.02 171.317 56.7541 171.513 56.5581C171.709 56.3621 171.975 56.252 172.252 56.252H191.454C191.734 56.2519 192.003 56.3612 192.203 56.5565C192.403 56.7518 192.519 57.0176 192.526 57.2973C192.526 57.5814 192.413 57.8539 192.212 58.0549C192.011 58.2558 191.738 58.3687 191.454 58.3687Z" fill="#E0E0E0"/>
<path d="M182.047 63.2652H172.252C172.112 63.2652 171.974 63.2373 171.846 63.1832C171.717 63.129 171.601 63.0497 171.503 62.9498C171.406 62.85 171.33 62.7316 171.279 62.6018C171.228 62.4719 171.203 62.3332 171.207 62.1937C171.207 61.9165 171.317 61.6506 171.513 61.4546C171.709 61.2586 171.975 61.1484 172.252 61.1484H182.047C182.324 61.1484 182.59 61.2586 182.786 61.4546C182.982 61.6506 183.092 61.9165 183.092 62.1937C183.095 62.3332 183.071 62.4719 183.02 62.6018C182.969 62.7316 182.892 62.85 182.795 62.9498C182.698 63.0497 182.581 63.129 182.453 63.1832C182.324 63.2373 182.186 63.2652 182.047 63.2652Z" fill="#E0E0E0"/>
<path d="M195.113 70.4675C195.276 70.4533 195.438 70.4306 195.599 70.3996C196.07 70.2943 196.498 70.0482 196.827 69.694C197.066 69.4329 197.244 69.1224 197.35 68.7846C197.45 68.3693 197.486 67.9407 197.454 67.5145C197.454 66.5807 197.454 65.5058 197.454 64.2897C197.454 59.4343 197.428 52.4151 197.412 43.7495C197.412 41.5805 197.412 39.3069 197.412 36.955C197.412 35.7668 197.412 34.5595 197.412 33.333C197.471 32.7273 197.4 32.1162 197.203 31.5403C197.029 31.1158 196.747 30.7435 196.386 30.4597C196.026 30.1758 195.598 29.9899 195.144 29.9201C194.83 29.8814 194.514 29.8691 194.198 29.8835H143.725C143.319 29.87 142.912 29.8805 142.508 29.9148C141.917 30.0017 141.373 30.2834 140.961 30.7152C140.549 31.1471 140.293 31.7042 140.234 32.2981C140.234 32.6797 140.234 33.1082 140.234 33.5107V47.8993C140.234 54.1398 140.234 60.1608 140.234 65.8943C140.323 67.2845 139.884 68.9048 141.023 69.7985C141.274 70.0165 141.57 70.1755 141.891 70.2637C142.218 70.3369 142.554 70.365 142.889 70.3473H152.819H167.01L187.55 70.3943H193.132H194.585H195.081C195.081 70.3943 194.914 70.3943 194.585 70.3943H193.132L187.55 70.4205L167.01 70.4623H152.819H144.917H142.868C142.517 70.4803 142.166 70.4504 141.823 70.3734C141.467 70.2729 141.139 70.0944 140.861 69.8508C140.58 69.6095 140.356 69.3093 140.204 68.9714C140.052 68.6336 139.977 68.2664 139.983 67.896C139.983 67.1852 139.983 66.4744 139.983 65.7584C139.983 60.0092 139.983 54.0039 139.983 47.7634V38.3818C139.983 36.7668 139.983 35.1466 139.983 33.5107C139.983 33.0978 139.983 32.7058 139.983 32.272C140.051 31.6227 140.331 31.014 140.781 30.5412C141.232 30.0684 141.826 29.7581 142.471 29.6587C142.89 29.6182 143.31 29.606 143.731 29.6221H161.804H179.794H194.151C194.479 29.6077 194.808 29.6217 195.134 29.664C195.626 29.7422 196.09 29.9464 196.48 30.2569C196.87 30.5674 197.173 30.9735 197.36 31.4358C197.483 31.7354 197.555 32.0533 197.574 32.3765C197.574 32.7006 197.574 32.9985 197.574 33.3121C197.574 34.5386 197.574 35.7459 197.574 36.9341C197.574 39.2965 197.574 41.57 197.574 43.7286C197.574 52.3941 197.538 59.4082 197.527 64.2688C197.527 65.4814 197.527 66.5563 197.527 67.4936C197.558 67.9273 197.519 68.3631 197.412 68.7846C197.299 69.129 197.111 69.4447 196.863 69.7097C196.524 70.0671 196.082 70.3115 195.599 70.41C195.44 70.4507 195.276 70.4701 195.113 70.4675Z" fill="#263238"/>
<g opacity="0.3">
<path d="M145.236 59.136V63.0036C145.236 63.5359 145.447 64.0464 145.824 64.4228C146.2 64.7991 146.71 65.0106 147.243 65.0106H163.915C164.457 65.0106 164.977 64.7953 165.36 64.412C165.744 64.0288 165.959 63.509 165.959 62.967V56.7527L161.14 52.2631C161.009 52.1421 160.856 52.0485 160.688 51.9879C160.521 51.9272 160.343 51.9007 160.165 51.91C159.987 51.9193 159.813 51.9641 159.653 52.0418C159.493 52.1195 159.35 52.2285 159.232 52.3624L155.454 56.6952L151.732 54.9547C151.4 54.7984 151.03 54.7427 150.667 54.7948C150.303 54.8468 149.963 55.0042 149.689 55.2474L145.236 59.136Z" fill="black"/>
</g>
<g opacity="0.3">
<path d="M154.611 51.6621C155.645 51.6621 156.483 50.8244 156.483 49.791C156.483 48.7576 155.645 47.9199 154.611 47.9199C153.578 47.9199 152.74 48.7576 152.74 49.791C152.74 50.8244 153.578 51.6621 154.611 51.6621Z" fill="black"/>
</g>
</g>
<path d="M180.303 377.632C183.454 376.155 186.996 375.73 190.407 376.419C192.267 376.58 194.022 377.356 195.392 378.625C196.639 380.004 196.881 382.419 195.447 383.599C194.526 384.226 193.414 384.511 192.304 384.404C189.635 384.404 186.679 383.897 184.583 385.507C183.37 386.423 182.565 387.945 181.109 388.397C180.38 388.567 179.616 388.494 178.933 388.189C178.25 387.884 177.686 387.365 177.325 386.71C176.633 385.373 176.479 383.822 176.895 382.375C177.063 381.376 177.457 380.429 178.048 379.607C178.639 378.785 179.41 378.109 180.303 377.632Z" fill="#069550"/>
<path opacity="0.2" d="M180.303 377.632C183.454 376.155 186.996 375.73 190.407 376.419C192.267 376.58 194.022 377.356 195.392 378.625C196.639 380.004 196.881 382.419 195.447 383.599C194.526 384.226 193.414 384.511 192.304 384.404C189.635 384.404 186.679 383.897 184.583 385.507C183.37 386.423 182.565 387.945 181.109 388.397C180.38 388.567 179.616 388.494 178.933 388.189C178.25 387.884 177.686 387.365 177.325 386.71C176.633 385.373 176.479 383.822 176.895 382.375C177.063 381.376 177.457 380.429 178.048 379.607C178.639 378.785 179.41 378.109 180.303 377.632Z" fill="white"/>
<path d="M173.267 364.044C175.153 366.735 178.782 365.841 180.491 364.209C182.201 362.577 182.896 360.194 183.547 357.933C185.036 352.771 186.536 347.344 185.433 342.083C185.165 340.487 184.463 338.995 183.403 337.771C182.868 337.167 182.184 336.715 181.42 336.46C180.655 336.204 179.837 336.154 179.047 336.315C177.205 336.8 176.057 338.609 175.23 340.318C172.793 345.389 171.519 350.94 171.502 356.565C171.326 359.186 171.941 361.799 173.267 364.066" fill="#069550"/>
<path opacity="0.3" d="M173.267 364.044C175.153 366.735 178.782 365.841 180.491 364.209C182.201 362.577 182.896 360.194 183.547 357.933C185.036 352.771 186.536 347.344 185.433 342.083C185.165 340.487 184.463 338.995 183.403 337.771C182.868 337.167 182.184 336.715 181.42 336.46C180.655 336.204 179.837 336.154 179.047 336.315C177.205 336.8 176.057 338.609 175.23 340.318C172.793 345.389 171.519 350.94 171.502 356.565C171.326 359.186 171.941 361.799 173.267 364.066" fill="black"/>
<path d="M168.115 367.893C169.08 366.633 169.722 365.157 169.988 363.593C170.253 362.028 170.133 360.423 169.637 358.915C168.607 355.9 166.763 353.228 164.31 351.194C161.532 348.72 158.299 346.809 154.791 345.569C153.432 345.028 151.974 344.78 150.512 344.841C149.778 344.886 149.066 345.111 148.439 345.496C147.812 345.88 147.289 346.413 146.916 347.047C145.912 348.955 146.916 351.272 147.909 353.169C149.741 356.501 151.832 359.683 154.163 362.687C156.038 365.103 158.189 367.485 161.045 368.577C163.902 369.669 166.869 369.548 168.391 367.563" fill="#069550"/>
<path d="M173.145 404.5C173.239 404.099 173.294 403.689 173.31 403.276L173.641 399.967C173.804 398.331 174.05 396.703 174.38 395.092C174.819 393.129 175.413 391.204 176.156 389.334C176.883 387.463 177.874 385.706 179.101 384.117C180.096 382.826 181.366 381.771 182.818 381.029C183.801 380.544 184.854 380.216 185.939 380.058C186.349 380.044 186.756 379.985 187.153 379.882C186.742 379.836 186.328 379.836 185.917 379.882C184.772 379.965 183.652 380.253 182.608 380.731C181.081 381.458 179.741 382.526 178.693 383.853C177.419 385.463 176.393 387.255 175.648 389.169C174.892 391.063 174.301 393.019 173.884 395.015C173.57 396.648 173.352 398.298 173.233 399.956C173.134 401.368 173.09 402.504 173.067 403.265C173.051 403.678 173.077 404.092 173.145 404.5Z" fill="#263238"/>
<path d="M173.376 401.941C173.39 401.75 173.39 401.559 173.376 401.368C173.376 400.949 173.376 400.408 173.376 399.757C173.376 398.357 173.376 396.327 173.453 393.812C173.575 388.805 174.005 383.4 174.843 375.79C175.626 368.642 176.685 360.348 177.81 354.899C178.053 353.675 178.284 352.561 178.516 351.59C178.748 350.62 178.924 349.781 179.101 349.098C179.277 348.414 179.376 347.939 179.476 347.531C179.525 347.347 179.558 347.159 179.575 346.969C179.486 347.136 179.419 347.314 179.376 347.498L178.913 349.053C178.703 349.726 178.483 350.553 178.24 351.524C177.998 352.495 177.722 353.598 177.457 354.833C176.085 361.234 175.051 367.703 174.358 374.212C173.53 381.834 173.144 388.783 173.111 393.812C173.111 396.327 173.111 398.357 173.2 399.757C173.2 400.419 173.277 400.949 173.299 401.379C173.3 401.569 173.326 401.758 173.376 401.941Z" fill="#263238"/>
<path d="M173.409 388.552C173.448 387.99 173.448 387.426 173.409 386.864C173.343 385.761 173.189 384.206 172.891 382.287C172.514 380.037 172.017 377.81 171.402 375.614C170.672 372.918 169.739 370.282 168.611 367.727C166.676 363.018 163.903 358.698 160.427 354.977C159.821 354.342 159.177 353.745 158.497 353.19C158.199 352.936 157.945 352.694 157.681 352.495L156.931 351.977C156.48 351.639 156.005 351.337 155.508 351.072C157.145 352.359 158.7 353.748 160.162 355.231C163.529 358.976 166.23 363.269 168.148 367.926C169.257 370.467 170.192 373.079 170.95 375.746C171.594 377.923 172.125 380.132 172.538 382.364C172.891 384.272 173.089 385.827 173.211 386.897C173.234 387.453 173.3 388.006 173.409 388.552Z" fill="#263238"/>
<path d="M150.056 209.185C150.96 208.948 168.823 235.292 169.412 257.966C169.46 260.186 169.381 262.406 169.177 264.617C168.408 272.551 166.509 280.333 163.537 287.725C148.445 326.028 132.862 371.455 132.606 381.795C131.82 413.685 118.085 556.832 118.085 556.832L87.9599 557.622L83.1651 381.815L93.8551 207.744L150.056 209.185Z" fill="#FFBE9D"/>
<path d="M92.541 231.799C92.541 231.799 51.805 364.567 54.3596 407.428C56.9142 450.29 87.9624 557.009 87.9624 557.009L92.541 231.799Z" fill="#EB996E"/>
<path d="M162.26 209.381C162.26 209.381 184.937 238.705 169.02 284.842C153.299 330.644 164.559 386.589 164.559 386.589C164.559 386.589 144.496 371.473 130.269 378.143C114.077 385.74 103.288 394.818 83.1069 386.036C62.1396 376.841 45.4758 371.67 26.3163 389.667L55.9496 285.868L73.085 219.78L162.26 209.381Z" fill="#263238"/>
<path d="M43.3919 175.064C48.3635 174.61 57.3046 128.809 57.3046 128.809L94.0515 141.142C94.0515 141.142 95.152 148.108 73.0252 192.45C73.0252 192.45 59.9968 215.735 43.7259 214.67L43.3919 175.064Z" fill="#EB996E"/>
<path d="M96.3123 85.0005C96.3123 85.0005 68.4868 82.2575 55.5369 116.199L55.419 116.515C55.1832 117.147 54.9671 117.798 54.7312 118.488L43.9037 149.095L73.7335 164.034V167.428L70.4912 228.819L165.64 210.763L157.957 199.653C150.568 189.411 152.238 175.025 155.265 162.751L156.286 158.568L169.177 165.336C175.029 151.921 177.421 137.241 176.134 122.652C176.134 122.277 176.134 121.922 176.134 121.567C175.108 110.403 169.771 100.085 161.265 92.8233C152.759 85.5613 141.76 81.9316 130.622 82.7114L96.3123 85.0005Z" fill="#069550"/>
<g opacity="0.3">
<path d="M141.902 120.402C136.656 140.314 126.968 160.225 117.221 178.321C116.278 180.077 114.214 182.05 112.721 180.768C111.581 179.801 112.19 177.946 112.878 176.624L141.902 120.402Z" fill="black"/>
</g>
<path d="M76.1113 131.236C75.3113 132.723 74.6534 134.282 74.1463 135.893C73.1048 138.814 71.631 142.8 70.2161 147.378C69.5299 149.564 69.2827 151.865 69.489 154.147C69.7419 155.993 70.3068 157.781 71.1593 159.436C71.8484 160.985 72.755 162.427 73.8515 163.718C73.2872 162.154 72.631 160.625 71.8864 159.14C71.1585 157.527 70.6876 155.808 70.4912 154.048C70.3423 151.888 70.6023 149.718 71.2576 147.655C72.5938 143.333 73.8122 139.426 74.8537 136.111C75.4483 134.537 75.87 132.902 76.1113 131.236Z" fill="#263238"/>
<path d="M83.9512 29.5684C83.9466 33.5476 82.9273 37.4593 80.9907 40.931C79.0541 44.4026 76.2645 47.3184 72.8879 49.4007C70.9991 50.367 69.1744 51.4546 67.4249 52.6567C66.5513 53.2683 65.8305 54.0747 65.3191 55.0128C64.8078 55.9509 64.5196 56.9952 64.4773 58.0638C64.6149 61.3987 67.9752 63.53 70.9424 65.0495C70.0648 65.7966 69.3528 66.7203 68.8524 67.7607C68.352 68.8012 68.0743 69.9354 68.0373 71.0903C68.0002 72.2452 68.2046 73.395 68.6373 74.4656C69.0699 75.5363 69.7213 76.504 70.5492 77.3064C71.3772 78.1087 72.3634 78.7279 73.4443 79.124C74.5252 79.52 75.6768 79.6842 76.8247 79.6059C77.9727 79.5276 79.0915 79.2085 80.1092 78.6693C81.1268 78.1301 82.0206 77.3827 82.7329 76.4753C82.9726 79.6028 84.1704 82.5792 86.1618 84.996C88.1532 87.4127 90.8407 89.1513 93.8552 89.9731C96.8883 90.719 100.049 90.7784 103.107 90.147C106.166 89.5156 109.047 88.2092 111.541 86.3223C116.517 82.5104 120.402 77.4454 122.801 71.6405" fill="#263238"/>
<path d="M67.8187 42.2979C67.8187 42.2979 67.4257 42.732 67.4454 43.7384C67.48 44.4367 67.6755 45.1173 68.0165 45.7268C68.3575 46.3363 68.8346 46.8581 69.4104 47.251C70.3247 47.7698 71.357 48.0424 72.4072 48.0424C73.4573 48.0424 74.4896 47.7698 75.4039 47.251C77.5929 46.0834 79.3957 44.3004 80.5917 42.1203C82.8157 38.3129 84.2402 34.0888 84.7773 29.7078C85.0846 27.9187 85.0846 26.0899 84.7773 24.3008C84.6201 24.3008 84.5612 26.2742 83.9716 29.6091C83.2158 33.8246 81.7399 37.877 79.6092 41.5874C78.5715 43.6392 76.9863 45.361 75.0305 46.5603C74.2479 47.0099 73.3673 47.2594 72.4661 47.2869C71.5649 47.3144 70.6708 47.1191 69.8624 46.7182C69.3464 46.4003 68.9041 45.9752 68.5652 45.4715C68.2262 44.9677 67.9985 44.397 67.8973 43.7976C67.7205 42.8307 67.917 42.3176 67.8187 42.2979Z" fill="#263238"/>
<path d="M99.2599 86.5978C98.8276 79.0201 98.297 71.5016 98.297 71.5016C98.297 71.5016 86.2314 70.2189 85.5043 58.2011C84.7773 46.1833 85.5043 18.5167 85.5043 18.5167L107.474 7.74219L131.684 26.1142L129.208 86.361C129.058 90.0814 127.538 93.6134 124.942 96.2717C122.346 98.9299 118.858 100.525 115.157 100.747C113.186 100.878 111.208 100.614 109.339 99.9723C107.469 99.3301 105.745 98.3218 104.267 97.0058C102.788 95.6898 101.584 94.0922 100.725 92.3057C99.8652 90.5191 99.3674 88.579 99.2599 86.5978Z" fill="#FFBE9D"/>
<path d="M87.9013 38.7052C87.9013 39.0097 87.9912 39.3072 88.1596 39.5604C88.328 39.8135 88.5674 40.0108 88.8475 40.1273C89.1275 40.2438 89.4357 40.2743 89.7331 40.2149C90.0304 40.1555 90.3035 40.0089 90.5179 39.7936C90.7322 39.5784 90.8782 39.3041 90.9373 39.0055C90.9965 38.7069 90.9661 38.3975 90.8501 38.1162C90.7341 37.8349 90.5377 37.5946 90.2856 37.4254C90.0335 37.2563 89.7372 37.166 89.434 37.166C89.0275 37.166 88.6377 37.3282 88.3502 37.6168C88.0628 37.9055 87.9013 38.297 87.9013 38.7052Z" fill="#263238"/>
<path d="M86.4863 37.0281C86.6828 37.2254 87.8028 36.2585 89.4535 36.1795C91.1042 36.1006 92.3422 36.8702 92.519 36.6531C92.6959 36.4361 92.4011 36.1993 91.8509 35.8243C91.123 35.3484 90.262 35.1203 89.395 35.1736C88.528 35.2269 87.7011 35.5588 87.0365 36.1203C86.4862 36.5545 86.329 36.9294 86.4863 37.0281Z" fill="#263238"/>
<path d="M105.646 38.7052C105.643 38.9064 105.68 39.1061 105.755 39.2928C105.83 39.4794 105.941 39.6493 106.082 39.7925C106.222 39.9357 106.39 40.0493 106.575 40.1269C106.76 40.2045 106.958 40.2445 107.159 40.2445C107.565 40.2445 107.955 40.0823 108.242 39.7936C108.53 39.505 108.691 39.1135 108.691 38.7052C108.691 38.297 108.53 37.9055 108.242 37.6168C107.955 37.3282 107.565 37.166 107.159 37.166C106.958 37.166 106.76 37.2059 106.575 37.2835C106.39 37.3611 106.222 37.4748 106.082 37.618C105.941 37.7612 105.83 37.931 105.755 38.1177C105.68 38.3043 105.643 38.504 105.646 38.7052Z" fill="#263238"/>
<path d="M104.684 37.0281C104.88 37.2254 106.02 36.2585 107.67 36.1795C109.321 36.1006 110.539 36.8702 110.716 36.6531C110.893 36.4361 110.598 36.1993 110.048 35.8243C109.32 35.3484 108.459 35.1203 107.592 35.1736C106.725 35.2269 105.898 35.5588 105.234 36.1203C104.742 36.5545 104.585 36.9294 104.684 37.0281Z" fill="#263238"/>
<path d="M98.7482 50.9008C97.8692 50.6721 96.9641 50.5593 96.056 50.5654C95.6434 50.5654 95.2111 50.5654 95.1128 50.1707C95.0516 49.7161 95.1341 49.2536 95.3486 48.8486C95.722 47.7237 96.0954 46.6186 96.4687 45.4346C97.2548 43.0271 97.9425 40.8169 98.4338 39.2185C98.746 38.3661 98.9507 37.4777 99.043 36.5742C98.6007 37.3596 98.2512 38.194 98.0015 39.0606C97.4316 40.6393 96.6849 42.8298 95.8988 45.257C95.5451 46.4213 95.1914 47.5461 94.8181 48.671C94.5733 49.2094 94.5246 49.817 94.6805 50.3878C94.8265 50.6181 95.0363 50.8006 95.2842 50.9128C95.532 51.0249 95.8072 51.0619 96.0757 51.0192C96.9682 51.0732 97.8639 51.0336 98.7482 50.9008Z" fill="#263238"/>
<path d="M104.172 52.5579C105.822 51.4529 99.5536 55.3207 96.1933 55.3207C96.7963 56.16 97.6636 56.7706 98.655 57.0535C99.6464 57.3364 100.704 57.2751 101.656 56.8796C105.193 55.3799 104.172 52.5579 104.172 52.5579Z" fill="white"/>
<path d="M98.2766 71.5025C103.959 71.2567 109.454 69.3878 114.115 66.1152C114.115 66.1152 110.519 74.9362 98.532 74.4428L98.2766 71.5025Z" fill="#EB996E"/>
<path d="M90.5339 9.69665C102.324 -2.65661 110.519 -0.170172 115.176 -0.170172C120.291 0.405211 125.232 2.03625 129.689 4.62054C134.146 7.20484 138.022 10.6865 141.076 14.8471C144.377 18.3005 149.093 29.5487 149.643 33.5152C149.86 37.5195 149.82 41.5336 149.526 45.5329C149.526 49.4797 150.469 53.8605 153.456 56.5246C155.421 58.202 158.015 59.1689 159.154 61.4383C159.678 62.8282 159.701 64.358 159.22 65.7632C158.739 67.1685 157.785 68.3609 156.521 69.1344C153.93 70.5966 150.948 71.2106 147.993 70.8907C148.232 73.8786 147.361 76.8497 145.546 79.2298C143.731 81.6098 141.102 83.2299 138.167 83.7768C135.175 84.1733 132.145 83.388 129.718 81.5863C127.71 83.5448 125.583 85.3769 123.351 87.0723C122.853 69.6014 123.22 52.1371 124.451 34.6794C116.473 33.2586 102.167 28.937 99.6716 16.1101C96.4881 23.4115 91.654 27.3977 85.2282 32.9231C85.1889 32.9429 78.6256 22.0697 90.5339 9.69665Z" fill="#263238"/>
<path d="M123.529 30.0614C121.905 29.8566 120.261 29.8566 118.636 30.0614C114.804 30.4836 110.927 30.0247 107.298 28.7195C105.38 27.9262 103.735 26.589 102.562 24.8714C101.607 23.4357 100.94 21.8271 100.597 20.1353C100.027 17.2345 100.302 15.34 100.125 15.3203C99.6251 16.9227 99.5305 18.6251 99.8501 20.2734C100.09 22.0945 100.713 23.8435 101.678 25.4042C102.919 27.3222 104.706 28.8211 106.806 29.7062C110.577 31.0834 114.637 31.4639 118.597 30.8112C120.261 30.7175 121.912 30.4665 123.529 30.0614Z" fill="#263238"/>
<path d="M154.656 59.4453C153.991 59.4607 153.327 59.3674 152.691 59.1691C151.862 58.8404 151.13 58.3059 150.563 57.6157C149.996 56.9254 149.613 56.1019 149.449 55.2223C149.127 52.5422 149.635 49.8275 150.903 47.4473C151.588 45.9354 152.153 44.3716 152.593 42.7704C153.011 41.0072 153.124 39.1848 152.927 37.3831C152.523 33.9221 151.304 30.6075 149.37 27.7136C147.816 25.3837 146.003 23.2387 143.966 21.3199C142.257 19.6623 140.783 18.4388 139.761 17.61C139.266 17.1286 138.703 16.723 138.091 16.4062C137.973 16.5444 140.056 18.498 143.436 21.8527C145.35 23.7974 147.062 25.9332 148.545 28.2267C150.337 31.0203 151.479 34.1838 151.885 37.4818C152.056 39.1707 151.957 40.8763 151.591 42.5336C151.173 44.0841 150.641 45.6012 149.999 47.0723C148.693 49.638 148.245 52.5584 148.722 55.3999C148.943 56.3626 149.415 57.2493 150.088 57.9701C150.761 58.691 151.611 59.2203 152.554 59.5045C153.071 59.6272 153.609 59.6272 154.126 59.5045C154.499 59.5637 154.656 59.4848 154.656 59.4453Z" fill="#263238"/>
<path opacity="0.3" d="M154.32 192.193C154.32 192.193 150.783 219.564 124.255 218.577C106.511 217.775 88.8392 215.797 71.3548 212.657L71.6299 207.467L154.32 192.193Z" fill="black"/>
<path d="M0.651993 174.807C3.01009 170.999 19.222 180.076 20.6565 180.727C22.091 181.379 23.0932 179.326 21.7766 178.754C19.8115 177.984 0.160706 169.459 2.38124 165.71C3.63889 163.737 7.13672 166.243 7.13672 166.243C7.13672 166.243 25.0582 175.597 26.0604 173.781C27.0626 171.966 16.7656 166.105 13.1499 164.388C9.53412 162.671 8.9053 160.283 10.9883 159.316C12.3835 158.665 23.6041 163.678 27.1412 165.454C30.6784 167.23 40.3269 172.321 37.5954 165.947C34.864 159.573 35.1784 153.633 36.3771 152.133C36.688 151.806 37.0929 151.585 37.5353 151.5C37.9776 151.415 38.4352 151.472 38.8442 151.661C39.2533 151.85 39.5933 152.162 39.8168 152.555C40.0404 152.947 40.1362 153.4 40.0911 153.85C40.267 156.183 40.763 158.481 41.5649 160.678C42.1427 162.471 43.0199 164.153 44.1588 165.651C45.495 167.407 46.6937 168.828 47.7548 170.012C58.0911 173.643 87.587 182.819 115.137 180.293C120.129 179.839 132.823 146.371 132.823 146.371L167.133 164.131C167.133 164.131 167.762 166.006 152.12 196.573C130.819 238.192 34.5888 195.015 34.5888 195.015V194.916C27.2907 193.462 20.0751 191.618 12.973 189.39C3.30482 185.878 3.59961 184.99 4.20879 183.944C5.82014 181.083 21.4621 189.469 19.1433 185.7C16.8246 181.931 -1.15587 177.708 0.651993 174.807Z" fill="#FFBE9D"/>
</g>
<defs>
<clipPath id="clip0_101_92723">
<rect width="249" height="409" fill="white" transform="translate(0.5)"/>
</clipPath>
</defs>
</svg>
