<svg width="19" height="21" viewBox="0 0 19 21" fill="none" xmlns="http://www.w3.org/2000/svg">
<path d="M9 0.5L3.5 9.5H14.5L9 0.5ZM9 4.34L10.93 7.5H7.06L9 4.34ZM14.5 11.5C12.01 11.5 10 13.51 10 16C10 18.49 12.01 20.5 14.5 20.5C16.99 20.5 19 18.49 19 16C19 13.51 16.99 11.5 14.5 11.5ZM14.5 18.5C13.837 18.5 13.2011 18.2366 12.7322 17.7678C12.2634 17.2989 12 16.663 12 16C12 15.337 12.2634 14.7011 12.7322 14.2322C13.2011 13.7634 13.837 13.5 14.5 13.5C15.163 13.5 15.7989 13.7634 16.2678 14.2322C16.7366 14.7011 17 15.337 17 16C17 16.663 16.7366 17.2989 16.2678 17.7678C15.7989 18.2366 15.163 18.5 14.5 18.5ZM0 20H8V12H0V20ZM2 14H6V18H2V14Z" fill="#627798"/>
</svg>
