<svg width="213" height="218" viewBox="0 0 213 218" fill="none" xmlns="http://www.w3.org/2000/svg">
<path d="M186.244 179.982C165.881 203.186 136.034 217.195 103.828 217.195C71.6707 217.195 41.6795 203.33 20.9792 179.501C45.0011 169.007 73.0668 162.989 103.058 162.989C133.531 162.989 161.981 169.199 186.244 179.982Z" fill="url(#paint0_linear_5044_770617)"/>
<path d="M68.0601 177.479C68.0601 179.357 63.4387 180.897 57.8063 180.897C52.1258 180.897 47.5525 179.357 47.5525 177.479C47.5525 175.554 52.174 174.013 57.8063 174.013C63.4387 174.013 68.0601 175.554 68.0601 177.479Z" fill="#D6DCE8"/>
<path d="M115.285 170.114C115.285 171.991 110.664 173.532 105.032 173.532C99.3512 173.532 94.7778 171.991 94.7778 170.114C94.7778 168.188 99.3993 166.648 105.032 166.648C110.712 166.696 115.285 168.236 115.285 170.114Z" fill="#D6DCE8"/>
<path d="M172.38 177.335C172.38 179.309 167.614 180.897 161.693 180.897C155.771 180.897 151.005 179.309 151.005 177.335C151.005 175.361 155.771 173.772 161.693 173.772C167.614 173.772 172.38 175.361 172.38 177.335Z" fill="#D6DCE8"/>
<path d="M11.2067 13.0327C14.5765 13.0327 17.2724 10.2406 17.2724 6.87082C17.2724 3.50101 14.5284 0.805176 11.1586 0.805176C7.78879 0.805176 5.0448 3.54916 5.0448 6.91896C5.09294 10.2888 7.83692 13.0327 11.2067 13.0327Z" fill="#D6DCE8"/>
<path d="M4.03389 26.1748C6.15205 26.1748 7.93323 24.3937 7.88509 22.2755C7.88509 20.1573 6.15206 18.3762 3.98576 18.4243C1.8676 18.4243 0.0864258 20.1573 0.0864258 22.3236C0.134566 24.4418 1.86758 26.1748 4.03389 26.1748Z" fill="#D6DCE8"/>
<path d="M204.874 19.8686C202.13 19.8686 199.916 17.606 199.916 14.862C199.916 12.118 202.13 9.90356 204.874 9.90356C207.618 9.90356 209.881 12.118 209.881 14.862C209.881 17.606 207.618 19.8686 204.874 19.8686Z" fill="#D6DCE8"/>
<path d="M207.907 174.109C205.163 174.109 202.949 171.847 202.949 169.103C202.949 166.359 205.163 164.144 207.907 164.144C210.651 164.144 212.914 166.359 212.914 169.103C212.914 171.847 210.651 174.109 207.907 174.109Z" fill="#D6DCE8"/>
<path d="M173.728 65.1207V171.462H156.831V65.1207C156.831 63.7728 157.938 62.6655 159.286 62.6655H171.273C172.669 62.6655 173.728 63.7728 173.728 65.1207Z" fill="url(#paint1_linear_5044_770617)"/>
<path d="M182.682 181.042V175.265C182.682 173.195 180.997 171.462 178.879 171.462H151.728C149.658 171.462 147.925 173.147 147.925 175.265V181.042C147.925 182.534 149.128 183.786 150.669 183.786H179.938C181.43 183.786 182.682 182.534 182.682 181.042Z" fill="url(#paint2_linear_5044_770617)"/>
<path d="M159.093 62.6653H171.513C176.135 60.3546 179.264 55.6369 179.264 50.1489C179.264 42.3983 173.006 36.1401 165.255 36.1401C157.505 36.1401 151.246 42.3983 151.246 50.1489C151.294 55.6369 154.472 60.3546 159.093 62.6653Z" fill="#E0E4ED"/>
<path d="M173.343 50.149C173.343 54.5779 169.732 58.1883 165.303 58.1883C160.874 58.1883 157.312 54.5779 157.312 50.149C157.312 45.7201 160.922 42.1577 165.303 42.1577C169.732 42.1577 173.343 45.7201 173.343 50.149Z" fill="url(#paint3_linear_5044_770617)"/>
<path d="M53.8588 65.1204V171.462H36.9617V65.1204C36.9617 63.7725 38.0689 62.6653 39.4168 62.6653H51.4037C52.7516 62.6653 53.8588 63.7725 53.8588 65.1204Z" fill="url(#paint4_linear_5044_770617)"/>
<path d="M62.7647 181.042V175.265C62.7647 173.195 61.0797 171.462 58.9616 171.462H31.8106C29.7406 171.462 28.0076 173.147 28.0076 175.265V181.042C28.0076 182.534 29.211 183.786 30.7515 183.786H60.0207C61.5612 183.786 62.7647 182.534 62.7647 181.042Z" fill="url(#paint5_linear_5044_770617)"/>
<path d="M189.903 76.9631V101.466C189.903 104.644 187.351 107.243 184.174 107.243H22.5196C19.3905 107.195 16.8872 104.644 16.8872 101.466V76.9631C16.8872 73.7858 19.4868 71.1863 22.664 71.1863H184.27C184.463 71.1863 184.607 71.1863 184.8 71.2344C187.64 71.5233 189.903 73.9784 189.903 76.9631Z" fill="url(#paint6_linear_5044_770617)"/>
<path d="M189.903 125.247V137.86C189.903 141.037 187.351 143.637 184.174 143.637H22.6159C21.1717 143.637 19.8719 143.107 18.861 142.289C17.6094 141.23 16.8391 139.641 16.8391 137.908V125.296C16.8391 122.118 19.4387 119.519 22.6159 119.519H184.222C184.944 119.519 185.618 119.663 186.244 119.904C188.362 120.674 189.903 122.792 189.903 125.247Z" fill="url(#paint7_linear_5044_770617)"/>
<path d="M39.176 62.6653H51.5962C56.2176 60.3546 59.3467 55.6369 59.3467 50.1489C59.3467 42.3983 53.0885 36.1401 45.338 36.1401C37.5874 36.1401 31.3292 42.3983 31.3292 50.1489C31.4255 55.6369 34.6027 60.3546 39.176 62.6653Z" fill="#E0E4ED"/>
<path d="M46.9266 71.2344L22.5196 107.291C19.3905 107.243 16.8872 104.692 16.8872 101.514V94.3897L32.5809 71.2344H46.9266Z" fill="url(#paint8_linear_5044_770617)"/>
<path d="M48.6597 119.471L32.2921 143.589H22.5678C21.1236 143.589 19.8238 143.059 18.8129 142.241L34.2177 119.471H48.6597Z" fill="url(#paint9_linear_5044_770617)"/>
<path d="M81.3467 71.2344L56.9397 107.243H42.594L67.001 71.2344H81.3467Z" fill="url(#paint10_linear_5044_770617)"/>
<path d="M83.128 119.471L66.7603 143.589H52.3665L68.7341 119.471H83.128Z" fill="url(#paint11_linear_5044_770617)"/>
<path d="M115.815 71.2344L91.408 107.243H77.0142L101.421 71.2344H115.815Z" fill="url(#paint12_linear_5044_770617)"/>
<path d="M117.548 119.471L101.18 143.589H86.8347L103.202 119.471H117.548Z" fill="url(#paint13_linear_5044_770617)"/>
<path d="M150.235 71.2344L125.828 107.243H111.483L135.89 71.2344H150.235Z" fill="url(#paint14_linear_5044_770617)"/>
<path d="M152.016 119.471L135.649 143.589H121.303L137.622 119.471H152.016Z" fill="url(#paint15_linear_5044_770617)"/>
<path d="M184.703 71.2344L160.296 107.243H145.951L170.358 71.1863H184.222C184.366 71.2344 184.511 71.2344 184.703 71.2344Z" fill="url(#paint16_linear_5044_770617)"/>
<path d="M186.196 119.856L170.117 143.589H155.723L172.091 119.471H184.174C184.896 119.471 185.57 119.615 186.196 119.856Z" fill="url(#paint17_linear_5044_770617)"/>
<path d="M189.903 93.1382V101.466C189.903 104.644 187.351 107.243 184.174 107.243H180.371L189.903 93.1382Z" fill="url(#paint18_linear_5044_770617)"/>
<path d="M136.275 52.604L123.036 75.5187C121.688 77.8294 119.233 79.2736 116.537 79.2736H90.0601C87.3643 79.2736 84.9091 77.8294 83.5612 75.5187L70.3227 52.604C68.9748 50.2933 68.9748 47.4049 70.3227 45.0942L83.5612 22.1795C84.9091 19.8688 87.3643 18.4246 90.0601 18.4246H116.537C119.233 18.4246 121.688 19.8688 123.036 22.1795L136.275 45.0942C137.622 47.4049 137.622 50.2933 136.275 52.604Z" fill="url(#paint19_linear_5044_770617)"/>
<path d="M130.594 50.197L118.126 71.7637C117.644 72.5821 116.73 73.1116 115.767 73.1116H90.8785C89.9157 73.1116 89.001 72.5821 88.5196 71.7637L76.0514 50.197C75.57 49.3786 75.57 48.3195 76.0514 47.453L88.5196 25.8863C89.001 25.0197 89.9157 24.5383 90.8785 24.5383H115.767C116.73 24.5383 117.644 25.0679 118.126 25.8863L130.594 47.453C131.075 48.3195 131.075 49.3786 130.594 50.197Z" fill="url(#paint20_linear_5044_770617)"/>
<path d="M92.4671 47.5976V37.5845C92.4671 37.2475 92.1782 37.0068 91.8894 37.0068C88.2307 37.0068 88.2307 36.9105 88.0382 37.2956L81.5392 47.5495C81.4911 47.6457 81.443 47.742 81.443 47.8864V49.812C81.443 50.149 81.7318 50.3897 82.0207 50.3897H89.1935V52.6523C89.1935 52.9893 89.4823 53.23 89.7712 53.23H91.8412C92.1782 53.23 92.4189 52.9411 92.4189 52.6523V50.3897H93.815C94.1519 50.3897 94.3927 50.1009 94.3927 49.812V48.1753C94.3927 47.8383 94.1038 47.5976 93.815 47.5976H92.4671ZM84.8609 47.5976V47.4532L89.1454 40.7136H89.2898V47.5976H84.8609Z" fill="url(#paint21_linear_5044_770617)"/>
<path d="M103.106 53.5189C100.314 53.5189 98.3402 52.0746 97.3292 49.6195C96.2701 47.1162 96.2701 43.0725 97.3292 40.5692C98.3402 38.1622 100.314 36.7661 103.106 36.7661C107.679 36.7661 109.653 40.4729 109.653 45.0943C109.653 49.7639 107.679 53.5189 103.106 53.5189ZM103.106 50.6786C105.561 50.6786 106.139 47.5495 106.139 45.0943C106.139 42.6392 105.561 39.5582 103.106 39.5582C100.651 39.5582 100.073 42.6392 100.073 45.0943C100.073 47.5495 100.651 50.6786 103.106 50.6786Z" fill="url(#paint22_linear_5044_770617)"/>
<path d="M122.892 47.5976V37.5845C122.892 37.2475 122.603 37.0068 122.314 37.0068C118.655 37.0068 118.655 36.9105 118.463 37.2956C111.434 48.3197 111.868 47.5976 111.868 47.8383V49.7639C111.868 50.1009 112.156 50.3416 112.445 50.3416H119.618V52.6042C119.618 52.9412 119.907 53.1818 120.196 53.1818H122.266C122.603 53.1818 122.843 52.893 122.843 52.6042V50.3416H124.24C124.577 50.3416 124.817 50.0527 124.817 49.7639V48.1753C124.817 47.8383 124.528 47.5976 124.24 47.5976H122.892ZM119.666 47.5976H115.285V47.4532L119.57 40.7136H119.714V47.5976H119.666Z" fill="url(#paint23_linear_5044_770617)"/>
<path d="M115.285 60.4027H91.6487C91.1673 60.4027 90.7822 60.0176 90.7822 59.5362C90.7822 59.0548 91.1673 58.6697 91.6487 58.6697H115.285C115.767 58.6697 116.152 59.0548 116.152 59.5362C116.152 60.0176 115.767 60.4027 115.285 60.4027Z" fill="white"/>
<path d="M110.52 65.3612H96.4146C95.9332 65.3612 95.5481 64.9761 95.5481 64.4947C95.5481 64.0133 95.9332 63.6282 96.4146 63.6282H110.568C111.049 63.6282 111.434 64.0133 111.434 64.4947C111.386 64.9761 111.001 65.3612 110.52 65.3612Z" fill="white"/>
<path d="M53.4255 50.149C53.4255 54.5779 49.815 58.1883 45.3861 58.1883C40.9572 58.1883 37.3949 54.5779 37.3949 50.149C37.3949 45.7201 41.0054 42.1577 45.3861 42.1577C49.815 42.1577 53.4255 45.7201 53.4255 50.149Z" fill="url(#paint24_linear_5044_770617)"/>
<defs>
<linearGradient id="paint0_linear_5044_770617" x1="102.491" y1="211.469" x2="104.555" y2="153.989" gradientUnits="userSpaceOnUse">
<stop stop-color="#D6DCE8"/>
<stop offset="1" stop-color="white"/>
</linearGradient>
<linearGradient id="paint1_linear_5044_770617" x1="156.873" y1="117.055" x2="173.751" y2="117.055" gradientUnits="userSpaceOnUse">
<stop stop-color="#E2E5EC"/>
<stop offset="1" stop-color="#B7C2DC"/>
</linearGradient>
<linearGradient id="paint2_linear_5044_770617" x1="148.012" y1="177.623" x2="182.729" y2="177.623" gradientUnits="userSpaceOnUse">
<stop stop-color="#E2E5EC"/>
<stop offset="1" stop-color="#B7C2DC"/>
</linearGradient>
<linearGradient id="paint3_linear_5044_770617" x1="157.302" y1="50.15" x2="173.322" y2="50.15" gradientUnits="userSpaceOnUse">
<stop stop-color="#989FB0"/>
<stop offset="1" stop-color="#AAB2C5"/>
</linearGradient>
<linearGradient id="paint4_linear_5044_770617" x1="37.0044" y1="117.055" x2="53.8819" y2="117.055" gradientUnits="userSpaceOnUse">
<stop stop-color="#E2E5EC"/>
<stop offset="1" stop-color="#B7C2DC"/>
</linearGradient>
<linearGradient id="paint5_linear_5044_770617" x1="28.0954" y1="177.623" x2="62.8121" y2="177.623" gradientUnits="userSpaceOnUse">
<stop stop-color="#E2E5EC"/>
<stop offset="1" stop-color="#B7C2DC"/>
</linearGradient>
<linearGradient id="paint6_linear_5044_770617" x1="103.485" y1="71.5149" x2="103.314" y2="101.458" gradientUnits="userSpaceOnUse">
<stop stop-color="#51504C"/>
<stop offset="1" stop-color="#2C2C2C"/>
</linearGradient>
<linearGradient id="paint7_linear_5044_770617" x1="103.461" y1="119.739" x2="103.385" y2="139.768" gradientUnits="userSpaceOnUse">
<stop stop-color="#51504C"/>
<stop offset="1" stop-color="#2C2C2C"/>
</linearGradient>
<linearGradient id="paint8_linear_5044_770617" x1="31.9606" y1="71.1181" x2="5" y2="122.5" gradientUnits="userSpaceOnUse">
<stop stop-color="#F3C347"/>
<stop offset="1" stop-color="#F3CA60"/>
</linearGradient>
<linearGradient id="paint9_linear_5044_770617" x1="33.7896" y1="119.393" x2="20.0243" y2="158.362" gradientUnits="userSpaceOnUse">
<stop stop-color="#F3C347"/>
<stop offset="1" stop-color="#F3CA60"/>
</linearGradient>
<linearGradient id="paint10_linear_5044_770617" x1="62.0396" y1="71.1182" x2="39.2228" y2="127.291" gradientUnits="userSpaceOnUse">
<stop stop-color="#F3C347"/>
<stop offset="1" stop-color="#F3CA60"/>
</linearGradient>
<linearGradient id="paint11_linear_5044_770617" x1="67.8022" y1="119.393" x2="54.3588" y2="158.617" gradientUnits="userSpaceOnUse">
<stop stop-color="#F3C347"/>
<stop offset="1" stop-color="#F3CA60"/>
</linearGradient>
<linearGradient id="paint12_linear_5044_770617" x1="96.484" y1="71.1182" x2="73.6875" y2="127.311" gradientUnits="userSpaceOnUse">
<stop stop-color="#F3C347"/>
<stop offset="1" stop-color="#F3CA60"/>
</linearGradient>
<linearGradient id="paint13_linear_5044_770617" x1="102.246" y1="119.393" x2="88.7863" y2="158.604" gradientUnits="userSpaceOnUse">
<stop stop-color="#F3C347"/>
<stop offset="1" stop-color="#F3CA60"/>
</linearGradient>
<linearGradient id="paint14_linear_5044_770617" x1="130.928" y1="71.1182" x2="108.111" y2="127.291" gradientUnits="userSpaceOnUse">
<stop stop-color="#F3C347"/>
<stop offset="1" stop-color="#F3CA60"/>
</linearGradient>
<linearGradient id="paint15_linear_5044_770617" x1="136.715" y1="119.393" x2="123.255" y2="158.604" gradientUnits="userSpaceOnUse">
<stop stop-color="#F3C347"/>
<stop offset="1" stop-color="#F3CA60"/>
</linearGradient>
<linearGradient id="paint16_linear_5044_770617" x1="165.396" y1="71.07" x2="142.527" y2="127.297" gradientUnits="userSpaceOnUse">
<stop stop-color="#F3C347"/>
<stop offset="1" stop-color="#F3CA60"/>
</linearGradient>
<linearGradient id="paint17_linear_5044_770617" x1="171.014" y1="119.393" x2="157.47" y2="158.538" gradientUnits="userSpaceOnUse">
<stop stop-color="#F3C347"/>
<stop offset="1" stop-color="#F3CA60"/>
</linearGradient>
<linearGradient id="paint18_linear_5044_770617" x1="185.23" y1="93.123" x2="185.126" y2="107.295" gradientUnits="userSpaceOnUse">
<stop stop-color="#D6DCE8"/>
<stop offset="1" stop-color="white"/>
</linearGradient>
<linearGradient id="paint19_linear_5044_770617" x1="138.605" y1="51.8259" x2="48.2867" y2="44.1847" gradientUnits="userSpaceOnUse">
<stop stop-color="#D6DCE8"/>
<stop offset="1" stop-color="white"/>
</linearGradient>
<linearGradient id="paint20_linear_5044_770617" x1="124.782" y1="60.7154" x2="81.8509" y2="36.9724" gradientUnits="userSpaceOnUse">
<stop stop-color="#D04A4A"/>
<stop offset="1" stop-color="#E42525"/>
</linearGradient>
<linearGradient id="paint21_linear_5044_770617" x1="81.4027" y1="45.0694" x2="94.4677" y2="45.0694" gradientUnits="userSpaceOnUse">
<stop stop-color="#D6DCE8"/>
<stop offset="0.5027" stop-color="white"/>
</linearGradient>
<linearGradient id="paint22_linear_5044_770617" x1="96.5543" y1="45.1404" x2="109.649" y2="45.1404" gradientUnits="userSpaceOnUse">
<stop stop-color="#D6DCE8"/>
<stop offset="0.5027" stop-color="white"/>
</linearGradient>
<linearGradient id="paint23_linear_5044_770617" x1="111.84" y1="45.0694" x2="124.91" y2="45.0694" gradientUnits="userSpaceOnUse">
<stop stop-color="#D6DCE8"/>
<stop offset="0.5027" stop-color="white"/>
</linearGradient>
<linearGradient id="paint24_linear_5044_770617" x1="37.3981" y1="50.15" x2="53.4187" y2="50.15" gradientUnits="userSpaceOnUse">
<stop stop-color="#989FB0"/>
<stop offset="1" stop-color="#AAB2C5"/>
</linearGradient>
</defs>
</svg>
