<svg width="363" height="230" viewBox="0 0 363 230" fill="none" xmlns="http://www.w3.org/2000/svg">
<g clip-path="url(#clip0_591_74659)">
<path d="M359.347 163.893C363.209 151.292 364.148 137.962 361.33 125.049C356.947 104.951 342.961 80.5823 302.361 70.0644C225.649 50.174 198.93 -8.03933 127.123 10.4973C127.123 10.4973 88.6104 17.4745 70.3456 81.103C52.1852 144.731 -19.2041 145.773 5.42726 201.174C9.4977 210.234 20.2478 220.128 35.799 229.396L326.888 228.459C347.031 204.299 353.294 183.471 359.347 163.893Z" fill="#C3E9D0"/>
<path d="M290.671 118.385H279.712V106.513C279.712 100.577 275.538 95.5782 269.902 94.2244V79.3327H265.831V93.8079C259.36 94.4327 254.35 99.7438 254.35 106.409V118.697H243.496V132.339H242.765V157.749L223.039 157.645V127.236H200.391V149.522H184.527V171.183H165.323V228.459H229.093H242.765H322.713V156.291H290.567L290.671 118.385Z" fill="#9BDBB3"/>
<path d="M65.2315 149.834V121.405H75.9816V106.2H79.9477V121.405H89.8628V149.834H100.822V166.913H118.46V108.804H155.303V228.459H131.298H120.965H94.977H82.9744H51.6633V149.834H65.2315Z" fill="#9BDBB3"/>
<path d="M266.144 228.146L98.5256 228.25C92.159 228.25 87.0449 223.148 87.0449 216.795L277.625 216.691C277.625 223.043 272.511 228.146 266.144 228.146Z" fill="#008444"/>
<path d="M266.144 224.189L98.5256 224.293C93.6202 224.293 89.341 221.169 87.7755 216.795H87.0449C87.0449 223.148 92.159 228.25 98.5256 228.25L266.144 228.146C272.511 228.146 277.625 223.043 277.625 216.691H276.895C275.329 221.065 271.05 224.189 266.144 224.189Z" fill="#069550"/>
<path d="M193.189 220.544H171.585C169.497 220.544 167.723 218.878 167.723 216.691H197.051C197.051 218.878 195.277 220.544 193.189 220.544Z" fill="#006430"/>
<path d="M267.814 216.691L96.8557 216.795L96.7513 113.802C96.7513 107.867 101.552 103.076 107.501 103.076L257.064 102.972C263.013 102.972 267.814 107.762 267.814 113.698V216.691Z" fill="#16A75C"/>
<path d="M258.943 112.032H105.727V207.943H258.943V112.032Z" fill="#008444"/>
<path d="M258.943 198.675H105.727V207.839H258.943V198.675Z" fill="#006430"/>
<path d="M258.943 112.032H105.727V116.614H258.943V112.032Z" fill="#006430"/>
<path opacity="0.16" d="M156.764 112.032L105.727 163.06V207.943H105.832L201.852 111.928L156.764 112.032Z" fill="#4DC27E"/>
<path opacity="0.16" d="M125.558 207.943L148.101 207.839L244.122 111.928H221.578L125.558 207.943Z" fill="#4DC27E"/>
<path opacity="0.16" d="M240.887 207.839L258.943 189.823L258.838 155.77L204.879 207.839H240.887Z" fill="#4DC27E"/>
<path d="M267.814 152.958H96.7513V171.807H267.814V152.958Z" fill="#FFA600"/>
<path d="M118.069 173.5H103L115.931 150.5H131L118.069 173.5Z" fill="white"/>
<path d="M149.475 173.5H135L147.525 150.5H162L149.475 173.5Z" fill="white"/>
<path d="M181.069 173.5H166L178.931 150.5H194L181.069 173.5Z" fill="white"/>
<path d="M212.531 173.5H198L210.469 150.5H225L212.531 173.5Z" fill="white"/>
<path d="M243.531 173.5H229L241.469 150.5H256L243.531 173.5Z" fill="white"/>
<path fill-rule="evenodd" clip-rule="evenodd" d="M303.52 44.3346L290.056 57.5602L290.984 58.505V59.8295H302.164L290.056 71.723L290.984 72.6678V73.9923H302.175L290.053 85.9935L290.984 86.9348V88.2592H302.069L290.053 100.156L290.984 101.098V102.422H302.164L290.056 114.315L290.984 115.26V116.585H302.164L290.056 128.478L290.984 129.423V130.748H302.175L290.053 142.749L290.984 143.69V145.015H302.069L290.053 156.912L290.984 157.853V159.177H302.164L290.056 171.071L290.984 172.016V173.34H302.175L290.053 185.341L290.984 186.283V187.607H302.069L290.053 199.504L291.916 201.387L305.38 188.057L304.448 187.116V184.958H294.205L305.38 173.894L304.448 172.953V170.691H294.223L305.376 159.735L304.448 158.79V156.528H294.205L305.38 145.464L304.448 144.523V142.366H294.205L305.38 131.302L304.448 130.36V128.099H294.223L305.376 117.142L304.448 116.198V113.936H294.223L305.376 102.98L304.448 102.035V99.7731H294.205L305.38 88.7091L304.448 87.7679V85.6103H294.205L305.38 74.5463L304.448 73.6051V71.3434H294.223L305.376 60.3871L304.448 59.4423V57.1806H294.223L305.376 46.2243L303.52 44.3346Z" fill="#16A75C"/>
<path fill-rule="evenodd" clip-rule="evenodd" d="M292.309 47.4663V204.299H289.66V47.4663H292.309Z" fill="#008444"/>
<path fill-rule="evenodd" clip-rule="evenodd" d="M305.773 47.4663V204.299H303.124V47.4663H305.773Z" fill="#008444"/>
<path d="M308.919 200.445H285.992C284.887 200.445 283.992 201.341 283.992 202.445V228.354H310.919V202.445C310.919 201.341 310.024 200.445 308.919 200.445Z" fill="#006430"/>
<path d="M304.448 48.5H290.358C287.853 48.5 285.87 46.4441 285.87 43.8471V25.6682C285.87 23.0712 287.853 21.0152 290.358 21.0152H304.448C306.953 21.0152 308.936 23.0712 308.936 25.6682V43.9553C308.936 46.4441 306.953 48.5 304.448 48.5Z" fill="#069550"/>
<path d="M297.038 40.4926H288.062V27.6159H297.142C299.021 27.6159 300.587 29.239 300.587 31.1868V37.03C300.482 38.9777 298.917 40.4926 297.038 40.4926Z" fill="#006430"/>
<path fill-rule="evenodd" clip-rule="evenodd" d="M211.685 80.6237L200.831 49.2781L202.874 48.5705L213.728 79.9161L211.685 80.6237Z" fill="#008444"/>
<path fill-rule="evenodd" clip-rule="evenodd" d="M172.387 72.9595L193.47 44.6339L195.205 45.925L174.122 74.2506L172.387 72.9595Z" fill="#008444"/>
<path d="M200.6 59.1298L222.309 87.5596C224.709 90.6837 224.083 95.1617 220.952 97.5568L192.668 119.218C189.537 121.613 185.049 120.988 182.648 117.864L160.939 89.4341C158.539 86.3099 159.165 81.832 162.296 79.4368L190.789 57.776C193.816 55.485 198.304 56.0057 200.6 59.1298Z" fill="#FFB900"/>
<path d="M199.034 64.545L216.882 87.7679C218.865 90.3713 218.343 94.0162 215.838 95.8906L192.563 113.698C189.954 115.677 186.301 115.156 184.422 112.657L166.575 89.4341C164.592 86.8306 165.114 83.1858 167.619 81.3113L190.893 63.5036C193.398 61.4209 197.051 61.9416 199.034 64.545Z" stroke="#006430" stroke-width="1.1138" stroke-miterlimit="10"/>
<path d="M193.503 99.1189C192.981 103.284 186.51 102.451 187.136 98.2858C187.658 94.0161 194.024 94.8492 193.503 99.1189ZM196.216 75.5837L193.711 93.2872L188.284 92.5582C189.119 86.6223 189.745 80.7906 190.58 74.8547L196.216 75.5837Z" fill="#006430"/>
<path d="M198.825 51.5277C203.783 51.5277 207.801 47.5181 207.801 42.5719C207.801 37.6256 203.783 33.616 198.825 33.616C193.868 33.616 189.85 37.6256 189.85 42.5719C189.85 47.5181 193.868 51.5277 198.825 51.5277Z" fill="#008444"/>
<path d="M205.192 42.5719C205.192 46.1126 202.374 48.9243 198.825 48.9243C195.277 48.9243 192.459 46.1126 192.459 42.5719C192.459 39.0312 195.277 36.2194 198.825 36.2194C202.27 36.2194 205.192 39.0312 205.192 42.5719Z" fill="#069550"/>
<path fill-rule="evenodd" clip-rule="evenodd" d="M232.883 5.19061L218.31 20.6549V21.0152H217.971L217.115 21.9236L216.151 21.0152H215.661V20.554L215.187 20.1069L215.661 19.6035V1.8538H218.31V16.7924L233.243 0.945488L234.207 1.8538H235.531V17.6785L249.999 2.32493V1.8538H250.443L251.299 0.945488L252.263 1.8538H252.648V2.2167L253.227 2.76211L252.648 3.37635V18.6753L269.355 0.945488L270.319 1.8538H271.644V17.6784L287.411 0.945488L288.375 1.8538H289.387V18.0107L305.467 0.945488L306.431 1.8538H307.756V17.6785L323.523 0.945488L324.487 1.8538H325.812V21.0152H323.163V5.19055L307.395 21.9236L306.431 21.0152H305.107V5.19057L289.339 21.9236L288.375 21.0152H286.738V5.52283L271.283 21.9236L270.319 21.0152H268.995V5.19053L253.227 21.9236L252.263 21.0152H249.999V6.1874L235.171 21.9236L234.207 21.0152H232.883V5.19061Z" fill="#16A75C"/>
<path fill-rule="evenodd" clip-rule="evenodd" d="M214.064 0.52935C213.66 0.52935 213.278 0.713466 213.027 1.02943L197.796 20.1815C197.612 20.4092 197.501 20.6993 197.501 21.0152V21.0154C197.501 21.0154 197.501 21.0155 197.501 21.0155V42.5719C197.501 43.3033 198.094 43.8963 198.825 43.8963C199.557 43.8963 200.15 43.3033 200.15 42.5719V22.3397H345.988C346.527 22.3397 347.013 22.0121 347.216 21.5116C347.418 21.0111 347.296 20.4379 346.908 20.0628L327.078 0.901346C326.831 0.662727 326.501 0.52935 326.157 0.52935H214.064ZM201.571 19.6908L214.702 3.17825H325.622L342.711 19.6908H201.571Z" fill="#008444"/>
<path d="M120.965 225.751L131.298 199.196C131.82 197.946 133.594 197.946 134.116 199.196L144.449 225.751H120.965Z" fill="#FFA600"/>
<path d="M140 205.5H125V210.5H140V205.5Z" fill="white"/>
<path d="M142.987 215.545H122.322V221.169H142.987V215.545Z" fill="white"/>
<path d="M146.327 225.751H119.087V228.042H146.327V225.751Z" fill="#FF9500"/>
<path d="M262.632 225.751L272.965 199.196C273.487 197.946 275.261 197.946 275.783 199.196L286.116 225.751H262.632Z" fill="#FFA600"/>
<path d="M281.928 204.923H266.928V209.923H281.928V204.923Z" fill="white"/>
<path d="M284.654 215.545H263.989V221.169H284.654V215.545Z" fill="white"/>
<path d="M287.994 225.751H260.754V228.042H287.994V225.751Z" fill="#FF9500"/>
<path d="M86.1527 184.418C87.8933 172.756 79.8295 161.895 68.1416 160.158C56.4538 158.421 45.5679 166.467 43.8273 178.129C42.0867 189.791 50.1505 200.652 61.8384 202.389C73.5262 204.126 84.4121 196.08 86.1527 184.418Z" fill="#1FB767"/>
<path fill-rule="evenodd" clip-rule="evenodd" d="M65.0227 173.114C65.3366 173.114 65.591 173.368 65.591 173.682V184.093V184.098V189.778L65.6851 189.681C66.331 189.017 67.1986 188.125 68.0858 187.214C69.8575 185.394 71.7147 183.489 72.0316 183.173C72.2538 182.951 72.6136 182.951 72.8353 183.174C73.057 183.396 73.0566 183.756 72.8344 183.977C72.5251 184.286 70.6772 186.182 68.9002 188.007C68.0131 188.918 67.1456 189.81 66.4999 190.473L65.591 191.408V227.938C65.591 228.252 65.3366 228.506 65.0227 228.506C64.7088 228.506 64.4544 228.252 64.4544 227.938V184.314L56.2509 175.208C56.0408 174.975 56.0595 174.615 56.2927 174.405C56.5259 174.195 56.8852 174.214 57.0953 174.447L64.4544 182.616V173.682C64.4544 173.368 64.7088 173.114 65.0227 173.114Z" fill="#008444"/>
<path d="M0.626221 228.459H359.556" stroke="#008444" stroke-width="1.1366" stroke-miterlimit="10" stroke-linecap="round" stroke-linejoin="round"/>
</g>
<defs>
<clipPath id="clip0_591_74659">
<rect width="363" height="229" fill="white" transform="translate(0 0.5)"/>
</clipPath>
</defs>
</svg>
