<svg width="16" height="16" viewBox="0 0 16 16" fill="none" xmlns="http://www.w3.org/2000/svg">
<g id="Group">
<path id="Vector" d="M0.833764 5.69143C1.16186 4.68449 1.69997 3.75867 2.41251 2.97518C2.47151 2.91049 2.54833 2.8647 2.6333 2.84356C2.71827 2.82243 2.80759 2.82691 2.89001 2.85643L4.59001 3.46143C4.71077 3.50424 4.83937 3.5204 4.96696 3.50879C5.09455 3.49718 5.21812 3.45808 5.32917 3.39418C5.44022 3.33029 5.53612 3.2431 5.61028 3.13862C5.68443 3.03414 5.73509 2.91485 5.75876 2.78893L6.08376 1.01893C6.09962 0.932902 6.14061 0.8535 6.20157 0.790759C6.26254 0.728018 6.34073 0.684754 6.42626 0.666433C7.46471 0.44615 8.53782 0.44615 9.57626 0.666433C9.75126 0.703933 9.88626 0.842683 9.91876 1.01893L10.2438 2.78893C10.267 2.91506 10.3175 3.03461 10.3915 3.13932C10.4656 3.24403 10.5615 3.33139 10.6727 3.39536C10.7838 3.45932 10.9076 3.49836 11.0353 3.50977C11.1631 3.52118 11.2918 3.50468 11.4125 3.46143L13.1125 2.85643C13.1949 2.82691 13.2843 2.82243 13.3692 2.84356C13.4542 2.8647 13.531 2.91049 13.59 2.97518C14.3013 3.75893 14.84 4.68393 15.1675 5.69143C15.1946 5.77469 15.1962 5.86412 15.1721 5.94829C15.1481 6.03246 15.0995 6.10754 15.0325 6.16393L13.655 7.32768C13.5569 7.41017 13.4781 7.5131 13.424 7.62927C13.3699 7.74544 13.3419 7.87204 13.3419 8.00018C13.3419 8.12833 13.3699 8.25492 13.424 8.37109C13.4781 8.48726 13.5569 8.5902 13.655 8.67268L15.0325 9.83643C15.17 9.95268 15.2225 10.1389 15.1675 10.3089C14.8398 11.3158 14.3021 12.2416 13.59 13.0252C13.531 13.0899 13.4542 13.1357 13.3692 13.1568C13.2843 13.1779 13.1949 13.1735 13.1125 13.1439L11.4125 12.5389C11.2918 12.4961 11.1632 12.48 11.0356 12.4916C10.908 12.5032 10.7844 12.5423 10.6734 12.6062C10.5623 12.6701 10.4664 12.7573 10.3923 12.8617C10.3181 12.9662 10.2674 13.0855 10.2438 13.2114L9.91876 14.9814C9.90298 15.0677 9.86185 15.1473 9.80063 15.2101C9.7394 15.2729 9.66085 15.316 9.57502 15.3339C8.53699 15.5542 7.46429 15.5542 6.42626 15.3339C6.3405 15.3158 6.26203 15.2727 6.20084 15.2099C6.13964 15.1472 6.09845 15.0676 6.08251 14.9814L5.75876 13.2114C5.73548 13.0853 5.68507 12.9658 5.61101 12.861C5.53695 12.7563 5.44101 12.669 5.32985 12.605C5.21868 12.541 5.09494 12.502 4.9672 12.4906C4.83945 12.4792 4.71075 12.4957 4.59001 12.5389L2.89001 13.1439C2.80759 13.1735 2.71827 13.1779 2.6333 13.1568C2.54833 13.1357 2.47151 13.0899 2.41251 13.0252C1.70042 12.2416 1.16274 11.3158 0.835014 10.3089C0.807962 10.2257 0.806358 10.1363 0.830406 10.0521C0.854455 9.96791 0.903063 9.89283 0.970014 9.83643L2.34751 8.67268C2.44539 8.59008 2.52406 8.4871 2.57802 8.37095C2.63198 8.25479 2.65994 8.12826 2.65994 8.00018C2.65994 7.87211 2.63198 7.74557 2.57802 7.62942C2.52406 7.51327 2.44539 7.41029 2.34751 7.32768L0.970014 6.16393C0.903063 6.10754 0.854455 6.03246 0.830406 5.94829C0.806358 5.86412 0.807962 5.77469 0.835014 5.69143H0.833764ZM5.81251 8.00018C5.81251 8.58035 6.04298 9.13674 6.45322 9.54698C6.86345 9.95722 7.41985 10.1877 8.00001 10.1877C8.58018 10.1877 9.13658 9.95722 9.54681 9.54698C9.95705 9.13674 10.1875 8.58035 10.1875 8.00018C10.1875 7.42002 9.95705 6.86362 9.54681 6.45339C9.13658 6.04315 8.58018 5.81268 8.00001 5.81268C7.41985 5.81268 6.86345 6.04315 6.45322 6.45339C6.04298 6.86362 5.81251 7.42002 5.81251 8.00018Z" fill="white"/>
</g>
</svg>
