<svg width="20" height="21" viewBox="0 0 20 21" fill="none" xmlns="http://www.w3.org/2000/svg">
<g id=".Icon_Sidemenu">
<path id="Vector" d="M12.5001 9.192H13.7501V8.15033H15.0001V6.90033H13.7501V5.85866H12.5001V9.192ZM5.00008 8.15033H11.6667V6.90033H5.00008V8.15033ZM6.25008 12.5253H7.50008V9.192H6.25008V10.2337H5.00008V11.4837H6.25008V12.5253ZM8.33341 11.4837H15.0001V10.2337H8.33341V11.4837ZM7.50008 17.5253C7.26397 17.5253 7.06619 17.4453 6.90675 17.2853C6.74675 17.1259 6.66675 16.9281 6.66675 16.692V15.8587H3.33341C2.87508 15.8587 2.48286 15.6956 2.15675 15.3695C1.83008 15.0428 1.66675 14.6503 1.66675 14.192V4.192C1.66675 3.73366 1.83008 3.34116 2.15675 3.0145C2.48286 2.68839 2.87508 2.52533 3.33341 2.52533H16.6667C17.1251 2.52533 17.5176 2.68839 17.8442 3.0145C18.1704 3.34116 18.3334 3.73366 18.3334 4.192V14.192C18.3334 14.6503 18.1704 15.0428 17.8442 15.3695C17.5176 15.6956 17.1251 15.8587 16.6667 15.8587H13.3334V16.692C13.3334 16.9281 13.2537 17.1259 13.0942 17.2853C12.9342 17.4453 12.7362 17.5253 12.5001 17.5253H7.50008Z" fill="white"/>
</g>
</svg>
