<svg width="20" height="21" viewBox="0 0 20 21" fill="none" xmlns="http://www.w3.org/2000/svg">
<g id=".Icon_Sidemenu">
<path id="Subtract" fill-rule="evenodd" clip-rule="evenodd" d="M2.83832 2.86359C1.66675 4.03516 1.66675 5.92078 1.66675 9.69202V10.3587C1.66675 14.1299 1.66675 16.0155 2.83832 17.1871C4.00989 18.3587 5.89551 18.3587 9.66675 18.3587H10.3334C14.1047 18.3587 15.9903 18.3587 17.1618 17.1871C18.3334 16.0155 18.3334 14.1299 18.3334 10.3587V9.69201C18.3334 7.0201 18.3334 5.2947 17.9167 4.09917V14.192C17.1164 14.192 16.3488 13.8741 15.7829 13.3081L15.1565 12.6817C14.7764 12.3017 14.5864 12.1116 14.393 11.9908C13.7446 11.5859 12.9222 11.5859 12.2739 11.9908C12.0804 12.1116 11.8904 12.3017 11.5104 12.6817L11.4161 12.776C11.0857 13.1064 10.9205 13.2716 10.7618 13.346C10.3694 13.5299 9.90312 13.4401 9.60707 13.1236C9.48731 12.9955 9.39529 12.7808 9.21125 12.3514L9.16675 12.2476C8.71899 11.2028 8.49511 10.6804 8.18018 10.3904C7.62253 9.87697 6.82251 9.7229 6.11405 9.99254C5.71395 10.1448 5.31208 10.5467 4.50832 11.3504L2.91675 12.942V2.7879C2.89025 2.81257 2.86411 2.8378 2.83832 2.86359Z" fill="white"/>
<path id="Rectangle 1" d="M2.66675 9.69202C2.66675 7.77813 2.66887 6.44331 2.80428 5.43618C2.93582 4.45781 3.17641 3.93971 3.54543 3.5707C3.91445 3.20168 4.43254 2.96108 5.41091 2.82955C6.41804 2.69414 7.75286 2.69202 9.66675 2.69202H10.3334C12.2473 2.69202 13.5821 2.69414 14.5893 2.82955C15.5676 2.96108 16.0857 3.20168 16.4547 3.5707C16.8238 3.93971 17.0643 4.45781 17.1959 5.43618C17.3313 6.44331 17.3334 7.77813 17.3334 9.69202V10.3587C17.3334 12.2726 17.3313 13.6074 17.1959 14.6145C17.0643 15.5929 16.8238 16.111 16.4547 16.48C16.0857 16.849 15.5676 17.0896 14.5893 17.2212C13.5821 17.3566 12.2473 17.3587 10.3334 17.3587H9.66675C7.75286 17.3587 6.41804 17.3566 5.41091 17.2212C4.43254 17.0896 3.91445 16.849 3.54543 16.48C3.17641 16.111 2.93582 15.5929 2.80428 14.6145C2.66887 13.6074 2.66675 12.2726 2.66675 10.3587V9.69202Z" stroke="white" stroke-width="2"/>
<circle id="Ellipse 46" cx="12.4999" cy="7.52531" r="1.66667" fill="white"/>
</g>
</svg>
