<svg width="20" height="20" viewBox="0 0 20 20" fill="none" xmlns="http://www.w3.org/2000/svg">
<g id=".Icon_Sidemenu">
<path id="Vector" d="M16.6667 3.3335H3.33341C2.41675 3.3335 1.67508 4.0835 1.67508 5.00016L1.66675 15.0002C1.66675 15.9168 2.41675 16.6668 3.33341 16.6668H16.6667C17.5834 16.6668 18.3334 15.9168 18.3334 15.0002V5.00016C18.3334 4.0835 17.5834 3.3335 16.6667 3.3335ZM3.33341 7.50016H12.0834V10.4168H3.33341V7.50016ZM3.33341 12.0835H12.0834V15.0002H4.16675C3.70841 15.0002 3.33341 14.6252 3.33341 14.1668V12.0835ZM15.8334 15.0002H13.7501V7.50016H16.6667V14.1668C16.6667 14.6252 16.2917 15.0002 15.8334 15.0002Z" fill="white"/>
</g>
</svg>
