<svg width="20" height="21" viewBox="0 0 20 21" fill="none" xmlns="http://www.w3.org/2000/svg">
<g id=".Icon_Sidemenu">
<path id="Vector" d="M15.8334 18.3587H4.16675C3.50371 18.3587 2.86782 18.0953 2.39898 17.6265C1.93014 17.1576 1.66675 16.5217 1.66675 15.8587V2.52535C1.66675 2.30434 1.75455 2.09237 1.91083 1.93609C2.06711 1.77981 2.27907 1.69202 2.50008 1.69202H14.1667C14.3878 1.69202 14.5997 1.77981 14.756 1.93609C14.9123 2.09237 15.0001 2.30434 15.0001 2.52535V12.5253H18.3334V15.8587C18.3334 16.5217 18.07 17.1576 17.6012 17.6265C17.1323 18.0953 16.4965 18.3587 15.8334 18.3587ZM15.0001 14.192V15.8587C15.0001 16.0797 15.0879 16.2917 15.2442 16.4479C15.4004 16.6042 15.6124 16.692 15.8334 16.692C16.0544 16.692 16.2664 16.6042 16.4227 16.4479C16.579 16.2917 16.6667 16.0797 16.6667 15.8587V14.192H15.0001ZM5.00008 5.85868V7.52535H11.6667V5.85868H5.00008ZM5.00008 9.19202V10.8587H11.6667V9.19202H5.00008ZM5.00008 12.5253V14.192H9.16675V12.5253H5.00008Z" fill="white"/>
</g>
</svg>
