<svg width="20" height="21" viewBox="0 0 20 21" fill="none" xmlns="http://www.w3.org/2000/svg">
<g id=".Icon_Sidemenu">
<path id="Subtract" fill-rule="evenodd" clip-rule="evenodd" d="M2.87868 2.90401C2 3.78269 2 5.1969 2 8.02533V12.0253C2 14.8538 2 16.268 2.87868 17.1467C3.75736 18.0253 5.17157 18.0253 8 18.0253H12C14.8284 18.0253 16.2426 18.0253 17.1213 17.1467C18 16.268 18 14.8538 18 12.0253V8.02533C18 5.1969 18 3.78269 17.1213 2.90401C16.2426 2.02533 14.8284 2.02533 12 2.02533H8C5.17157 2.02533 3.75736 2.02533 2.87868 2.90401ZM14.8321 8.18003C15.1384 7.7205 15.0142 7.09963 14.5547 6.79328C14.0952 6.48693 13.4743 6.6111 13.1679 7.07063L10.9238 10.4369L10.8651 10.3194C10.1783 8.94586 8.26393 8.82667 7.4121 10.1044L5.16795 13.4706C4.8616 13.9302 4.98577 14.551 5.4453 14.8574C5.90483 15.1637 6.5257 15.0396 6.83205 14.58L9.0762 11.2138L9.13494 11.3313C9.82171 12.7048 11.7361 12.824 12.5879 11.5463L14.8321 8.18003Z" fill="white"/>
</g>
</svg>
