<svg width="70" height="35" viewBox="0 0 70 35" fill="none" xmlns="http://www.w3.org/2000/svg">
<path d="M0.660034 12.6461C0.660034 8.51962 0.660034 4.39911 0.660034 0.254883C2.46629 0.254883 4.33255 0.254883 6.17481 0.254883C12.1757 0.272669 12.1757 9.47415 6.17481 9.47415H3.86449V12.6401C2.79033 12.6461 1.71618 12.6461 0.660034 12.6461ZM6.15681 3.08884C5.40671 3.07106 4.59659 3.08884 3.86449 3.08884C3.86449 4.09674 3.86449 5.62044 3.86449 6.62833H6.15681C7.91506 6.62833 8.01708 3.10663 6.15681 3.08884Z" fill="white"/>
<path d="M12.3197 6.46829C12.3197 -2.09881 25.1795 -2.09881 25.1795 6.46829C25.1795 15.0532 12.3197 15.0532 12.3197 6.46829ZM21.9031 6.46829C21.9031 2.00984 15.6142 2.00984 15.6142 6.46829C15.6142 10.9623 21.9031 10.9623 21.9031 6.46829Z" fill="white"/>
<path d="M38.1835 12.1836V12.6461H34.601L32.4526 8.99985H30.7844V12.6461C29.7103 12.6461 28.6181 12.6461 27.58 12.6461C27.58 8.51962 27.58 4.39911 27.58 0.254883C29.3922 0.254883 31.2525 0.254883 33.0767 0.254883C38.0034 0.272669 38.8976 6.13031 35.7291 8.25282L38.1835 12.1836ZM33.0827 3.08884C32.3326 3.07106 31.5405 3.08884 30.7904 3.08884C30.7904 4.09674 30.7904 5.15799 30.7904 6.1481H33.0827C34.817 6.1481 34.907 3.10663 33.0827 3.08884Z" fill="white"/>
<path d="M38.8855 3.08884C38.8855 2.13431 38.8855 1.19756 38.8855 0.254883H48.1988C48.1988 1.19163 48.1988 2.12838 48.1988 3.08884H45.1384V12.6461C44.0822 12.6461 43.0261 12.6461 41.9699 12.6461V3.08884H38.8855Z" fill="white"/>
<path d="M56.7261 11.0869H51.7814L51.0493 12.6462H47.9169V12.1838L53.5577 0.0949707H54.9379L60.5967 12.1838V12.6462H57.4642L56.7261 11.0869ZM54.2358 5.1048L52.8376 8.3597H55.67L54.2358 5.1048Z" fill="white"/>
<path d="M65.4514 9.7943H70C70 10.8556 70 11.5789 70 12.6461C67.4196 12.6461 64.7673 12.6461 62.2229 12.6461V0.254883C63.2971 0.254883 64.3532 0.254883 65.4454 0.254883C65.4514 6.6639 65.4514 4.52361 65.4514 9.7943Z" fill="white"/>
<path d="M10.0214 29.7625C10.0214 32.472 7.76511 34.0253 5.18474 34.0253C2.60437 34.0253 0.492065 32.4661 0.492065 29.7625V28.1499C1.47621 28.1499 2.51436 28.1499 3.5165 28.1499V29.7092C3.5165 30.6815 4.24861 31.1973 5.18474 31.1973C6.11488 31.1973 6.74497 30.6993 6.74497 29.7092V24.314H4.9147C4.9147 23.3417 4.9147 22.4227 4.9147 21.4978H10.0214V29.7625Z" fill="white"/>
<path d="M20.3609 32.3238H15.4162L14.6841 33.883H11.5516V33.4206L17.1924 21.3318H18.5726L24.2314 33.4206V33.883H21.099L20.3609 32.3238ZM17.8705 26.3416L16.4723 29.5965H19.3047L17.8705 26.3416Z" fill="white"/>
<path d="M34.1509 27.4444C35.1711 27.9602 35.6571 28.8791 35.6571 29.976C35.6391 32.134 34.3129 33.889 31.7506 33.889H25.8757V21.4978H31.2345C33.4008 21.4978 35.1411 23.1638 35.1411 25.3041C35.1351 26.0452 34.763 26.9464 34.1509 27.4444ZM28.9722 24.3258V26.3594H30.9945C32.2667 26.3594 32.2666 24.3258 30.9765 24.3258H28.9722ZM28.9722 28.9621V31.0669H31.5345C32.8247 31.0669 32.8067 28.9621 31.5165 28.9621H28.9722Z" fill="white"/>
<path d="M44.8444 32.3238H39.8997L39.1676 33.883H36.0352V33.4206L41.676 21.3318H43.0562L48.715 33.4206V33.883H45.5825L44.8444 32.3238ZM42.3541 26.3416L40.9559 29.5965H43.7883L42.3541 26.3416Z" fill="white"/>
<path d="M60.9507 33.4207V33.8831H57.3682L55.2199 30.2369H53.5516V33.8831C52.4775 33.8831 51.3853 33.8831 50.3472 33.8831C50.3472 29.7567 50.3472 25.6362 50.3472 21.4919C52.1594 21.4919 54.0197 21.4919 55.8439 21.4919C60.7707 21.5097 61.6648 27.3674 58.4963 29.4899L60.9507 33.4207ZM55.8439 24.3259C55.0938 24.3081 54.3017 24.3259 53.5516 24.3259C53.5516 25.3338 53.5516 26.3951 53.5516 27.3852H55.8439C57.5842 27.3911 57.6742 24.3437 55.8439 24.3259Z" fill="white"/>
</svg>
