<svg width="20" height="20" viewBox="0 0 20 20" fill="none" xmlns="http://www.w3.org/2000/svg">
<path d="M12.139 15.7631L17.3784 10.5237C17.4274 10.4676 17.4678 10.4045 17.4982 10.3365L17.5431 10.2767C17.5742 10.1851 17.5894 10.0889 17.588 9.99223C17.595 9.93006 17.595 9.86729 17.588 9.80511L17.588 9.70781C17.5606 9.65943 17.528 9.61424 17.4907 9.57308L17.4233 9.46081L12.1839 4.2214C12.1143 4.15125 12.0315 4.09556 11.9403 4.05756C11.8491 4.01956 11.7513 4 11.6525 4C11.5537 4 11.4558 4.01956 11.3646 4.05756C11.2734 4.09556 11.1906 4.15125 11.1211 4.2214C11.0509 4.29098 10.9952 4.37377 10.9572 4.46498C10.9192 4.55619 10.8997 4.65402 10.8997 4.75283C10.8997 4.85164 10.9192 4.94947 10.9572 5.04068C10.9952 5.13189 11.0509 5.21467 11.1211 5.28425L15.0581 9.24375L3.74846 9.24375C3.54995 9.24375 3.35957 9.3226 3.2192 9.46297C3.07883 9.60334 2.99997 9.79372 2.99997 9.99223C2.99997 10.1907 3.07883 10.3811 3.2192 10.5215C3.35957 10.6619 3.54995 10.7407 3.74846 10.7407L15.0282 10.7407L11.0462 14.7002C10.976 14.7698 10.9204 14.8526 10.8824 14.9438C10.8444 15.035 10.8248 15.1328 10.8248 15.2316C10.8248 15.3304 10.8444 15.4283 10.8824 15.5195C10.9204 15.6107 10.976 15.6935 11.0462 15.7631C11.1162 15.8378 11.2008 15.8975 11.2948 15.9382C11.3888 15.979 11.4902 16 11.5926 16C11.695 16 11.7964 15.979 11.8904 15.9382C11.9844 15.8975 12.069 15.8378 12.139 15.7631Z" fill="white"/>
</svg>
