<svg width="21" height="21" viewBox="0 0 21 21" fill="none" xmlns="http://www.w3.org/2000/svg">
<path d="M8.507 4.73694L3.2676 9.97634C3.21859 10.0324 3.17823 10.0955 3.14784 10.1635L3.10293 10.2233C3.07181 10.3149 3.05662 10.4111 3.05802 10.5078C3.05097 10.5699 3.05097 10.6327 3.05802 10.6949L3.05802 10.7922C3.08535 10.8406 3.11799 10.8858 3.15532 10.9269L3.22269 11.0392L8.46209 16.2786C8.53167 16.3488 8.61446 16.4044 8.70567 16.4424C8.79688 16.4804 8.89471 16.5 8.99352 16.5C9.09233 16.5 9.19016 16.4804 9.28137 16.4424C9.37258 16.4044 9.45536 16.3488 9.52494 16.2786C9.5951 16.209 9.65078 16.1262 9.68878 16.035C9.72678 15.9438 9.74635 15.846 9.74635 15.7472C9.74635 15.6484 9.72678 15.5505 9.68878 15.4593C9.65078 15.3681 9.5951 15.2853 9.52494 15.2157L5.5879 11.2563L16.8975 11.2563C17.096 11.2563 17.2864 11.1774 17.4268 11.037C17.5672 10.8967 17.646 10.7063 17.646 10.5078C17.646 10.3093 17.5672 10.1189 17.4268 9.97851C17.2864 9.83814 17.096 9.75928 16.8975 9.75928L5.61784 9.75928L9.59979 5.79979C9.66995 5.7302 9.72563 5.64742 9.76363 5.55621C9.80163 5.465 9.82119 5.36717 9.82119 5.26836C9.82119 5.16955 9.80163 5.07172 9.76363 4.98051C9.72563 4.8893 9.66995 4.80652 9.59979 4.73694C9.52978 4.66215 9.44516 4.60254 9.35118 4.56178C9.25719 4.52103 9.15584 4.5 9.0534 4.5C8.95096 4.5 8.8496 4.52103 8.75562 4.56178C8.66163 4.60254 8.57702 4.66215 8.507 4.73694Z" fill="#069550"/>
</svg>
