<svg width="22" height="22" viewBox="0 0 22 22" fill="none" xmlns="http://www.w3.org/2000/svg">
<path fill-rule="evenodd" clip-rule="evenodd" d="M1.28419 2.54328C2.05198 1.19569 3.32317 0.263672 5.08283 0.263672H16.9172C18.6769 0.263672 19.9481 1.19569 20.7159 2.54328C21.4483 3.82888 21.7369 5.49263 21.7369 7.18297V14.8181C21.7369 16.5084 21.4483 18.1721 20.7159 19.4577C19.9481 20.8053 18.6769 21.7374 16.9172 21.7374H5.08283C3.32317 21.7374 2.05198 20.8053 1.28419 19.4577C0.551713 18.1721 0.263184 16.5084 0.263184 14.8181V7.18297C0.263184 5.49263 0.551713 3.82888 1.28419 2.54328ZM8.37546 19.3514H13.8155V2.64964H8.37546V19.3514ZM5.9895 2.64964V19.3514H5.08283C4.31245 19.3514 3.77031 19.0015 3.35728 18.2766C2.90893 17.4897 2.64915 16.2903 2.64915 14.8181V7.18297C2.64915 5.71075 2.90893 4.51135 3.35728 3.72443C3.77031 2.9995 4.31245 2.64964 5.08283 2.64964H5.9895ZM16.2014 2.64964V19.3514H16.9172C17.6876 19.3514 18.2297 19.0015 18.6428 18.2766C19.0911 17.4897 19.3509 16.2903 19.3509 14.8181V7.18297C19.3509 5.71075 19.0911 4.51135 18.6428 3.72443C18.2297 2.9995 17.6876 2.64964 16.9172 2.64964H16.2014Z" fill="#069550"/>
</svg>
