<svg width="15" height="16" viewBox="0 0 15 16" fill="none" xmlns="http://www.w3.org/2000/svg">
<g id="Kalender">
<path id="Vector" d="M13.2 2.4L12 2.4V0.8C12 0.587827 11.9157 0.384344 11.7657 0.234315C11.6157 0.0842854 11.4122 0 11.2 0C10.9878 0 10.7843 0.0842854 10.6343 0.234315C10.4843 0.384344 10.4 0.587827 10.4 0.8V2.4L4 2.4V0.8C4 0.587827 3.91571 0.384344 3.76569 0.234315C3.61566 0.0842854 3.41217 0 3.2 0C2.98783 0 2.78434 0.0842854 2.63431 0.234315C2.48429 0.384344 2.4 0.587827 2.4 0.8L2.4 2.4L1.2 2.4C0.88174 2.4 0.576516 2.52643 0.351472 2.75147C0.126428 2.97652 0 3.28174 0 3.6L0 14.8C0 15.1183 0.126428 15.4235 0.351472 15.6485C0.576516 15.8736 0.88174 16 1.2 16L13.2 16C13.5183 16 13.8235 15.8736 14.0485 15.6485C14.2736 15.4235 14.4 15.1183 14.4 14.8L14.4 3.6C14.4 3.28174 14.2736 2.97652 14.0485 2.75147C13.8235 2.52643 13.5183 2.4 13.2 2.4ZM12.8 4L12.8 5.6L1.6 5.6L1.6 4L12.8 4ZM1.6 14.4L1.6 7.2L12.8 7.2V14.4L1.6 14.4Z" fill="#9E9E9E"/>
<path id="Vector_2" d="M8.00039 8.80078H6.40039V10.4008H8.00039V8.80078Z" fill="#9E9E9E"/>
<path id="Vector_3" d="M11.1996 8.80078H9.59961V10.4008H11.1996V8.80078Z" fill="#9E9E9E"/>
<path id="Vector_4" d="M4.8002 12H3.2002L3.2002 13.6H4.8002V12Z" fill="#9E9E9E"/>
<path id="Vector_5" d="M8.00039 12H6.40039V13.6H8.00039V12Z" fill="#9E9E9E"/>
<path id="Vector_6" d="M11.1996 12H9.59961V13.6H11.1996V12Z" fill="#9E9E9E"/>
</g>
</svg>
