<svg width="24" height="25" viewBox="0 0 24 25" fill="none" xmlns="http://www.w3.org/2000/svg">
<path d="M12 2.5L6.5 11.5H17.5L12 2.5ZM12 6.34L13.93 9.5H10.06L12 6.34ZM17.5 13.5C15.01 13.5 13 15.51 13 18C13 20.49 15.01 22.5 17.5 22.5C19.99 22.5 22 20.49 22 18C22 15.51 19.99 13.5 17.5 13.5ZM17.5 20.5C16.837 20.5 16.2011 20.2366 15.7322 19.7678C15.2634 19.2989 15 18.663 15 18C15 17.337 15.2634 16.7011 15.7322 16.2322C16.2011 15.7634 16.837 15.5 17.5 15.5C18.163 15.5 18.7989 15.7634 19.2678 16.2322C19.7366 16.7011 20 17.337 20 18C20 18.663 19.7366 19.2989 19.2678 19.7678C18.7989 20.2366 18.163 20.5 17.5 20.5ZM3 22H11V14H3V22ZM5 16H9V20H5V16Z" fill="#9E9E9E"/>
</svg>
