<svg width="20" height="21" viewBox="0 0 20 21" fill="none" xmlns="http://www.w3.org/2000/svg">
<g id="Check">
<path id="icon" fill-rule="evenodd" clip-rule="evenodd" d="M10 17.5C13.866 17.5 17 14.366 17 10.5C17 6.63401 13.866 3.5 10 3.5C6.13401 3.5 3 6.63401 3 10.5C3 14.366 6.13401 17.5 10 17.5ZM13.2437 9.36872C13.5854 9.02701 13.5854 8.47299 13.2437 8.13128C12.902 7.78957 12.348 7.78957 12.0063 8.13128L9.125 11.0126L7.99372 9.88128C7.65201 9.53957 7.09799 9.53957 6.75628 9.88128C6.41457 10.223 6.41457 10.777 6.75628 11.1187L8.50628 12.8687C8.84799 13.2104 9.40201 13.2104 9.74372 12.8687L13.2437 9.36872Z" fill="white"/>
</g>
</svg>
