<svg width="20" height="20" viewBox="0 0 20 20" fill="none" xmlns="http://www.w3.org/2000/svg">
<g id="Chevron">
<path id="Vector" d="M14.5666 9.45372L8.67509 3.22366C8.53883 3.07945 8.35693 3 8.16297 3C7.96902 3 7.78712 3.07945 7.65086 3.22366L7.21699 3.68235C6.93467 3.98124 6.93467 4.46703 7.21699 4.76547L12.1642 9.9971L7.2115 15.2345C7.07524 15.3787 7 15.571 7 15.776C7 15.9812 7.07524 16.1734 7.2115 16.3178L7.64537 16.7763C7.78174 16.9206 7.96353 17 8.15749 17C8.35144 17 8.53334 16.9206 8.6696 16.7763L14.5666 10.5406C14.7032 10.3959 14.7782 10.2028 14.7778 9.99744C14.7782 9.79131 14.7032 9.59827 14.5666 9.45372Z" fill="#069550"/>
</g>
</svg>
