<svg width="20" height="21" viewBox="0 0 20 21" fill="none" xmlns="http://www.w3.org/2000/svg">
<g id="Chevron">
<path id="Vector" d="M10.5463 13.5919L16.7763 7.70042C16.9206 7.56416 17 7.38226 17 7.1883C17 6.99435 16.9206 6.81245 16.7763 6.67619L16.3176 6.24232C16.0188 5.96 15.533 5.96 15.2345 6.24232L10.0029 11.1896L4.76547 6.23683C4.62126 6.10056 4.42901 6.02533 4.22402 6.02533C4.0188 6.02533 3.82656 6.10056 3.68224 6.23683L3.22366 6.6707C3.07945 6.80707 3 6.98886 3 7.18281C3 7.37677 3.07945 7.55867 3.22366 7.69493L9.45941 13.5919C9.60408 13.7285 9.79723 13.8035 10.0026 13.8031C10.2087 13.8035 10.4017 13.7285 10.5463 13.5919Z" fill="white"/>
</g>
</svg>
