<svg width="24" height="25" viewBox="0 0 24 25" fill="none" xmlns="http://www.w3.org/2000/svg">
<path fill-rule="evenodd" clip-rule="evenodd" d="M17.7071 17.2071C17.3166 17.5976 16.6834 17.5976 16.2929 17.2071L12.2929 13.2071C11.9024 12.8166 11.9024 12.1834 12.2929 11.7929L16.2929 7.79289C16.6834 7.40237 17.3166 7.40237 17.7071 7.79289C18.0976 8.18342 18.0976 8.81658 17.7071 9.20711L14.4142 12.5L17.7071 15.7929C18.0976 16.1834 18.0976 16.8166 17.7071 17.2071Z" fill="#393939"/>
<path fill-rule="evenodd" clip-rule="evenodd" d="M11.7071 17.2071C11.3166 17.5976 10.6834 17.5976 10.2929 17.2071L6.29289 13.2071C5.90237 12.8166 5.90237 12.1834 6.29289 11.7929L10.2929 7.79289C10.6834 7.40237 11.3166 7.40237 11.7071 7.79289C12.0976 8.18342 12.0976 8.81658 11.7071 9.20711L8.41421 12.5L11.7071 15.7929C12.0976 16.1834 12.0976 16.8166 11.7071 17.2071Z" fill="#393939"/>
</svg>
