<svg width="16" height="34" viewBox="0 0 16 34" fill="none" xmlns="http://www.w3.org/2000/svg">
<g id="Tutup" clip-path="url(#clip0_101_92534)">
<path id="Vector" d="M14.364 12.4543L9.81829 17L14.364 21.5457C14.6051 21.7868 14.7406 22.1138 14.7406 22.4548C14.7406 22.7958 14.6051 23.1228 14.364 23.364C14.1229 23.6051 13.7958 23.7405 13.4548 23.7405C13.1138 23.7405 12.7868 23.6051 12.5457 23.364L8.00002 18.8183L3.45433 23.364C3.21321 23.6051 2.88619 23.7405 2.54519 23.7405C2.2042 23.7405 1.87717 23.6051 1.63606 23.364C1.39494 23.1228 1.25948 22.7958 1.25948 22.4548C1.25948 22.1138 1.39494 21.7868 1.63606 21.5457L6.18174 17L1.63606 12.4543C1.39494 12.2132 1.25948 11.8862 1.25948 11.5452C1.25948 11.2042 1.39494 10.8772 1.63606 10.636C1.87717 10.3949 2.2042 10.2595 2.54519 10.2595C2.88619 10.2595 3.21321 10.3949 3.45433 10.636L8.00002 15.1817L12.5457 10.636C12.7868 10.3949 13.1138 10.2595 13.4548 10.2595C13.7958 10.2595 14.1229 10.3949 14.364 10.636C14.6051 10.8772 14.7406 11.2042 14.7406 11.5452C14.7406 11.8862 14.6051 12.2132 14.364 12.4543Z" fill="#424242"/>
</g>
<defs>
<clipPath id="clip0_101_92534">
<rect width="16" height="34" fill="white"/>
</clipPath>
</defs>
</svg>
