<svg width="21" height="21" viewBox="0 0 21 21" fill="none" xmlns="http://www.w3.org/2000/svg">
<path fill-rule="evenodd" clip-rule="evenodd" d="M12.399 2.29355C12.0904 2.16669 11.6991 2.16669 10.9167 2.16669C10.1342 2.16669 9.74294 2.16669 9.43433 2.29355C9.02284 2.46271 8.69591 2.78717 8.52546 3.19555C8.44766 3.38197 8.41721 3.59877 8.40529 3.91501C8.38778 4.37975 8.14763 4.80993 7.7418 5.04246C7.33598 5.27499 6.84053 5.2663 6.42624 5.04899C6.14432 4.9011 5.93991 4.81887 5.73832 4.79253C5.29674 4.73484 4.85015 4.8536 4.4968 5.12269C4.23178 5.3245 4.03616 5.66077 3.64492 6.3333C3.25368 7.00583 3.05806 7.34209 3.01446 7.67077C2.95632 8.10902 3.07598 8.55224 3.34712 8.90292C3.47088 9.06299 3.64481 9.19754 3.91475 9.36587C4.3116 9.61334 4.56693 10.0349 4.56691 10.5C4.56688 10.9651 4.31155 11.3866 3.91475 11.6341C3.64476 11.8024 3.47081 11.937 3.34704 12.0971C3.0759 12.4477 2.95624 12.891 3.01437 13.3292C3.05798 13.6579 3.2536 13.9942 3.64484 14.6667C4.03608 15.3392 4.2317 15.6755 4.49671 15.8773C4.85007 16.1464 5.29666 16.2651 5.73824 16.2074C5.93981 16.1811 6.14421 16.0989 6.42611 15.951C6.84043 15.7337 7.33592 15.725 7.74177 15.9576C8.14762 16.1901 8.38778 16.6203 8.40529 17.0851C8.41721 17.4013 8.44766 17.6181 8.52546 17.8045C8.69591 18.2129 9.02284 18.5373 9.43433 18.7065C9.74294 18.8334 10.1342 18.8334 10.9167 18.8334C11.6991 18.8334 12.0904 18.8334 12.399 18.7065C12.8105 18.5373 13.1374 18.2129 13.3079 17.8045C13.3857 17.6181 13.4161 17.4013 13.428 17.085C13.4456 16.6203 13.6857 16.1901 14.0915 15.9576C14.4973 15.725 14.9928 15.7336 15.4072 15.951C15.6891 16.0988 15.8934 16.1811 16.095 16.2074C16.5366 16.2651 16.9832 16.1463 17.3365 15.8772C17.6016 15.6754 17.7972 15.3392 18.1884 14.6666C18.5797 13.9941 18.7753 13.6578 18.8189 13.3292C18.877 12.8909 18.7573 12.4477 18.4862 12.097C18.3624 11.9369 18.1885 11.8024 17.9185 11.634C17.5217 11.3866 17.2664 10.965 17.2664 10.4999C17.2664 10.0349 17.5218 9.61342 17.9185 9.36601C18.1885 9.19764 18.3625 9.06307 18.4863 8.90298C18.7574 8.55229 18.8771 8.10908 18.819 7.67083C18.7754 7.34215 18.5797 7.00588 18.1885 6.33335C17.7973 5.66083 17.6016 5.32456 17.3366 5.12274C16.9833 4.85365 16.5367 4.7349 16.0951 4.79259C15.8935 4.81893 15.6891 4.90115 15.4072 5.04902C14.9929 5.26635 14.4974 5.27504 14.0916 5.04249C13.6857 4.80994 13.4456 4.37974 13.428 3.91497C13.4161 3.59875 13.3857 3.38196 13.3079 3.19555C13.1374 2.78717 12.8105 2.46271 12.399 2.29355ZM10.9167 13C12.3079 13 13.4357 11.8807 13.4357 10.5C13.4357 9.11931 12.3079 8.00002 10.9167 8.00002C9.52544 8.00002 8.39763 9.11931 8.39763 10.5C8.39763 11.8807 9.52544 13 10.9167 13Z" fill="white"/>
</svg>
