<svg width="16" height="16" viewBox="0 0 16 16" fill="none" xmlns="http://www.w3.org/2000/svg">
<path fill-rule="evenodd" clip-rule="evenodd" d="M2.00328 6.78125C2 7.15531 2 7.56014 2 7.99902C2 10.8275 2 12.2417 2.87868 13.1203C3.75736 13.999 5.17157 13.999 8 13.999C10.8284 13.999 12.2426 13.999 13.1213 13.1203C14 12.2417 14 10.8275 14 7.99902C14 7.56015 14 7.15532 13.9967 6.78126C13.9368 7.83205 13.0658 8.66569 12 8.66569H11.5497C11.3946 8.66569 11.317 8.66569 11.2473 8.67556C10.9215 8.72168 10.6392 8.92512 10.4924 9.21963C10.461 9.28266 10.4365 9.35624 10.3874 9.50341L10.3333 9.66569C10.2324 9.96848 10.1819 10.1199 10.0986 10.239C9.96903 10.4241 9.78063 10.5599 9.56407 10.6243C9.42467 10.6657 9.26508 10.6657 8.94591 10.6657H7.05409C6.73492 10.6657 6.57533 10.6657 6.43593 10.6243C6.21937 10.5599 6.03097 10.4241 5.90144 10.239C5.81806 10.1199 5.7676 9.96848 5.66667 9.66569L5.61257 9.50341C5.56352 9.35624 5.53899 9.28266 5.50758 9.21963C5.3608 8.92512 5.07853 8.72168 4.75272 8.67556C4.683 8.66569 4.60543 8.66569 4.4503 8.66569H4C2.93422 8.66569 2.06314 7.83204 2.00328 6.78125Z" fill="#008444"/>
<path d="M2 6C2 4.11438 2 3.17157 2.58579 2.58579C3.17157 2 4.11438 2 6 2H10C11.8856 2 12.8284 2 13.4142 2.58579C14 3.17157 14 4.11438 14 6V10C14 11.8856 14 12.8284 13.4142 13.4142C12.8284 14 11.8856 14 10 14H6C4.11438 14 3.17157 14 2.58579 13.4142C2 12.8284 2 11.8856 2 10V6Z" stroke="#008444" stroke-width="2"/>
</svg>
