<svg width="20" height="20" viewBox="0 0 20 20" fill="none" xmlns="http://www.w3.org/2000/svg">
<path d="M10.0007 11.5341C11.0316 11.5341 11.8673 10.6984 11.8673 9.66743C11.8673 8.63651 11.0316 7.80078 10.0007 7.80078C8.96976 7.80078 8.13403 8.63651 8.13403 9.66743C8.13403 10.6984 8.96976 11.5341 10.0007 11.5341Z" fill="#9E9E9E"/>
<path d="M16.85 9.15914C16.0782 7.96565 15.077 6.95182 13.9546 6.22703C12.713 5.42437 11.3422 5 9.99062 5C8.75046 5 7.53101 5.35437 6.3661 6.0532C5.17815 6.76574 4.10191 7.80669 3.16712 9.14689C3.06159 9.29835 3.00347 9.47777 3.00015 9.66234C2.99683 9.84691 3.04845 10.0283 3.14846 10.1835C3.91874 11.3889 4.91011 12.4042 6.01494 13.1191C7.25888 13.9249 8.59763 14.3333 9.99062 14.3333C11.353 14.3333 12.7267 13.9124 13.9631 13.1164C15.0848 12.394 16.0841 11.3764 16.8529 10.173C16.9495 10.0214 17.0005 9.84533 17 9.66562C16.9995 9.48592 16.9474 9.31014 16.85 9.15914ZM10.0005 12.4666C9.44675 12.4666 8.9054 12.3024 8.44495 11.9947C7.98449 11.6871 7.62561 11.2498 7.41369 10.7381C7.20176 10.2265 7.14632 9.66353 7.25435 9.12038C7.36239 8.57724 7.62906 8.07833 8.02065 7.68675C8.41223 7.29516 8.91114 7.02849 9.45428 6.92045C9.99743 6.81242 10.5604 6.86787 11.072 7.07979C11.5837 7.29171 12.021 7.65059 12.3286 8.11105C12.6363 8.5715 12.8005 9.11285 12.8005 9.66663C12.7997 10.409 12.5044 11.1207 11.9795 11.6456C11.4546 12.1705 10.7429 12.4658 10.0005 12.4666Z" fill="#9E9E9E"/>
</svg>
