<svg width="20" height="20" viewBox="0 0 20 20" fill="none" xmlns="http://www.w3.org/2000/svg">
<path d="M3.33301 3.33268C3.33301 2.89065 3.5086 2.46673 3.82116 2.15417C4.13372 1.84161 4.55765 1.66602 4.99967 1.66602H11.6663C11.8873 1.66606 12.0993 1.75389 12.2555 1.91018L16.4222 6.07685C16.5785 6.23309 16.6663 6.44502 16.6663 6.66602V16.666C16.6663 17.108 16.4907 17.532 16.1782 17.8445C15.8656 18.1571 15.4417 18.3327 14.9997 18.3327H4.99967C4.55765 18.3327 4.13372 18.1571 3.82116 17.8445C3.5086 17.532 3.33301 17.108 3.33301 16.666V3.33268ZM14.6547 6.66602L11.6663 3.67768V6.66602H14.6547ZM9.99967 3.33268H4.99967V16.666H14.9997V8.33268H10.833C10.612 8.33268 10.4 8.24488 10.2438 8.0886C10.0875 7.93232 9.99967 7.72036 9.99967 7.49935V3.33268ZM6.66634 10.8327C6.66634 10.6117 6.75414 10.3997 6.91042 10.2434C7.0667 10.0871 7.27866 9.99935 7.49967 9.99935H12.4997C12.7207 9.99935 12.9326 10.0871 13.0889 10.2434C13.2452 10.3997 13.333 10.6117 13.333 10.8327C13.333 11.0537 13.2452 11.2657 13.0889 11.4219C12.9326 11.5782 12.7207 11.666 12.4997 11.666H7.49967C7.27866 11.666 7.0667 11.5782 6.91042 11.4219C6.75414 11.2657 6.66634 11.0537 6.66634 10.8327ZM6.66634 14.166C6.66634 13.945 6.75414 13.733 6.91042 13.5768C7.0667 13.4205 7.27866 13.3327 7.49967 13.3327H12.4997C12.7207 13.3327 12.9326 13.4205 13.0889 13.5768C13.2452 13.733 13.333 13.945 13.333 14.166C13.333 14.387 13.2452 14.599 13.0889 14.7553C12.9326 14.9116 12.7207 14.9993 12.4997 14.9993H7.49967C7.27866 14.9993 7.0667 14.9116 6.91042 14.7553C6.75414 14.599 6.66634 14.387 6.66634 14.166Z" fill="white"/>
</svg>
