<svg width="20" height="20" viewBox="0 0 20 20" fill="none" xmlns="http://www.w3.org/2000/svg">
<path fill-rule="evenodd" clip-rule="evenodd" d="M7.68786 2.88867C8.11248 2.88855 8.52874 3.00388 8.88997 3.22173C9.25126 3.43961 9.54321 3.75142 9.73308 4.1222C9.73305 4.12214 9.73311 4.12226 9.73308 4.1222L10.3717 5.36874C10.4191 5.46141 10.4921 5.53953 10.5824 5.59401C10.6727 5.64848 10.7767 5.67733 10.8829 5.67734C10.8828 5.67734 10.8829 5.67734 10.8829 5.67734H15.7143C16.3205 5.67734 16.9019 5.91239 17.3305 6.33077C17.7592 6.74915 18 7.3166 18 7.90828V14.88C18 15.4716 17.7592 16.0391 17.3305 16.4575C16.9019 16.8758 16.3205 17.1109 15.7143 17.1109H4.28571C3.6795 17.1109 3.09812 16.8758 2.66947 16.4575C2.24082 16.0391 2 15.4716 2 14.88V5.11961C2 4.52793 2.24082 3.96048 2.66947 3.5421C3.09812 3.12372 3.67951 2.88867 4.28571 2.88867H7.68786C7.68791 2.88867 7.68781 2.88867 7.68786 2.88867ZM7.98889 4.64514C7.89855 4.59066 7.79445 4.56183 7.68826 4.56187L4.28571 4.56187C4.13416 4.56187 3.98882 4.62064 3.88165 4.72523C3.77449 4.82983 3.71429 4.97169 3.71429 5.11961V14.88C3.71429 15.0279 3.77449 15.1697 3.88165 15.2743C3.98882 15.3789 4.13416 15.4377 4.28571 15.4377H15.7143C15.8658 15.4377 16.0112 15.3789 16.1183 15.2743C16.2255 15.1697 16.2857 15.0279 16.2857 14.88V7.90828C16.2857 7.76036 16.2255 7.6185 16.1183 7.5139C16.0112 7.40931 15.8658 7.35055 15.7143 7.35055H10.8829C10.4583 7.35053 10.0421 7.2351 9.68097 7.0172C9.31985 6.79929 9.02804 6.48752 8.83826 6.11684L8.19978 4.87048C8.15231 4.77777 8.07922 4.69962 7.98889 4.64514Z" fill="#069550"/>
</svg>
