<svg width="20" height="21" viewBox="0 0 20 21" fill="none" xmlns="http://www.w3.org/2000/svg">
<g id=".Icon_Sidemenu">
<path id="Vector" d="M13.6337 11.692C13.7003 11.142 13.7503 10.592 13.7503 10.0254C13.7503 9.45868 13.7003 8.90868 13.6337 8.35868H16.4503C16.5837 8.89202 16.667 9.45035 16.667 10.0254C16.667 10.6004 16.5837 11.1587 16.4503 11.692M12.1587 16.3253C12.6587 15.4004 13.042 14.4004 13.3087 13.3587H15.767C14.9596 14.7489 13.6788 15.802 12.1587 16.3253ZM11.9503 11.692H8.05033C7.96699 11.142 7.91699 10.592 7.91699 10.0254C7.91699 9.45868 7.96699 8.90035 8.05033 8.35868H11.9503C12.0253 8.90035 12.0837 9.45868 12.0837 10.0254C12.0837 10.592 12.0253 11.142 11.9503 11.692ZM10.0003 16.6587C9.30866 15.6587 8.75033 14.5504 8.40866 13.3587H11.592C11.2503 14.5504 10.692 15.6587 10.0003 16.6587ZM6.66699 6.69202H4.23366C5.03271 5.29803 6.31266 4.24326 7.83366 3.72535C7.33366 4.65035 6.95866 5.65035 6.66699 6.69202ZM4.23366 13.3587H6.66699C6.95866 14.4004 7.33366 15.4004 7.83366 16.3253C6.31585 15.8017 5.0377 14.7484 4.23366 13.3587ZM3.55033 11.692C3.41699 11.1587 3.33366 10.6004 3.33366 10.0254C3.33366 9.45035 3.41699 8.89202 3.55033 8.35868H6.36699C6.30033 8.90868 6.25033 9.45868 6.25033 10.0254C6.25033 10.592 6.30033 11.142 6.36699 11.692M10.0003 3.38368C10.692 4.38368 11.2503 5.50035 11.592 6.69202H8.40866C8.75033 5.50035 9.30866 4.38368 10.0003 3.38368ZM15.767 6.69202H13.3087C13.0478 5.6599 12.6616 4.6636 12.1587 3.72535C13.692 4.25035 14.967 5.30868 15.767 6.69202ZM10.0003 1.69202C5.39199 1.69202 1.66699 5.44202 1.66699 10.0254C1.66699 12.2355 2.54497 14.3551 4.10777 15.9179C4.88159 16.6917 5.80025 17.3056 6.8113 17.7243C7.82234 18.1431 8.90598 18.3587 10.0003 18.3587C12.2105 18.3587 14.3301 17.4807 15.8929 15.9179C17.4557 14.3551 18.3337 12.2355 18.3337 10.0254C18.3337 8.931 18.1181 7.84737 17.6993 6.83632C17.2805 5.82527 16.6667 4.90662 15.8929 4.13279C15.1191 3.35897 14.2004 2.74514 13.1894 2.32635C12.1783 1.90756 11.0947 1.69202 10.0003 1.69202Z" fill="white"/>
</g>
</svg>
