<svg width="14" height="14" viewBox="0 0 14 14" fill="none" xmlns="http://www.w3.org/2000/svg">
<path d="M2.09998 2.62461C2.09998 2.48537 2.15529 2.35183 2.25374 2.25338C2.3522 2.15492 2.48574 2.09961 2.62498 2.09961H9.62498C9.76421 2.09961 9.89775 2.15492 9.99621 2.25338C10.0947 2.35183 10.15 2.48537 10.15 2.62461V3.67461C10.15 3.81385 10.0947 3.94738 9.99621 4.04584C9.89775 4.1443 9.76421 4.19961 9.62498 4.19961C9.48574 4.19961 9.3522 4.1443 9.25375 4.04584C9.15529 3.94738 9.09998 3.81385 9.09998 3.67461V3.14961H6.64998V8.54381C6.41867 9.0475 6.29926 9.59534 6.29998 10.1496C6.29998 10.7796 6.45118 11.3746 6.71998 11.8996H4.72498C4.58574 11.8996 4.4522 11.8443 4.35374 11.7458C4.25529 11.6474 4.19998 11.5138 4.19998 11.3746C4.19998 11.2354 4.25529 11.1018 4.35374 11.0034C4.4522 10.9049 4.58574 10.8496 4.72498 10.8496H5.59998V3.14961H3.14998V3.67461C3.14998 3.81385 3.09466 3.94738 2.99621 4.04584C2.89775 4.1443 2.76421 4.19961 2.62498 4.19961C2.48574 4.19961 2.3522 4.1443 2.25374 4.04584C2.15529 3.94738 2.09998 3.81385 2.09998 3.67461V2.62461ZM13.3 10.1496C13.3 10.985 12.9681 11.7863 12.3774 12.377C11.7866 12.9677 10.9854 13.2996 10.15 13.2996C9.31454 13.2996 8.51333 12.9677 7.92259 12.377C7.33185 11.7863 6.99998 10.985 6.99998 10.1496C6.99998 9.31418 7.33185 8.51296 7.92259 7.92222C8.51333 7.33148 9.31454 6.99961 10.15 6.99961C10.9854 6.99961 11.7866 7.33148 12.3774 7.92222C12.9681 8.51296 13.3 9.31418 13.3 10.1496ZM10.5 8.74961C10.5 8.65678 10.4631 8.56776 10.3975 8.50212C10.3318 8.43648 10.2428 8.39961 10.15 8.39961C10.0572 8.39961 9.96813 8.43648 9.90249 8.50212C9.83685 8.56776 9.79998 8.65678 9.79998 8.74961V9.79961H8.74998C8.65715 9.79961 8.56813 9.83648 8.50249 9.90212C8.43685 9.96776 8.39998 10.0568 8.39998 10.1496C8.39998 10.2424 8.43685 10.3315 8.50249 10.3971C8.56813 10.4627 8.65715 10.4996 8.74998 10.4996H9.79998V11.5496C9.79998 11.6424 9.83685 11.7315 9.90249 11.7971C9.96813 11.8627 10.0572 11.8996 10.15 11.8996C10.2428 11.8996 10.3318 11.8627 10.3975 11.7971C10.4631 11.7315 10.5 11.6424 10.5 11.5496V10.4996H11.55C11.6428 10.4996 11.7318 10.4627 11.7975 10.3971C11.8631 10.3315 11.9 10.2424 11.9 10.1496C11.9 10.0568 11.8631 9.96776 11.7975 9.90212C11.7318 9.83648 11.6428 9.79961 11.55 9.79961H10.5V8.74961Z" fill="white"/>
</svg>
