<svg width="20" height="20" viewBox="0 0 20 20" fill="none" xmlns="http://www.w3.org/2000/svg">
<path d="M15.4166 16.2507H4.58331L2.08331 18.7507V4.58398C2.08331 3.20898 3.20831 2.08398 4.58331 2.08398H15.4166C16.7916 2.08398 17.9166 3.20898 17.9166 4.58398V13.7507C17.9166 15.1257 16.7916 16.2507 15.4166 16.2507Z" fill="#069550"/>
<path d="M8.33335 6.875L4.16669 12.9167H12.5L8.33335 6.875Z" fill="white"/>
<path d="M14.1667 7.5C14.857 7.5 15.4167 6.94036 15.4167 6.25C15.4167 5.55964 14.857 5 14.1667 5C13.4763 5 12.9167 5.55964 12.9167 6.25C12.9167 6.94036 13.4763 7.5 14.1667 7.5Z" fill="white"/>
<path d="M12.5 8.75L9.16669 12.9167H15.8334L12.5 8.75Z" fill="white"/>
</svg>
