<svg width="20" height="20" viewBox="0 0 20 20" fill="none" xmlns="http://www.w3.org/2000/svg">
<path d="M16.7879 9.48791L14.057 6.75703C13.9898 6.68978 13.9099 6.63644 13.8221 6.60005C13.7342 6.56365 13.64 6.54492 13.545 6.54492C13.4499 6.54492 13.3557 6.56365 13.2678 6.60005C13.18 6.63644 13.1001 6.68978 13.0329 6.75703C12.8971 6.89283 12.8208 7.07702 12.8208 7.26907C12.8208 7.46112 12.8971 7.64531 13.0329 7.78111L14.5276 9.27582H6.62068C6.42863 9.27582 6.24444 9.35212 6.10864 9.48792C5.97284 9.62372 5.89655 9.80791 5.89655 9.99996C5.89655 10.192 5.97284 10.3762 6.10864 10.512C6.24444 10.6478 6.42863 10.7241 6.62068 10.7241H14.5276L13.0329 12.2188C12.8971 12.3546 12.8208 12.5388 12.8208 12.7309C12.8208 12.9229 12.8971 13.1071 13.0329 13.2429C13.1687 13.3787 13.3529 13.455 13.545 13.455C13.737 13.455 13.9212 13.3787 14.057 13.2429L16.7879 10.512C16.9237 10.3762 17 10.192 17 9.99995C17 9.80789 16.9237 9.62371 16.7879 9.48791Z"/>
<path d="M11.4483 14.1034C11.2562 14.1034 11.072 14.1797 10.9362 14.3155C10.8004 14.4513 10.7241 14.6355 10.7241 14.8276V15.5517H4.44828V4.44828H10.7241V5.17241C10.7241 5.36447 10.8004 5.54865 10.9362 5.68446C11.072 5.82026 11.2562 5.89655 11.4483 5.89655C11.6403 5.89655 11.8245 5.82026 11.9603 5.68446C12.0961 5.54865 12.1724 5.36447 12.1724 5.17241V4.2069C12.1724 4.0484 12.1412 3.89146 12.0805 3.74504C12.0199 3.59861 11.931 3.46556 11.8189 3.35349C11.7069 3.24142 11.5738 3.15252 11.4274 3.09187C11.2809 3.03122 11.124 3 10.9655 3H4.2069C3.88681 3 3.57983 3.12715 3.35349 3.35349C3.12715 3.57983 3 3.88681 3 4.2069V15.7931C3 16.1132 3.12715 16.4202 3.35349 16.6465C3.57983 16.8728 3.88681 17 4.2069 17H10.9655C11.124 17 11.2809 16.9688 11.4274 16.9081C11.5738 16.8475 11.7069 16.7586 11.8189 16.6465C11.931 16.5344 12.0199 16.4014 12.0805 16.255C12.1412 16.1085 12.1724 15.9516 12.1724 15.7931V14.8276C12.1724 14.6355 12.0961 14.4513 11.9603 14.3155C11.8245 14.1797 11.6403 14.1034 11.4483 14.1034Z"/>
</svg>
