<svg width="18" height="19" viewBox="0 0 18 19" fill="none" xmlns="http://www.w3.org/2000/svg">
<path fill-rule="evenodd" clip-rule="evenodd" d="M11.8303 13.9466C10.7094 14.7448 9.33809 15.2143 7.85714 15.2143C4.07005 15.2143 1 12.1442 1 8.35714C1 4.57005 4.07005 1.5 7.85714 1.5C11.6442 1.5 14.7143 4.57005 14.7143 8.35714C14.7143 9.83809 14.2448 11.2094 13.4466 12.3303L16.6653 15.549C17.1116 15.9953 17.1116 16.719 16.6653 17.1653C16.219 17.6116 15.4953 17.6116 15.049 17.1653L11.8303 13.9466ZM12.4286 8.35714C12.4286 10.8819 10.3819 12.9286 7.85714 12.9286C5.33241 12.9286 3.28571 10.8819 3.28571 8.35714C3.28571 5.83241 5.33241 3.78571 7.85714 3.78571C10.3819 3.78571 12.4286 5.83241 12.4286 8.35714Z" fill="#627798"/>
</svg>
