<svg width="20" height="21" viewBox="0 0 20 21" fill="none" xmlns="http://www.w3.org/2000/svg">
<path d="M17.3188 3.18202C17.2344 3.09807 17.1278 3.03994 17.0116 3.01448C16.8953 2.98901 16.7742 2.99727 16.6625 3.03827L2.9125 8.03827C2.79392 8.08325 2.69183 8.16324 2.61978 8.26762C2.54774 8.372 2.50916 8.49582 2.50916 8.62265C2.50916 8.74947 2.54774 8.8733 2.61978 8.97767C2.69183 9.08205 2.79392 9.16204 2.9125 9.20702L8.28125 11.3508L12.2438 7.37577L13.125 8.25702L9.14375 12.2383L11.2938 17.607C11.3401 17.7233 11.4202 17.823 11.5239 17.8932C11.6275 17.9634 11.7498 18.0009 11.875 18.0008C12.0013 17.9982 12.1239 17.9574 12.2265 17.8837C12.3292 17.8101 12.4071 17.7071 12.45 17.5883L17.45 3.83827C17.4926 3.72769 17.5029 3.60729 17.4796 3.4911C17.4564 3.37491 17.4006 3.26772 17.3188 3.18202Z" fill="white"/>
</svg>
