<svg width="14" height="14" viewBox="0 0 14 14" fill="none" xmlns="http://www.w3.org/2000/svg">
<path d="M7 0C10.8661 0 14 3.1339 14 7C14 10.8661 10.8661 14 7 14C3.1339 14 0 10.8661 0 7C0 3.1339 3.1339 0 7 0ZM7 3.5C6.87313 3.50001 6.75056 3.54595 6.65495 3.62934C6.55934 3.71272 6.49715 3.82791 6.4799 3.9536L6.475 4.025V6.475H4.025C3.89198 6.47504 3.76394 6.52557 3.66675 6.61638C3.56955 6.70719 3.51045 6.83151 3.50138 6.96422C3.49232 7.09692 3.53396 7.22812 3.6179 7.33131C3.70184 7.43449 3.82182 7.50197 3.9536 7.5201L4.025 7.525H6.475V9.975C6.47504 10.108 6.52557 10.2361 6.61638 10.3333C6.70719 10.4304 6.83151 10.4896 6.96422 10.4986C7.09692 10.5077 7.22812 10.466 7.33131 10.3821C7.43449 10.2982 7.50197 10.1782 7.5201 10.0464L7.525 9.975V7.525H9.975C10.108 7.52496 10.2361 7.47443 10.3333 7.38362C10.4304 7.29281 10.4896 7.16849 10.4986 7.03578C10.5077 6.90308 10.466 6.77188 10.3821 6.66869C10.2982 6.56551 10.1782 6.49803 10.0464 6.4799L9.975 6.475H7.525V4.025C7.525 3.88576 7.46969 3.75223 7.37123 3.65377C7.27277 3.55531 7.13924 3.5 7 3.5Z" fill="#1976D2"/>
</svg>
