<svg width="20" height="21" viewBox="0 0 20 21" fill="none" xmlns="http://www.w3.org/2000/svg">
<path d="M10.0001 2.10254C8.35191 2.10254 6.74074 2.59128 5.37033 3.50696C3.99992 4.42264 2.93182 5.72413 2.30109 7.24684C1.67036 8.76956 1.50533 10.4451 1.82687 12.0616C2.14842 13.6781 2.94209 15.163 4.10753 16.3284C5.27297 17.4939 6.75782 18.2875 8.37433 18.6091C9.99084 18.9306 11.6664 18.7656 13.1891 18.1349C14.7118 17.5041 16.0133 16.436 16.929 15.0656C17.8447 13.6952 18.3334 12.0841 18.3334 10.4359C18.3334 9.34152 18.1179 8.25789 17.6991 7.24684C17.2803 6.2358 16.6665 5.31714 15.8926 4.54332C15.1188 3.76949 14.2002 3.15567 13.1891 2.73688C12.1781 2.31809 11.0944 2.10254 10.0001 2.10254ZM10.0001 15.4359C9.83527 15.4359 9.67415 15.387 9.53711 15.2954C9.40007 15.2039 9.29326 15.0737 9.23019 14.9214C9.16711 14.7692 9.15061 14.6016 9.18276 14.44C9.21492 14.2783 9.29429 14.1298 9.41083 14.0133C9.52737 13.8967 9.67586 13.8174 9.83751 13.7852C9.99916 13.7531 10.1667 13.7696 10.319 13.8326C10.4713 13.8957 10.6014 14.0025 10.693 14.1396C10.7845 14.2766 10.8334 14.4377 10.8334 14.6025C10.8334 14.8236 10.7456 15.0355 10.5893 15.1918C10.4331 15.3481 10.2211 15.4359 10.0001 15.4359ZM10.8334 11.1359V12.1025C10.8334 12.3236 10.7456 12.5355 10.5893 12.6918C10.4331 12.8481 10.2211 12.9359 10.0001 12.9359C9.77907 12.9359 9.56711 12.8481 9.41083 12.6918C9.25455 12.5355 9.16675 12.3236 9.16675 12.1025V10.4359C9.16675 10.2149 9.25455 10.0029 9.41083 9.84662C9.56711 9.69034 9.77907 9.60254 10.0001 9.60254C10.2473 9.60254 10.489 9.52923 10.6945 9.39188C10.9001 9.25453 11.0603 9.0593 11.1549 8.83089C11.2495 8.60249 11.2743 8.35115 11.2261 8.10868C11.1778 7.8662 11.0588 7.64347 10.884 7.46866C10.7092 7.29384 10.4864 7.17479 10.2439 7.12656C10.0015 7.07833 9.75014 7.10308 9.52173 7.19769C9.29332 7.2923 9.0981 7.45252 8.96075 7.65808C8.8234 7.86364 8.75009 8.10531 8.75009 8.35254C8.75009 8.57355 8.66229 8.78551 8.50601 8.94179C8.34973 9.09808 8.13777 9.18587 7.91675 9.18587C7.69574 9.18587 7.48378 9.09808 7.3275 8.94179C7.17122 8.78551 7.08342 8.57355 7.08342 8.35254C7.08124 7.81112 7.2298 7.27979 7.51247 6.81802C7.79515 6.35625 8.20077 5.98227 8.68393 5.73796C9.1671 5.49365 9.70872 5.38864 10.2482 5.4347C10.7876 5.48076 11.3036 5.67606 11.7384 5.99875C12.1731 6.32143 12.5095 6.75876 12.7098 7.26176C12.9101 7.76477 12.9664 8.3136 12.8725 8.84681C12.7786 9.38002 12.5381 9.87656 12.1779 10.2808C11.8178 10.6851 11.3523 10.9812 10.8334 11.1359Z" fill="#16A75C"/>
</svg>
