<svg width="45" height="45" viewBox="0 0 45 45" fill="none" xmlns="http://www.w3.org/2000/svg">
<rect width="45" height="45" rx="22.5" fill="#069550"/>
<path d="M24.1 21.4C24.2 21.5 24.3 21.5 24.5 21.5H31.5C32.1 21.5 32.5 21.1 32.5 20.5C32.5 20.3 32.5 20.2 32.4 20.1L28.9 13.1C28.6 12.6 28 12.4 27.5 12.7C27.4 12.8 27.2 12.9 27.1 13.1L23.6 20.1C23.4 20.5 23.6 21.1 24.1 21.4ZM28 15.7L29.9 19.5H26.1L28 15.7ZM17 12.5C14.5 12.5 12.5 14.5 12.5 17C12.5 19.5 14.5 21.5 17 21.5C19.5 21.5 21.5 19.5 21.5 17C21.5 14.5 19.5 12.5 17 12.5ZM17 19.5C15.6 19.5 14.5 18.4 14.5 17C14.5 15.6 15.6 14.5 17 14.5C18.4 14.5 19.5 15.6 19.5 17C19.5 18.4 18.4 19.5 17 19.5ZM21.2 23.8C20.8 23.4 20.2 23.4 19.8 23.8L17 26.6L14.2 23.8C13.8 23.4 13.2 23.4 12.8 23.8C12.4 24.2 12.4 24.8 12.8 25.2L15.6 28L12.8 30.8C12.4 31.2 12.4 31.8 12.8 32.2C13.2 32.6 13.8 32.6 14.2 32.2L17 29.4L19.8 32.2C20.2 32.6 20.8 32.6 21.2 32.2C21.6 31.8 21.6 31.2 21.2 30.8L18.4 28L21.2 25.2C21.6 24.8 21.6 24.2 21.2 23.8ZM31.5 23.5H24.5C23.9 23.5 23.5 23.9 23.5 24.5V31.5C23.5 32.1 23.9 32.5 24.5 32.5H31.5C32.1 32.5 32.5 32.1 32.5 31.5V24.5C32.5 23.9 32.1 23.5 31.5 23.5ZM30.5 30.5H25.5V25.5H30.5V30.5Z" fill="white"/>
</svg>
