<svg width="46" height="45" viewBox="0 0 46 45" fill="none" xmlns="http://www.w3.org/2000/svg">
<rect x="0.5" width="45" height="45" rx="22.5" fill="#1976D2"/>
<path d="M28.2498 22.5003C31.1665 22.5003 33.4998 24.8337 33.4998 27.7503C33.4998 28.777 33.2082 29.7453 32.6948 30.5503L36.2882 34.167L34.6665 35.7887L31.0265 32.207C30.2215 32.7087 29.2648 33.0003 28.2498 33.0003C25.3332 33.0003 22.9998 30.667 22.9998 27.7503C22.9998 24.8337 25.3332 22.5003 28.2498 22.5003ZM28.2498 24.8337C27.4763 24.8337 26.7344 25.1409 26.1874 25.6879C25.6405 26.2349 25.3332 26.9768 25.3332 27.7503C25.3332 28.5239 25.6405 29.2657 26.1874 29.8127C26.7344 30.3597 27.4763 30.667 28.2498 30.667C29.0234 30.667 29.7653 30.3597 30.3122 29.8127C30.8592 29.2657 31.1665 28.5239 31.1665 27.7503C31.1665 26.9768 30.8592 26.2349 30.3122 25.6879C29.7653 25.1409 29.0234 24.8337 28.2498 24.8337ZM31.1665 17.8337H12.4998V29.5003H20.8648C21.0632 30.3403 21.4015 31.122 21.8332 31.8337H12.4998C11.881 31.8337 11.2875 31.5878 10.8499 31.1502C10.4123 30.7127 10.1665 30.1192 10.1665 29.5003V15.5003C10.1665 14.2053 11.2048 13.167 12.4998 13.167H19.4998L21.8332 15.5003H31.1665C31.7853 15.5003 32.3788 15.7462 32.8164 16.1837C33.254 16.6213 33.4998 17.2148 33.4998 17.8337V22.2787C32.8232 21.637 32.0415 21.112 31.1665 20.7503V17.8337Z" fill="white"/>
</svg>
