<svg width="48" height="48" viewBox="0 0 48 48" fill="none" xmlns="http://www.w3.org/2000/svg">
<circle cx="24" cy="24" r="24" fill="#FFEBEC"/>
<path d="M15.5765 16.2822C14.1665 16.2822 13 17.4487 13 18.8587C13 20.2687 14.1665 21.4268 15.5765 21.4268V33.4234C15.5765 34.8334 16.7345 35.9999 18.1445 35.9999H30.1479C31.5579 35.9999 32.716 34.8334 32.716 33.4234V21.4268C34.126 21.4268 35.2924 20.2687 35.2924 18.8587C35.2924 17.4487 34.126 16.2822 32.716 16.2822H15.5765Z" fill="#E53935"/>
<path d="M24.1462 16.2822V35.9999H30.1479C31.5579 35.9999 32.716 34.8334 32.716 33.4234V21.4268C34.126 21.4268 35.2924 20.2687 35.2924 18.8587C35.2924 17.4487 34.126 16.2822 32.716 16.2822H24.1462Z" fill="#E53935"/>
<path d="M20.7076 23.9835C20.5943 23.9846 20.4824 24.0081 20.3782 24.0527C20.2741 24.0973 20.1799 24.1621 20.1009 24.2434C20.022 24.3247 19.96 24.4208 19.9184 24.5261C19.8769 24.6315 19.8566 24.7441 19.8588 24.8573V31.7162C19.8588 31.8288 19.881 31.9404 19.9241 32.0445C19.9672 32.1486 20.0304 32.2432 20.1101 32.3228C20.1898 32.4025 20.2844 32.4657 20.3884 32.5088C20.4925 32.5519 20.6041 32.5741 20.7168 32.5741C20.8294 32.5741 20.941 32.5519 21.0451 32.5088C21.1492 32.4657 21.2438 32.4025 21.3235 32.3228C21.4031 32.2432 21.4663 32.1486 21.5094 32.0445C21.5526 31.9404 21.5748 31.8288 21.5748 31.7162V24.8573C21.577 24.7425 21.5561 24.6284 21.5134 24.5218C21.4707 24.4152 21.4071 24.3183 21.3262 24.2368C21.2453 24.1553 21.1489 24.0909 21.0426 24.0473C20.9363 24.0038 20.8224 23.9821 20.7076 23.9835ZM24.1462 23.9835H24.131C24.0183 23.9854 23.907 24.0096 23.8037 24.0546C23.7004 24.0996 23.6069 24.1646 23.5287 24.2457C23.4505 24.3269 23.389 24.4227 23.3479 24.5277C23.3067 24.6326 23.2867 24.7446 23.2889 24.8573V31.7162C23.2865 31.8303 23.3069 31.9437 23.3488 32.0498C23.3908 32.1559 23.4536 32.2526 23.5334 32.3341C23.6133 32.4157 23.7086 32.4805 23.8138 32.5247C23.919 32.5689 24.0319 32.5917 24.1461 32.5917L24.1462 23.9835Z" fill="#DDC8C9"/>
<path d="M24.1462 23.9836V32.5918C24.2604 32.5918 24.3733 32.569 24.4785 32.5248C24.5837 32.4806 24.679 32.4158 24.7589 32.3342C24.8387 32.2527 24.9014 32.156 24.9434 32.0499C24.9854 31.9438 25.0058 31.8304 25.0034 31.7163V24.8574C25.0056 24.7435 24.9851 24.6302 24.943 24.5243C24.9009 24.4184 24.8381 24.3219 24.7583 24.2405C24.6785 24.1592 24.5832 24.0945 24.4782 24.0504C24.3731 24.0063 24.2602 23.9836 24.1462 23.9836ZM27.5597 23.9836C27.4472 23.9858 27.3361 24.0101 27.233 24.0552C27.1298 24.1003 27.0366 24.1653 26.9585 24.2464C26.8805 24.3276 26.8192 24.4233 26.7782 24.5281C26.7371 24.633 26.7171 24.7449 26.7193 24.8574V31.7163C26.7168 31.8304 26.7371 31.944 26.779 32.0502C26.821 32.1564 26.8837 32.2532 26.9635 32.3348C27.0434 32.4164 27.1387 32.4813 27.244 32.5256C27.3492 32.5699 27.4623 32.5927 27.5765 32.5927C27.6907 32.5927 27.8037 32.5699 27.909 32.5256C28.0142 32.4813 28.1096 32.4164 28.1894 32.3348C28.2693 32.2532 28.332 32.1564 28.3739 32.0502C28.4159 31.944 28.4362 31.8304 28.4336 31.7163V24.8574C28.4359 24.7421 28.4148 24.6274 28.3717 24.5204C28.3286 24.4133 28.2643 24.3161 28.1827 24.2345C28.1011 24.1529 28.0039 24.0886 27.8968 24.0455C27.7898 24.0024 27.6751 23.9813 27.5597 23.9836Z" fill="#C0AEB4"/>
<path d="M21.5746 12C20.1646 12 19.0049 13.1581 19.0049 14.5681V15.4302H20.7208V14.5681C20.7208 14.0845 21.0911 13.7143 21.5746 13.7143H26.7192C27.2027 13.7143 27.5729 14.0845 27.573 14.5681V15.4302H29.2872V14.5681C29.2872 13.1581 28.1292 12 26.7192 12H21.5746Z" fill="#E53935"/>
<path d="M24.1462 12V13.7143H26.7193C27.2029 13.7143 27.5731 14.0845 27.5731 14.5681V15.4302H29.2874V14.5681C29.2874 13.1581 28.1293 12 26.7193 12H24.1462Z" fill="#E53935"/>
</svg>
