<svg width="14" height="14" viewBox="0 0 14 14" fill="none" xmlns="http://www.w3.org/2000/svg">
<path d="M12.3992 3.40066H9.39942V2.39873C9.38535 2.01465 9.21956 1.65182 8.9384 1.38978C8.65724 1.12773 8.28365 0.987864 7.89952 1.00083H6.09965C5.71553 0.987864 5.34194 1.12773 5.06078 1.38978C4.77962 1.65182 4.61383 2.01465 4.59975 2.39873V3.40066H1.59996C1.44084 3.40066 1.28824 3.46387 1.17572 3.57639C1.06321 3.6889 1 3.8415 1 4.00062C1 4.15974 1.06321 4.31234 1.17572 4.42485C1.28824 4.53737 1.44084 4.60058 1.59996 4.60058H2.19992V11.2001C2.19992 11.6775 2.38955 12.1353 2.72709 12.4728C3.06463 12.8104 3.52244 13 3.99979 13H9.99938C10.4767 13 10.9345 12.8104 11.2721 12.4728C11.6096 12.1353 11.7993 11.6775 11.7993 11.2001V4.60058H12.3992C12.5583 4.60058 12.7109 4.53737 12.8235 4.42485C12.936 4.31234 12.9992 4.15974 12.9992 4.00062C12.9992 3.8415 12.936 3.6889 12.8235 3.57639C12.7109 3.46387 12.5583 3.40066 12.3992 3.40066ZM5.79967 2.39873C5.79967 2.30274 5.92566 2.20074 6.09965 2.20074H7.89952C8.07351 2.20074 8.1995 2.30274 8.1995 2.39873V3.40066H5.79967V2.39873Z" fill="#D32F2F"/>
</svg>
