<svg width="46" height="45" viewBox="0 0 46 45" fill="none" xmlns="http://www.w3.org/2000/svg">
<rect x="0.5" width="45" height="45" rx="22.5" fill="#D62A59"/>
<path d="M30.5832 31.2503H15.4165L11.9165 34.7503V14.917C11.9165 12.992 13.4915 11.417 15.4165 11.417H30.5832C32.5082 11.417 34.0832 12.992 34.0832 14.917V27.7503C34.0832 29.6753 32.5082 31.2503 30.5832 31.2503Z" fill="#FFEBEE"/>
<path d="M20.6668 18.125L14.8335 26.5833H26.5002L20.6668 18.125Z" fill="#D32F2F"/>
<path d="M28.8335 19C29.8 19 30.5835 18.2165 30.5835 17.25C30.5835 16.2835 29.8 15.5 28.8335 15.5C27.867 15.5 27.0835 16.2835 27.0835 17.25C27.0835 18.2165 27.867 19 28.8335 19Z" fill="#D32F2F"/>
<path d="M26.5002 20.75L21.8335 26.5833H31.1668L26.5002 20.75Z" fill="#D32F2F"/>
</svg>
