<svg width="48" height="48" viewBox="0 0 48 48" fill="none" xmlns="http://www.w3.org/2000/svg">
<circle cx="24" cy="24" r="24" fill="#FFF9E1"/>
<path d="M16.4701 32.9997H31.5301C33.0701 32.9997 34.0301 31.3297 33.2601 29.9997L25.7301 16.9897C24.9601 15.6597 23.0401 15.6597 22.2701 16.9897L14.7401 29.9997C13.9701 31.3297 14.9301 32.9997 16.4701 32.9997ZM24.0001 25.9997C23.4501 25.9997 23.0001 25.5497 23.0001 24.9997V22.9997C23.0001 22.4497 23.4501 21.9997 24.0001 21.9997C24.5501 21.9997 25.0001 22.4497 25.0001 22.9997V24.9997C25.0001 25.5497 24.5501 25.9997 24.0001 25.9997ZM25.0001 29.9997H23.0001V27.9997H25.0001V29.9997Z" fill="#FFA600"/>
</svg>
