<svg width="220" height="220" viewBox="0 0 220 220" fill="none" xmlns="http://www.w3.org/2000/svg">
<path d="M56.7601 84.6946C57.3915 84.3134 58.0706 84.0175 58.7797 83.8146L59.1933 81.817L62.5681 81.7598L63.0521 83.7398C63.7679 83.9172 64.4572 84.1879 65.1025 84.545L66.8053 83.4274L69.2341 85.7726L68.1781 87.5326C68.5592 88.164 68.8551 88.8431 69.0581 89.5522L71.0557 89.9658L71.1129 93.3406L69.1329 93.8246C68.9594 94.5416 68.6885 95.2315 68.3277 95.875L69.4453 97.5778L67.1001 100.007L65.3401 98.9506C64.7102 99.3317 64.0326 99.6276 63.3249 99.8306L62.9069 101.828L59.5321 101.885L59.0481 99.9054C58.3325 99.7318 57.6441 99.4609 57.0021 99.1002L55.2949 100.218L52.8661 97.8726L53.9265 96.1126C53.5438 95.4835 53.2477 94.8057 53.0465 94.0974L51.0401 93.675L50.9829 90.3002L52.9629 89.8162C53.1404 89.1018 53.4111 88.4139 53.7681 87.7702L52.6505 86.063L54.9957 83.6342L56.7557 84.6946H56.7601ZM58.5597 89.187C58.0616 89.7019 57.7274 90.3529 57.5994 91.0578C57.4714 91.7627 57.5554 92.4897 57.8407 93.1468C58.126 93.804 58.5998 94.3617 59.2021 94.7495C59.8045 95.1373 60.5083 95.3377 61.2246 95.3254C61.9409 95.3131 62.6375 95.0886 63.2261 94.6803C63.8148 94.272 64.2691 93.6983 64.5317 93.0318C64.7942 92.3652 64.8531 91.6357 64.7009 90.9357C64.5488 90.2356 64.1924 89.5964 63.6769 89.099C62.9856 88.4323 62.0581 88.0672 61.0979 88.0837C60.1377 88.1002 59.2233 88.497 58.5553 89.187H58.5597Z" fill="#E0E0E0"/>
<path d="M27.1217 117.502H20.3809V138.56H27.1217V117.502Z" fill="#F5F5F5"/>
<path d="M37.1888 122.311H30.448V138.56H37.1888V122.311Z" fill="#F5F5F5"/>
<path d="M46.5081 128.91H39.7673V138.559H46.5081V128.91Z" fill="#F5F5F5"/>
<path d="M192.403 176.954C192.403 174.875 191.844 172.834 190.785 171.045C189.727 169.255 188.207 167.783 186.385 166.782C184.563 165.78 182.505 165.286 180.427 165.351C178.349 165.417 176.327 166.039 174.571 167.152C172.816 168.266 171.391 169.831 170.447 171.683C169.503 173.535 169.073 175.607 169.203 177.682C169.333 179.757 170.017 181.759 171.185 183.48C172.353 185.2 173.961 186.575 175.842 187.461V190.391H186.019C186.019 190.391 186.081 188.746 186.107 187.276C188.003 186.3 189.594 184.82 190.705 182.999C191.815 181.178 192.403 179.087 192.403 176.954Z" fill="#F5F5F5"/>
<path d="M185.24 192.28H176.497C176.411 192.28 176.326 192.263 176.246 192.23C176.167 192.197 176.094 192.149 176.034 192.088C175.973 192.027 175.924 191.955 175.891 191.875C175.859 191.796 175.842 191.71 175.842 191.624C175.842 191.538 175.859 191.453 175.891 191.373C175.924 191.294 175.973 191.222 176.034 191.161C176.094 191.1 176.167 191.052 176.246 191.019C176.326 190.986 176.411 190.969 176.497 190.969H185.24C185.414 190.969 185.581 191.038 185.704 191.161C185.826 191.284 185.896 191.45 185.896 191.624C185.896 191.798 185.826 191.965 185.704 192.088C185.581 192.211 185.414 192.28 185.24 192.28Z" fill="#E0E0E0"/>
<path d="M185.24 192.848H176.497C176.322 192.848 176.154 192.917 176.03 193.041C175.907 193.165 175.837 193.333 175.837 193.508C175.837 193.683 175.907 193.851 176.03 193.974C176.154 194.098 176.322 194.168 176.497 194.168H177.456L178.732 196.592C178.804 196.726 178.912 196.838 179.043 196.916C179.174 196.993 179.324 197.033 179.476 197.032H182.6C182.753 197.034 182.903 196.994 183.035 196.916C183.167 196.839 183.275 196.727 183.348 196.592L184.584 194.176H185.24C185.415 194.176 185.583 194.107 185.707 193.983C185.83 193.859 185.9 193.691 185.9 193.516C185.9 193.341 185.83 193.174 185.707 193.05C185.583 192.926 185.415 192.856 185.24 192.856V192.848Z" fill="#E0E0E0"/>
<path d="M183.185 196.781C183.185 196.781 182.957 196.701 182.587 196.596C181.618 196.315 180.586 196.345 179.635 196.679C179.442 196.763 179.245 196.836 179.045 196.899C179.209 196.762 179.397 196.657 179.599 196.587C180.076 196.389 180.584 196.281 181.1 196.266C181.616 196.249 182.13 196.328 182.618 196.499C182.823 196.557 183.015 196.652 183.185 196.781Z" fill="#FAFAFA"/>
<path d="M184.602 194.19C184.602 194.229 183.022 194.26 181.082 194.26C179.142 194.26 177.562 194.229 177.562 194.19C177.562 194.15 179.142 194.119 181.082 194.119C183.022 194.119 184.602 194.15 184.602 194.19Z" fill="#FAFAFA"/>
<path d="M184.056 195.223C183.774 195.281 183.487 195.311 183.198 195.311C182.666 195.346 181.927 195.377 181.113 195.39C180.299 195.404 179.56 195.39 179.027 195.39C178.732 195.398 178.438 195.376 178.147 195.324C178.439 195.29 178.733 195.278 179.027 195.289L181.113 195.263L183.194 195.228C183.481 195.207 183.769 195.205 184.056 195.223Z" fill="#FAFAFA"/>
<path d="M190.621 173.461C190.727 173.645 190.806 173.844 190.854 174.051C191.023 174.6 191.141 175.164 191.206 175.736C191.435 177.641 191.134 179.573 190.339 181.32C189.544 183.067 188.284 184.561 186.696 185.64C186.222 185.967 185.718 186.248 185.192 186.481C185.002 186.578 184.801 186.65 184.593 186.696C184.593 186.643 185.42 186.327 186.582 185.482C188.103 184.387 189.311 182.914 190.088 181.208C190.864 179.502 191.181 177.624 191.008 175.758C190.919 174.986 190.789 174.219 190.621 173.461Z" fill="white"/>
<path d="M183.071 167.811C182.838 167.014 181.918 166.491 180.796 166.469C178.937 166.625 177.135 167.186 175.516 168.114C174.421 168.759 173.469 169.622 172.72 170.649C171.97 171.675 171.44 172.845 171.16 174.085C171.036 174.543 171.02 175.023 171.112 175.489C171.162 175.731 171.274 175.956 171.435 176.143C171.597 176.33 171.804 176.473 172.036 176.558C172.266 176.612 172.506 176.611 172.736 176.553C172.965 176.496 173.178 176.384 173.356 176.228C173.708 175.911 173.998 175.53 174.209 175.106C174.683 174.134 175.21 173.19 175.789 172.277C176.368 171.345 177.281 170.67 178.341 170.389C179.036 170.235 179.661 170.222 180.365 170.072C181.245 169.883 181.79 169.901 182.398 169.522C182.647 169.318 182.84 169.054 182.957 168.754C183.075 168.455 183.114 168.13 183.071 167.811Z" fill="white"/>
<path d="M173.479 179.15C173.479 179.411 173.401 179.666 173.256 179.883C173.111 180.101 172.905 180.27 172.664 180.37C172.423 180.47 172.157 180.496 171.901 180.445C171.645 180.394 171.41 180.268 171.225 180.083C171.041 179.899 170.915 179.664 170.864 179.408C170.813 179.152 170.839 178.886 170.939 178.645C171.039 178.404 171.208 178.198 171.426 178.053C171.643 177.907 171.898 177.83 172.159 177.83C172.509 177.83 172.845 177.969 173.092 178.217C173.34 178.464 173.479 178.8 173.479 179.15Z" fill="white"/>
<path d="M184.391 190.427C184.391 190.427 184.36 190.273 184.32 189.987C184.281 189.701 184.219 189.217 184.153 188.667C184.008 187.488 183.81 185.842 183.568 183.827C183.462 182.797 183.291 181.697 183.203 180.47C183.19 180.137 183.308 179.813 183.533 179.568C183.654 179.434 183.821 179.348 184.001 179.328C184.18 179.308 184.361 179.354 184.51 179.458C184.782 179.677 184.96 179.992 185.007 180.338C185.045 180.686 184.999 181.039 184.875 181.367C184.607 182.046 184.085 182.592 183.418 182.89C183.071 183.048 182.692 183.124 182.31 183.112C181.929 183.099 181.555 182.999 181.218 182.819C180.524 182.451 179.997 181.83 179.744 181.086C179.609 180.707 179.561 180.302 179.604 179.902C179.631 179.693 179.706 179.492 179.824 179.317C179.888 179.225 179.973 179.148 180.071 179.094C180.17 179.039 180.279 179.007 180.391 179C180.503 179 180.613 179.023 180.715 179.068C180.818 179.112 180.909 179.178 180.985 179.26C181.133 179.405 181.251 179.579 181.333 179.77C181.481 180.141 181.555 180.537 181.548 180.936C181.568 181.327 181.506 181.717 181.368 182.083C181.229 182.448 181.017 182.782 180.743 183.061C180.475 183.334 180.135 183.527 179.762 183.617C179.39 183.707 179 183.692 178.636 183.572C177.979 183.288 177.438 182.79 177.1 182.159C176.929 181.862 176.793 181.546 176.695 181.218C176.581 180.895 176.545 180.549 176.59 180.21C176.619 180.032 176.702 179.868 176.827 179.739C176.9 179.675 176.99 179.635 177.087 179.625C177.183 179.615 177.28 179.635 177.364 179.682C177.611 179.899 177.768 180.2 177.804 180.527C178.119 181.611 178.327 182.724 178.424 183.849C178.567 185.475 178.483 187.113 178.174 188.715C178.067 189.301 177.92 189.879 177.734 190.444C177.734 190.444 177.76 190.286 177.835 190.004C177.91 189.723 178.006 189.274 178.108 188.706C178.388 187.109 178.451 185.481 178.292 183.866C178.188 182.754 177.976 181.655 177.659 180.584C177.575 180.298 177.496 179.977 177.272 179.84C177.218 179.81 177.156 179.797 177.094 179.804C177.033 179.81 176.975 179.835 176.928 179.876C176.83 179.98 176.767 180.112 176.748 180.254C176.708 180.565 176.744 180.88 176.854 181.174C176.948 181.49 177.08 181.794 177.245 182.08C177.561 182.682 178.074 183.159 178.697 183.431C179.029 183.538 179.384 183.55 179.722 183.466C180.06 183.382 180.368 183.205 180.611 182.956C180.865 182.695 181.062 182.384 181.19 182.043C181.318 181.703 181.374 181.339 181.355 180.976C181.359 180.602 181.291 180.231 181.152 179.884C181.012 179.559 180.734 179.224 180.4 179.233C180.066 179.242 179.841 179.612 179.797 179.968C179.762 180.337 179.807 180.709 179.929 181.059C180.167 181.756 180.661 182.337 181.311 182.683C181.619 182.849 181.961 182.941 182.31 182.953C182.66 182.966 183.007 182.897 183.326 182.753C184.061 182.907 184.492 182.08 184.69 181.341C184.806 181.04 184.85 180.716 184.818 180.395C184.779 180.088 184.621 179.808 184.378 179.616C184.263 179.535 184.122 179.499 183.982 179.516C183.843 179.532 183.714 179.599 183.621 179.704C183.427 179.92 183.325 180.202 183.335 180.492C183.418 181.675 183.577 182.81 183.678 183.827C183.894 185.846 184.07 187.492 184.197 188.667C184.25 189.212 184.294 189.652 184.329 189.987C184.386 190.268 184.391 190.427 184.391 190.427Z" fill="#E0E0E0"/>
<path d="M186.12 29.4522L191.255 29.9538C191.255 29.9538 191.673 25.6418 196.161 25.9938C197.028 26.0462 197.856 26.3678 198.531 26.9136C199.206 27.4594 199.694 28.2022 199.927 29.0386C200.133 29.7379 200.17 30.4758 200.036 31.1922C199.902 31.9086 199.601 32.5833 199.157 33.1614C198.145 34.5122 196.077 35.775 192.694 34.829L191.581 46.269L196.68 46.7618L197.34 39.9814C197.34 39.9814 204.6 38.833 205.383 30.9878C206.114 23.477 199.285 21.0526 195.783 20.7138C193.6 20.4982 186.903 20.3882 186.12 29.4522Z" fill="#F5F5F5"/>
<path d="M191.338 48.6481L190.87 53.4609L196.02 53.9623L196.488 49.1494L191.338 48.6481Z" fill="#F5F5F5"/>
<path d="M184.074 29.2544L189.2 29.756C189.2 29.756 189.64 25.444 194.11 25.796C194.976 25.8499 195.803 26.1721 196.477 26.7177C197.152 27.2634 197.639 28.0054 197.872 28.8408C198.082 29.5392 198.123 30.2774 197.992 30.9948C197.861 31.7122 197.562 32.3884 197.12 32.968C196.108 34.3188 194.075 35.4364 190.674 34.4904L189.548 46.0668L194.625 46.5596L195.285 39.7792C195.285 39.7792 202.572 38.6308 203.333 30.7988C204.063 23.2924 197.503 20.8944 194.621 20.6128C192.416 20.384 184.857 20.186 184.074 29.2544Z" fill="#EBEBEB"/>
<path d="M189.284 48.4469L188.815 53.2598L193.965 53.7611L194.434 48.9483L189.284 48.4469Z" fill="#EBEBEB"/>
<path d="M109.146 17.0933C109.793 16.7406 110.484 16.4757 111.201 16.3057L111.707 14.3301L115.082 14.4269L115.478 16.4245C116.183 16.6285 116.857 16.9244 117.484 17.3045L119.24 16.2793L121.559 18.7301L120.424 20.4241C120.775 21.0711 121.038 21.7622 121.207 22.4789L123.2 22.9893L123.108 26.3641L121.106 26.7601C120.903 27.465 120.607 28.1397 120.226 28.7665L121.264 30.5265L118.8 32.8409L117.106 31.7057C116.459 32.0577 115.768 32.3211 115.051 32.4889L114.545 34.4689L111.175 34.3721L110.779 32.3701C110.071 32.1709 109.395 31.8747 108.768 31.4901L107.008 32.5329L104.689 30.0821L105.824 28.3881C105.471 27.74 105.206 27.0474 105.037 26.3289L103.061 25.8273L103.154 22.4525L105.156 22.0565C105.359 21.3516 105.655 20.6769 106.036 20.0501L104.997 18.2901L107.448 15.9713L109.142 17.1065L109.146 17.0933ZM110.739 21.6649C110.219 22.1571 109.856 22.7926 109.697 23.491C109.538 24.1894 109.589 24.9193 109.845 25.5885C110.1 26.2576 110.549 26.8359 111.133 27.2501C111.718 27.6644 112.412 27.896 113.128 27.9157C113.844 27.9354 114.55 27.7423 115.156 27.3608C115.762 26.9793 116.242 26.4266 116.534 25.7725C116.826 25.1184 116.918 24.3924 116.797 23.6863C116.676 22.9802 116.349 22.3257 115.856 21.8057C115.196 21.1088 114.287 20.7025 113.327 20.6761C112.367 20.6497 111.437 21.0053 110.739 21.6649Z" fill="#E0E0E0"/>
<path d="M89.2365 14.5939C89.6849 14.323 90.1672 14.1129 90.6709 13.9691L90.9657 12.5479L93.3725 12.5039L93.7157 13.9163C94.2256 14.0422 94.7168 14.2345 95.1765 14.4883L96.3909 13.6919L98.1201 15.3639L97.3677 16.6047C97.6373 17.0537 97.8473 17.5359 97.9925 18.0391L99.4137 18.3339L99.4533 20.7363L98.0453 21.0839C97.9198 21.5932 97.726 22.0831 97.4689 22.5403L98.2653 23.7591L96.5977 25.4883L95.3569 24.7359C94.9076 25.0078 94.4236 25.218 93.9181 25.3607L93.6233 26.7819L91.2209 26.8259L90.8733 25.4135C90.3628 25.2896 89.8715 25.0972 89.4125 24.8415L88.1981 25.6379L86.4689 23.9659L87.2257 22.7251C86.9531 22.2777 86.7428 21.7951 86.6009 21.2907L85.1753 20.9915L85.1357 18.5891L86.5437 18.2415C86.6712 17.7329 86.865 17.2432 87.1201 16.7851L86.3237 15.5707L88.0001 13.8415L89.2453 14.5939H89.2365ZM90.5169 17.7971C90.1626 18.164 89.925 18.6278 89.8343 19.1298C89.7436 19.6318 89.8038 20.1494 90.0074 20.6172C90.2109 21.0849 90.5486 21.4818 90.9778 21.7575C91.4069 22.0333 91.9083 22.1755 92.4183 22.1663C92.9283 22.1571 93.4242 21.9967 93.843 21.7056C94.2619 21.4145 94.5851 21.0057 94.7715 20.5309C94.958 20.056 94.9995 19.5366 94.8906 19.0382C94.7818 18.5398 94.5276 18.085 94.1601 17.7311C93.9168 17.4959 93.6294 17.311 93.3145 17.187C92.9995 17.0631 92.6632 17.0024 92.3249 17.0085C91.9865 17.0146 91.6526 17.0875 91.3424 17.2228C91.0321 17.3581 90.7516 17.5533 90.5169 17.7971Z" fill="#F5F5F5"/>
<path d="M129.36 84.1794C129.809 83.9103 130.291 83.7003 130.794 83.5545L131.094 82.1333L133.496 82.0938L133.844 83.5017C134.353 83.6272 134.843 83.8211 135.3 84.0781L136.514 83.2817L138.244 84.9494L137.491 86.1901C137.761 86.6404 137.971 87.1242 138.116 87.629L139.537 87.9237L139.581 90.3306L138.169 90.6737C138.043 91.1836 137.851 91.6748 137.597 92.1345L138.393 93.349L136.721 95.0781L135.48 94.3258C135.031 94.5961 134.547 94.8047 134.042 94.9461L133.747 96.3717L131.344 96.4113L130.997 95.0033C130.488 94.8759 129.999 94.6821 129.54 94.4269L128.326 95.2233L126.597 93.5558L127.349 92.3149C127.077 91.8656 126.867 91.3816 126.724 90.8761L125.303 90.5813L125.259 88.1745L126.672 87.8313C126.796 87.3209 126.988 86.8295 127.244 86.3706L126.447 85.1561L128.119 83.4269L129.36 84.1794ZM130.64 87.3826C130.287 87.7497 130.05 88.2135 129.96 88.7153C129.869 89.2171 129.93 89.7344 130.134 90.2018C130.337 90.6692 130.675 91.0657 131.104 91.3412C131.533 91.6166 132.034 91.7588 132.544 91.7495C133.054 91.7403 133.549 91.5802 133.968 91.2893C134.387 90.9985 134.71 90.5901 134.897 90.1156C135.083 89.6412 135.125 89.122 135.017 88.6238C134.908 88.1256 134.655 87.6707 134.288 87.3165C134.044 87.0779 133.755 86.8901 133.437 86.7641C133.12 86.6381 132.781 86.5764 132.439 86.5825C132.098 86.5886 131.761 86.6625 131.449 86.7999C131.136 86.9372 130.854 87.1353 130.618 87.3826H130.64Z" fill="#F5F5F5"/>
<path d="M203.201 206.21C203.201 206.276 161.471 206.325 110.005 206.325C58.5377 206.325 16.7993 206.276 16.7993 206.21C16.7993 206.144 58.5201 206.096 110 206.096C161.48 206.096 203.201 206.149 203.201 206.21Z" fill="#263238"/>
<path d="M20.218 189.143L23.5796 206.144L41.0564 206.131L44.748 189.424L20.218 189.143Z" fill="#069550"/>
<path d="M18.2117 186.56V188.932C18.2122 189.123 18.2504 189.311 18.3239 189.487C18.3974 189.663 18.5048 189.823 18.6401 189.957C18.7753 190.092 18.9357 190.198 19.1121 190.271C19.2885 190.343 19.4774 190.38 19.6681 190.379H44.9681C45.1585 190.38 45.3473 190.343 45.5234 190.271C45.6995 190.198 45.8596 190.091 45.9945 189.957C46.1294 189.823 46.2364 189.663 46.3095 189.487C46.3825 189.311 46.4201 189.122 46.4201 188.932V186.56C46.4201 186.21 46.281 185.874 46.0335 185.627C45.7859 185.379 45.4502 185.24 45.1001 185.24H19.5273C19.1779 185.241 18.8433 185.381 18.5967 185.628C18.3501 185.876 18.2117 186.211 18.2117 186.56Z" fill="#069550"/>
<g opacity="0.4">
<path d="M20.4072 190.375L20.614 191.55L43.9604 193.204L44.55 190.375H20.4072Z" fill="black"/>
</g>
<path d="M42.416 198.48C42.416 198.541 37.8928 198.594 32.296 198.594C26.6992 198.594 22.176 198.541 22.176 198.48C22.176 198.418 26.6948 198.365 32.296 198.365C37.8972 198.365 42.416 198.414 42.416 198.48Z" fill="white"/>
<path d="M42.5481 199.892C42.5481 199.953 38.0293 200.006 32.4281 200.006C26.8269 200.006 22.3345 199.953 22.3345 199.892C22.3345 199.83 26.8753 199.76 32.4501 199.76C38.0249 199.76 42.5481 199.826 42.5481 199.892Z" fill="white"/>
<path d="M22.022 185.262C22.022 185.262 12.1836 173.971 13.2792 173.562C14.3748 173.153 23.1132 179.414 23.1132 179.414C23.1132 179.414 15.6024 162.694 17.1028 161.453C18.6032 160.212 26.5276 176.281 26.5276 176.281C26.5276 176.281 25.3 152.882 26.5276 152.614C27.7552 152.345 32.2476 176.013 32.2476 176.013C32.2476 176.013 38.9444 154.378 40.854 154.378C42.7636 154.378 38.808 175.194 38.808 175.194C38.808 175.194 46.728 161.862 47.96 163.631C49.192 165.4 42.3588 179.819 42.3588 179.819C42.3588 179.819 52.36 171.52 52.756 172.612C53.152 173.703 41.9672 185.262 41.9672 185.262H22.022Z" fill="#455A64"/>
<path d="M20.6492 168.256C20.7152 168.225 22.462 171.952 24.5432 176.576C26.6244 181.201 28.2656 184.976 28.1952 185.007C28.1248 185.038 26.3824 181.311 24.3012 176.686C22.22 172.062 20.5788 168.287 20.6492 168.256Z" fill="#263238"/>
<path d="M28.6001 170.336C28.6749 170.336 28.9653 173.614 29.2469 177.671C29.5285 181.728 29.6869 185.014 29.6253 185.019C29.5637 185.023 29.2601 181.745 28.9785 177.688C28.6969 173.632 28.5209 170.34 28.6001 170.336Z" fill="#263238"/>
<path d="M39.5562 159.855C39.5478 159.947 39.5286 160.037 39.499 160.124C39.4374 160.322 39.367 160.564 39.279 160.867C39.0766 161.549 38.795 162.469 38.4606 163.591C37.7654 165.892 36.8326 169.082 35.8822 172.624C34.9318 176.166 34.1486 179.391 33.5986 181.732L32.9474 184.504C32.8726 184.808 32.811 185.054 32.7626 185.257C32.7466 185.347 32.7185 185.434 32.679 185.516C32.6791 185.424 32.6894 185.333 32.7098 185.243C32.745 185.041 32.789 184.803 32.8462 184.482C32.965 183.822 33.1586 182.867 33.4138 181.693C33.9154 179.339 34.6722 176.1 35.6138 172.554C36.5554 169.007 37.5278 165.826 38.2538 163.538C38.6234 162.39 38.9358 161.47 39.1602 160.832L39.4242 160.106C39.4564 160.017 39.5009 159.933 39.5562 159.855Z" fill="#263238"/>
<path d="M44.2948 171.92C44.3564 171.96 42.4336 174.811 40.0048 178.287C37.576 181.763 35.5564 184.544 35.4948 184.5C35.4332 184.456 37.356 181.605 39.7848 178.133C42.2136 174.662 44.2332 171.876 44.2948 171.92Z" fill="#263238"/>
<path d="M25.3397 185.023C25.0194 184.861 24.7232 184.656 24.4597 184.412C23.8039 183.871 23.1782 183.296 22.5853 182.687C21.9903 182.083 21.4292 181.447 20.9045 180.782C20.6647 180.52 20.466 180.223 20.3149 179.902C20.3765 179.853 21.3973 181.085 22.7789 182.493C24.1605 183.901 25.3925 184.962 25.3397 185.023Z" fill="#263238"/>
<path d="M31.3149 180.535C31.3897 180.535 31.5437 181.574 31.6625 182.863C31.7813 184.152 31.8165 185.212 31.7417 185.217C31.6669 185.221 31.5129 184.183 31.3941 182.889C31.2753 181.596 31.2401 180.544 31.3149 180.535Z" fill="#263238"/>
<path d="M20.0462 31.4193C20.5314 28.9446 21.5253 26.5977 22.965 24.5273C24.4048 22.4568 26.2589 20.7081 28.41 19.3918C30.561 18.0755 32.962 17.2204 35.4609 16.8808C37.9597 16.5411 40.5019 16.7242 42.9262 17.4185C52.7646 20.2521 58.4142 31.0189 55.145 40.7385C54.0955 43.8726 52.2069 46.6591 49.6846 48.7949C49.5975 48.8702 49.5065 48.9407 49.4118 49.0061H49.3854C45.1455 51.9673 39.9665 53.2699 34.8302 52.6669C33.1657 52.47 31.5418 52.0158 30.0166 51.3205C26.39 49.5704 23.4449 46.6687 21.6412 43.0684C19.8375 39.4681 19.2766 35.3719 20.0462 31.4193Z" fill="white"/>
<path d="M20.0463 31.4197C20.0463 31.4197 20.0463 31.5165 20.0111 31.7101C19.9759 31.9037 19.9451 32.1941 19.8923 32.5637C19.7593 33.6613 19.7195 34.7682 19.7735 35.8725C19.893 37.6179 20.2528 39.3384 20.8427 40.9853C21.631 43.167 22.8254 45.1795 24.3627 46.9165C24.7971 47.4096 25.2614 47.8754 25.7531 48.3113C26.2573 48.7826 26.7892 49.2234 27.3459 49.6313C27.6231 49.8425 27.9311 50.0185 28.2259 50.2165L28.6659 50.5069C28.8199 50.5993 28.9827 50.6785 29.1411 50.7665L30.1179 51.2769C30.4523 51.4309 30.7999 51.5761 31.1519 51.7169C34.2039 52.7671 37.4723 53.0259 40.6515 52.4693C42.3664 52.1795 44.0392 51.68 45.6323 50.9821C46.4562 50.6262 47.2571 50.2191 48.0303 49.7633C48.4219 49.5345 48.8047 49.2881 49.1875 49.0373C49.5631 48.7753 49.915 48.4808 50.2391 48.1573C53.0531 45.5492 54.9484 42.1012 55.6423 38.3277C56.0118 36.4276 56.055 34.4784 55.7699 32.5637C55.6377 31.6283 55.4392 30.7034 55.1759 29.7961C55.0175 29.3561 54.8635 28.9161 54.7095 28.4761C54.6348 28.2561 54.5452 28.0415 54.4411 27.8337L54.1507 27.2045C53.3805 25.5638 52.3641 24.0503 51.1367 22.7165L50.6967 22.2193L50.2127 21.7793C49.8827 21.4889 49.5791 21.1721 49.2403 20.8993C48.5735 20.3588 47.8692 19.8663 47.1327 19.4253C44.3713 17.7515 41.2054 16.863 37.9763 16.8557C37.2412 16.8471 36.5063 16.8868 35.7763 16.9745C35.418 17.0056 35.0622 17.0614 34.7115 17.1417L33.6687 17.3397C32.9999 17.5421 32.3487 17.7137 31.7019 17.9425L30.7779 18.3209C30.4747 18.4314 30.1804 18.5653 29.8979 18.7213C27.8207 19.7474 25.955 21.1549 24.3979 22.8705C23.7734 23.584 23.2027 24.3429 22.6907 25.1409L22.3387 25.6821C22.2134 25.8391 22.1002 26.0053 21.9999 26.1793L21.4851 27.1957C21.4059 27.3585 21.3223 27.5125 21.2519 27.6665L21.0759 28.1065L20.7591 28.9425C20.5883 29.3715 20.45 29.8128 20.3455 30.2625C20.2443 30.6233 20.1695 30.9005 20.1167 31.0941C20.0639 31.2877 20.0331 31.3801 20.0331 31.3801C20.0331 31.3801 20.0331 31.2789 20.0947 31.0897L20.2971 30.2493C20.3963 29.7915 20.5286 29.3415 20.6931 28.9029L21.0011 28.0581C21.0583 27.9085 21.1155 27.7545 21.1727 27.5917C21.2299 27.4289 21.3267 27.2837 21.4059 27.1209L21.9119 26.0913C21.9987 25.906 22.1003 25.728 22.2155 25.5589L22.5631 25.0133C23.0715 24.2056 23.6408 23.4377 24.2659 22.7165C25.8269 20.978 27.7018 19.5494 29.7923 18.5057C30.0756 18.3487 30.3697 18.212 30.6723 18.0965L31.6007 17.7137C32.2387 17.4805 32.9207 17.3045 33.5851 17.0977L34.6367 16.8953C34.9921 16.8146 35.3521 16.7558 35.7147 16.7193C39.7156 16.2526 43.7589 17.1153 47.2207 19.1745C47.9659 19.6198 48.679 20.1167 49.3547 20.6617C49.6979 20.9301 50.0059 21.2513 50.3403 21.5417L50.8287 21.9817L51.2687 22.4833C52.5116 23.8329 53.5413 25.3641 54.3223 27.0241L54.6171 27.6621C54.7234 27.8724 54.8146 28.0901 54.8899 28.3133C55.0439 28.7533 55.2023 29.1933 55.3607 29.6333C55.629 30.5518 55.8305 31.4885 55.9635 32.4361C56.2784 34.3958 56.2501 36.3953 55.8799 38.3453C55.178 42.1682 53.2578 45.6613 50.4063 48.3025C50.0714 48.6263 49.7093 48.9207 49.3239 49.1825C48.9367 49.4377 48.5539 49.6885 48.1535 49.9129C45.8556 51.2682 43.3297 52.1926 40.6999 52.6409C37.4849 53.1944 34.182 52.925 31.0991 51.8577C30.7427 51.7257 30.3907 51.5805 30.0519 51.4177L29.0399 50.9073C28.8815 50.8193 28.7143 50.7401 28.5603 50.6477L28.1203 50.3485C27.8211 50.1505 27.5087 49.9701 27.2403 49.7589C26.682 49.3494 26.1473 48.9087 25.6387 48.4389C25.1453 47.9956 24.6795 47.5224 24.2439 47.0221C22.6994 45.2671 21.5046 43.233 20.7239 41.0293C20.1416 39.3682 19.7936 37.6341 19.6899 35.8769C19.6434 34.7687 19.6949 33.6585 19.8439 32.5593C19.9055 32.1897 19.9539 31.9081 19.9891 31.7057C20.0243 31.5033 20.0463 31.4197 20.0463 31.4197Z" fill="#263238"/>
<path d="M51.7526 52.6455C51.779 52.6455 51.7526 52.3683 51.8934 51.8975C52.0802 51.2341 52.4808 50.651 53.033 50.2387C53.437 49.9394 53.9092 49.7453 54.4069 49.6738C54.9046 49.6024 55.4123 49.6559 55.8842 49.8295C56.441 50.0312 56.9241 50.3961 57.2702 50.8767C57.6429 51.3878 57.8436 52.0041 57.8436 52.6367C57.8436 53.2693 57.6429 53.8855 57.2702 54.3967C57.0352 54.7191 56.7385 54.9917 56.3973 55.1986C56.0562 55.4056 55.6773 55.5427 55.2827 55.602C54.8882 55.6614 54.4857 55.6418 54.0988 55.5444C53.7118 55.447 53.3481 55.2737 53.0286 55.0347C52.4767 54.624 52.0761 54.0423 51.889 53.3803C51.7614 52.9095 51.7746 52.6279 51.7482 52.6323C51.7377 52.6979 51.7377 52.7647 51.7482 52.8303C51.7479 53.0229 51.77 53.2148 51.8142 53.4023C51.9731 54.1023 52.3715 54.7248 52.9406 55.1623C53.5547 55.6355 54.3192 55.8707 55.0931 55.8243C55.867 55.778 56.598 55.4534 57.1512 54.9103C57.7045 54.3672 58.0427 53.6424 58.1034 52.8695C58.164 52.0966 57.9431 51.3278 57.4814 50.7051C57.1056 50.1877 56.5805 49.7977 55.9766 49.5875C55.4707 49.4063 54.9272 49.3556 54.3966 49.4402C53.8659 49.5248 53.3651 49.7419 52.9406 50.0715C52.3715 50.509 51.9731 51.1315 51.8142 51.8315C51.77 52.0189 51.7479 52.2109 51.7482 52.4035C51.7349 52.4837 51.7364 52.5658 51.7526 52.6455Z" fill="#263238"/>
<path d="M34.1045 34.7604C34.1036 35.0874 34.0058 35.4068 33.8235 35.6783C33.6412 35.9498 33.3825 36.1611 33.0801 36.2857C32.7777 36.4102 32.4452 36.4424 32.1246 36.378C31.804 36.3137 31.5096 36.1558 31.2787 35.9242C31.0477 35.6927 30.8906 35.3979 30.8271 35.0771C30.7636 34.7563 30.7967 34.4239 30.922 34.1218C31.0474 33.8198 31.2594 33.5617 31.5314 33.3801C31.8033 33.1985 32.123 33.1016 32.45 33.1016C32.6677 33.1016 32.8832 33.1445 33.0842 33.2279C33.2852 33.3113 33.4678 33.4336 33.6214 33.5877C33.7751 33.7418 33.8969 33.9247 33.9798 34.1259C34.0627 34.3271 34.105 34.5427 34.1045 34.7604Z" fill="#263238"/>
<path d="M39.5517 34.7604C39.5517 35.0884 39.4544 35.4092 39.2722 35.6819C39.0899 35.9547 38.8308 36.1673 38.5277 36.2929C38.2246 36.4184 37.8911 36.4513 37.5693 36.3873C37.2475 36.3233 36.952 36.1653 36.72 35.9333C36.488 35.7013 36.33 35.4058 36.266 35.084C36.202 34.7622 36.2348 34.4287 36.3604 34.1256C36.4859 33.8225 36.6986 33.5634 36.9714 33.3811C37.2441 33.1989 37.5649 33.1016 37.8929 33.1016C38.1109 33.101 38.3269 33.1435 38.5284 33.2267C38.7299 33.3098 38.913 33.432 39.0672 33.5861C39.2213 33.7403 39.3435 33.9234 39.4266 34.1249C39.5098 34.3264 39.5523 34.5424 39.5517 34.7604Z" fill="#263238"/>
<path d="M44.9944 34.7604C44.9944 35.0884 44.8971 35.4092 44.7148 35.6819C44.5325 35.9547 44.2735 36.1673 43.9704 36.2929C43.6672 36.4184 43.3337 36.4513 43.0119 36.3873C42.6902 36.3233 42.3946 36.1653 42.1626 35.9333C41.9306 35.7013 41.7726 35.4058 41.7086 35.084C41.6446 34.7622 41.6775 34.4287 41.803 34.1256C41.9286 33.8225 42.1412 33.5634 42.414 33.3811C42.6868 33.1989 43.0075 33.1016 43.3356 33.1016C43.5536 33.101 43.7695 33.1435 43.971 33.2267C44.1726 33.3098 44.3557 33.432 44.5098 33.5861C44.664 33.7403 44.7861 33.9234 44.8693 34.1249C44.9524 34.3264 44.9949 34.5424 44.9944 34.7604Z" fill="#263238"/>
<path d="M202.721 133.961H161.233C158.825 133.961 156.873 135.913 156.873 138.321V150.254C156.873 152.662 158.825 154.615 161.233 154.615H202.721C205.129 154.615 207.081 152.662 207.081 150.254V138.321C207.081 135.913 205.129 133.961 202.721 133.961Z" fill="white"/>
<path d="M202.721 154.616C203.169 154.593 203.612 154.515 204.041 154.382C204.657 154.178 205.22 153.838 205.687 153.388C206.154 152.937 206.513 152.386 206.738 151.778C206.898 151.363 206.988 150.924 207.002 150.48C207.024 150.018 207.002 149.516 207.002 149.001C207.002 147.969 207.002 146.848 207.002 145.64C207.002 144.431 207.002 143.143 207.002 141.776C207.002 141.09 207.002 140.39 207.002 139.664C207.031 138.93 207 138.194 206.91 137.464C206.749 136.698 206.382 135.991 205.848 135.418C205.315 134.845 204.635 134.428 203.883 134.213C203.062 134.048 202.223 133.995 201.388 134.054H198.748H187.347H161.225C160.666 134.054 160.112 134.164 159.596 134.378C159.08 134.592 158.611 134.906 158.216 135.301C157.822 135.697 157.509 136.167 157.297 136.684C157.084 137.201 156.976 137.755 156.979 138.314C156.979 140.569 156.979 142.791 156.979 144.98V149.82C156.951 150.338 157.003 150.857 157.133 151.36C157.411 152.348 158.036 153.204 158.893 153.771C159.308 154.049 159.77 154.249 160.257 154.36C160.743 154.462 161.239 154.502 161.735 154.479L183.071 154.506L197.454 154.541L201.366 154.563H197.454L183.071 154.602L161.735 154.624C161.223 154.649 160.71 154.607 160.208 154.501C159.697 154.385 159.211 154.176 158.774 153.885C157.877 153.288 157.225 152.389 156.935 151.351C156.8 150.83 156.745 150.291 156.772 149.754C156.772 149.221 156.772 148.689 156.772 148.152V138.336C156.77 137.747 156.885 137.164 157.109 136.619C157.333 136.075 157.662 135.58 158.078 135.163C158.494 134.746 158.987 134.415 159.531 134.19C160.075 133.964 160.658 133.848 161.247 133.848H187.369H198.77H202.681C203.108 133.848 203.533 133.908 203.944 134.024C204.727 134.248 205.433 134.682 205.986 135.28C206.539 135.877 206.918 136.614 207.081 137.412C207.15 137.786 207.179 138.166 207.169 138.547V139.642C207.169 140.368 207.169 141.068 207.169 141.754C207.169 143.121 207.169 144.409 207.169 145.618C207.169 146.826 207.169 147.947 207.169 148.979C207.169 149.498 207.169 149.987 207.169 150.462C207.147 150.914 207.052 151.36 206.888 151.782C206.613 152.496 206.159 153.127 205.568 153.612C205.137 153.966 204.643 154.233 204.111 154.4C203.787 154.5 203.452 154.562 203.113 154.585C202.84 154.62 202.721 154.616 202.721 154.616Z" fill="#263238"/>
<path d="M198.392 145.639H175.402C174.992 145.639 174.599 145.476 174.31 145.187C174.02 144.897 173.857 144.504 173.857 144.095C173.858 143.686 174.022 143.294 174.311 143.005C174.601 142.717 174.993 142.555 175.402 142.555H198.392C198.8 142.555 199.193 142.717 199.482 143.005C199.772 143.294 199.935 143.686 199.936 144.095C199.936 144.504 199.773 144.897 199.484 145.187C199.194 145.476 198.801 145.639 198.392 145.639Z" fill="#E0E0E0"/>
<path d="M168.784 140.711H166.157C164.908 140.711 163.896 141.723 163.896 142.973V145.599C163.896 146.848 164.908 147.861 166.157 147.861H168.784C170.033 147.861 171.046 146.848 171.046 145.599V142.973C171.046 141.723 170.033 140.711 168.784 140.711Z" fill="#069550"/>
<path d="M165 144.389L165.722 143.672L167.112 144.904L169.431 142.576L170.1 143.298L167.006 146.294L165 144.389Z" fill="white"/>
<path d="M197.133 81.7559H147.149C145.237 81.7559 143.686 83.3062 143.686 85.2187V115.821C143.686 117.733 145.237 119.283 147.149 119.283H197.133C199.046 119.283 200.596 117.733 200.596 115.821V85.2187C200.596 83.3062 199.046 81.7559 197.133 81.7559Z" fill="white"/>
<path d="M197.12 119.288C197.159 119.285 197.199 119.285 197.239 119.288C197.355 119.283 197.471 119.271 197.586 119.253C198.045 119.195 198.486 119.041 198.88 118.799C199.522 118.411 200.021 117.824 200.301 117.127C200.666 116.305 200.512 115.244 200.539 114.096C200.539 109.463 200.539 102.766 200.503 94.4938C200.503 92.4258 200.503 90.2566 200.503 87.9994V86.2878C200.529 85.7134 200.505 85.1378 200.433 84.5674C200.314 83.9955 200.049 83.4643 199.663 83.0255C199.278 82.5867 198.785 82.2554 198.233 82.0638C197.655 81.8898 197.049 81.8256 196.447 81.8746H182.749H147.149C146.383 81.8809 145.64 82.1443 145.041 82.6226C144.449 83.1046 144.038 83.7732 143.875 84.519C143.808 84.8949 143.783 85.2771 143.801 85.6586V98.2206C143.801 104.174 143.801 109.916 143.801 115.381C143.746 116.046 143.867 116.713 144.153 117.317C144.447 117.903 144.906 118.391 145.473 118.72C146.033 119.045 146.673 119.205 147.321 119.182H156.82H170.359L189.957 119.222L195.285 119.244H196.671H197.146C197.146 119.244 196.983 119.244 196.671 119.244H195.285H189.957L170.359 119.279H156.82H149.279H147.321C146.637 119.304 145.96 119.136 145.367 118.795C144.764 118.446 144.278 117.927 143.968 117.303C143.67 116.671 143.541 115.972 143.594 115.275C143.594 109.801 143.594 104.059 143.594 98.115V85.6542C143.575 85.2565 143.601 84.8578 143.673 84.4662C143.847 83.6671 144.288 82.9513 144.924 82.4375C145.561 81.9237 146.353 81.6428 147.171 81.6414H182.771H196.469C197.092 81.5942 197.718 81.6629 198.317 81.8438C198.898 82.046 199.418 82.3955 199.824 82.8582C200.23 83.3208 200.51 83.8809 200.635 84.4838C200.709 85.0674 200.732 85.6562 200.706 86.2438V87.9994C200.706 90.2566 200.706 92.4258 200.706 94.4938C200.706 102.766 200.679 109.454 200.671 114.096C200.671 114.672 200.671 115.222 200.671 115.733C200.681 116.219 200.593 116.703 200.411 117.154C200.124 117.861 199.61 118.454 198.95 118.839C198.548 119.081 198.097 119.231 197.63 119.279C197.461 119.296 197.29 119.299 197.12 119.288Z" fill="#263238"/>
<path d="M178.481 103.549H178.477C177.619 103.549 176.924 104.244 176.924 105.102V110.686C176.924 111.543 177.619 112.239 178.477 112.239H178.481C179.339 112.239 180.035 111.543 180.035 110.686V105.102C180.035 104.244 179.339 103.549 178.481 103.549Z" fill="#069550"/>
<path d="M152.508 102.291H152.504C151.646 102.291 150.951 102.986 150.951 103.844V110.686C150.951 111.544 151.646 112.239 152.504 112.239H152.508C153.366 112.239 154.061 111.544 154.061 110.686V103.844C154.061 102.986 153.366 102.291 152.508 102.291Z" fill="#069550"/>
<path d="M159.003 100.219H158.998C158.14 100.219 157.445 100.914 157.445 101.772V110.691C157.445 111.549 158.14 112.244 158.998 112.244H159.003C159.86 112.244 160.556 111.549 160.556 110.691V101.772C160.556 100.914 159.86 100.219 159.003 100.219Z" fill="#069550"/>
<path d="M165.493 100.873H165.488C164.63 100.873 163.935 101.568 163.935 102.426V110.685C163.935 111.543 164.63 112.238 165.488 112.238H165.493C166.35 112.238 167.046 111.543 167.046 110.685V102.426C167.046 101.568 166.35 100.873 165.493 100.873Z" fill="#069550"/>
<path d="M171.987 97.0332H171.983C171.125 97.0332 170.429 97.7286 170.429 98.5864V110.686C170.429 111.544 171.125 112.24 171.983 112.24H171.987C172.845 112.24 173.54 111.544 173.54 110.686V98.5864C173.54 97.7286 172.845 97.0332 171.987 97.0332Z" fill="#069550"/>
<path d="M184.976 97.1074H184.971C184.114 97.1074 183.418 97.8028 183.418 98.6606V110.69C183.418 111.548 184.114 112.243 184.971 112.243H184.976C185.834 112.243 186.529 111.548 186.529 110.69V98.6606C186.529 97.8028 185.834 97.1074 184.976 97.1074Z" fill="#069550"/>
<path d="M191.466 102.08C191.261 102.08 191.059 102.12 190.87 102.199C190.682 102.277 190.51 102.392 190.366 102.537C190.222 102.681 190.107 102.853 190.03 103.042C189.952 103.231 189.912 103.433 189.913 103.638V110.678C189.913 111.09 190.076 111.485 190.368 111.776C190.659 112.067 191.054 112.231 191.466 112.231C191.878 112.231 192.273 112.067 192.564 111.776C192.855 111.485 193.019 111.09 193.019 110.678V103.638C193.02 103.433 192.98 103.231 192.902 103.042C192.824 102.853 192.71 102.681 192.566 102.537C192.421 102.392 192.25 102.277 192.061 102.199C191.872 102.12 191.67 102.08 191.466 102.08Z" fill="#069550"/>
<path d="M163.447 87.832H151.443C150.734 87.832 150.159 88.4073 150.159 89.1168V89.394C150.159 90.1036 150.734 90.6788 151.443 90.6788H163.447C164.156 90.6788 164.732 90.1036 164.732 89.394V89.1168C164.732 88.4073 164.156 87.832 163.447 87.832Z" fill="#E0E0E0"/>
<path d="M19.1443 73.4082H53.0859C53.7137 73.4082 54.3158 73.6576 54.7598 74.1015C55.2037 74.5455 55.4531 75.1476 55.4531 75.7754V105.937C55.4531 106.468 55.2422 106.978 54.8667 107.353C54.4913 107.728 53.9821 107.939 53.4511 107.939H18.7835C18.2525 107.939 17.7433 107.728 17.3679 107.353C16.9924 106.978 16.7815 106.468 16.7815 105.937V75.7754C16.7815 75.1483 17.0303 74.5469 17.4733 74.1031C17.9163 73.6593 18.5172 73.4094 19.1443 73.4082Z" fill="white"/>
<path d="M19.1443 73.4082H53.0859C53.7137 73.4082 54.3158 73.6576 54.7598 74.1015C55.2037 74.5455 55.4531 75.1476 55.4531 75.7754V81.2798H16.7815V75.7754C16.7815 75.1483 17.0303 74.5469 17.4733 74.1031C17.9163 73.6593 18.5172 73.4094 19.1443 73.4082Z" fill="#E0E0E0"/>
<path d="M23.113 77.7611C23.107 78.0381 23.0193 78.3073 22.8609 78.5347C22.7026 78.7622 22.4806 78.9379 22.2228 79.0397C21.9651 79.1416 21.683 79.1651 21.4119 79.1074C21.1409 79.0496 20.8929 78.9131 20.699 78.715C20.5052 78.517 20.3741 78.2661 20.3223 77.9938C20.2704 77.7216 20.3 77.4401 20.4074 77.1846C20.5148 76.9291 20.6952 76.711 20.9261 76.5576C21.1569 76.4042 21.4279 76.3223 21.705 76.3223C21.892 76.324 22.0769 76.3626 22.2489 76.4359C22.421 76.5092 22.5769 76.6157 22.7077 76.7494C22.8385 76.8831 22.9416 77.0412 23.0112 77.2148C23.0807 77.3884 23.1153 77.5741 23.113 77.7611Z" fill="white"/>
<path d="M27.4382 77.7611C27.4322 78.0381 27.3445 78.3073 27.1861 78.5347C27.0278 78.7622 26.8058 78.9379 26.548 79.0397C26.2903 79.1416 26.0082 79.1651 25.7371 79.1074C25.4661 79.0496 25.2181 78.9131 25.0242 78.715C24.8304 78.517 24.6993 78.2661 24.6474 77.9938C24.5956 77.7216 24.6252 77.4401 24.7326 77.1846C24.84 76.9291 25.0204 76.711 25.2513 76.5576C25.4821 76.4042 25.7531 76.3223 26.0302 76.3223C26.2172 76.324 26.4021 76.3626 26.5741 76.4359C26.7462 76.5092 26.9021 76.6157 27.0329 76.7494C27.1637 76.8831 27.2668 77.0412 27.3364 77.2148C27.4059 77.3884 27.4405 77.5741 27.4382 77.7611Z" fill="white"/>
<path d="M31.7634 77.7611C31.7574 78.0381 31.6697 78.3073 31.5113 78.5347C31.3529 78.7622 31.131 78.9379 30.8732 79.0397C30.6155 79.1416 30.3334 79.1651 30.0623 79.1074C29.7913 79.0496 29.5433 78.9131 29.3494 78.715C29.1556 78.517 29.0245 78.2661 28.9726 77.9938C28.9208 77.7216 28.9504 77.4401 29.0578 77.1846C29.1652 76.9291 29.3456 76.711 29.5765 76.5576C29.8073 76.4042 30.0783 76.3223 30.3554 76.3223C30.5424 76.324 30.7273 76.3626 30.8993 76.4359C31.0714 76.5092 31.2273 76.6157 31.3581 76.7494C31.4889 76.8831 31.592 77.0412 31.6616 77.2148C31.7311 77.3884 31.7657 77.5741 31.7634 77.7611Z" fill="white"/>
<path d="M45.8918 85.1035H26.3382C25.009 85.1035 23.9314 86.1811 23.9314 87.5103V101.516C23.9314 102.845 25.009 103.922 26.3382 103.922H45.8918C47.221 103.922 48.2986 102.845 48.2986 101.516V87.5103C48.2986 86.1811 47.221 85.1035 45.8918 85.1035Z" fill="#069550"/>
<path d="M33.3826 94.3264V91.4356C33.3854 91.2755 33.4295 91.1189 33.5107 90.9809C33.5919 90.8429 33.7075 90.7283 33.8461 90.6481C33.9847 90.568 34.1416 90.525 34.3017 90.5235C34.4618 90.5219 34.6196 90.5618 34.7598 90.6392L37.2634 92.0824L39.7626 93.53C39.9044 93.6107 40.0222 93.7275 40.1042 93.8686C40.1862 94.0096 40.2294 94.1699 40.2294 94.333C40.2294 94.4962 40.1862 94.6564 40.1042 94.7974C40.0222 94.9385 39.9044 95.0553 39.7626 95.136L37.2634 96.5792L34.7598 98.0224C34.6204 98.0981 34.4641 98.137 34.3055 98.1354C34.1469 98.1339 33.9914 98.0919 33.8535 98.0135C33.7157 97.9351 33.6001 97.8229 33.5177 97.6874C33.4353 97.5519 33.3888 97.3977 33.3826 97.2392V94.3264Z" fill="white"/>
<path d="M53.4511 107.94C53.4511 107.94 53.5743 107.94 53.8119 107.896C54.164 107.825 54.4907 107.661 54.7579 107.421C54.9739 107.227 55.1449 106.988 55.2589 106.722C55.3729 106.455 55.4272 106.166 55.4179 105.876C55.4179 105.181 55.4179 104.38 55.4179 103.478C55.4179 99.8615 55.3959 94.6431 55.3827 88.1927C55.3827 84.9631 55.3827 81.4299 55.3827 77.6327V76.1983C55.3983 75.9594 55.3983 75.7199 55.3827 75.4811C55.3554 75.249 55.29 75.023 55.1891 74.8123C55.0375 74.4884 54.8114 74.2051 54.5292 73.9856C54.2469 73.7661 53.9167 73.6166 53.5655 73.5495C53.3224 73.5124 53.0764 73.4976 52.8307 73.5055H46.5475H33.1583H19.7075C19.4138 73.4966 19.1198 73.5069 18.8275 73.5363C18.5377 73.5783 18.2592 73.6778 18.0083 73.829C17.7575 73.9801 17.5394 74.1797 17.3667 74.4163C17.191 74.6481 17.0638 74.913 16.9927 75.1951C16.9251 75.4832 16.8999 75.7796 16.9179 76.0751V79.6963C16.9179 82.0957 16.9179 84.4571 16.9179 86.7803C16.9179 91.4223 16.9179 95.9015 16.9179 100.169C16.9179 101.234 16.9179 102.29 16.9179 103.329V105.643C16.9029 105.888 16.9222 106.134 16.9751 106.373C17.0872 106.843 17.3755 107.251 17.7803 107.513C17.9778 107.645 18.1989 107.738 18.4315 107.786C18.6673 107.822 18.906 107.835 19.1443 107.825H21.9999H32.5599L47.8455 107.861L51.9991 107.883H47.8455L32.5599 108.023H21.9999H19.1091C18.856 108.037 18.6022 108.022 18.3523 107.979C18.0969 107.927 17.8536 107.827 17.6351 107.685C17.1955 107.389 16.8817 106.941 16.7551 106.426C16.6998 106.171 16.6791 105.909 16.6935 105.647V100.187C16.6935 95.9191 16.6935 91.4399 16.6935 86.7979V76.0927C16.6764 75.7781 16.7031 75.4627 16.7727 75.1555C16.8943 74.686 17.1508 74.2624 17.5105 73.9371C17.8702 73.6118 18.3174 73.399 18.7967 73.3251C19.1081 73.2954 19.4211 73.2851 19.7339 73.2943H52.7999C53.0575 73.2865 53.3153 73.3027 53.5699 73.3427C53.825 73.3942 54.0712 73.4831 54.3003 73.6067C54.754 73.8591 55.116 74.2488 55.3343 74.7199C55.4431 74.9505 55.5144 75.1971 55.5455 75.4503C55.5607 75.6964 55.5607 75.9433 55.5455 76.1895V77.6239C55.5455 81.4167 55.5455 84.9499 55.5455 88.1839C55.5455 94.6343 55.5191 99.8527 55.5103 103.469C55.5103 104.349 55.5103 105.172 55.5103 105.867C55.5159 106.166 55.4562 106.462 55.3354 106.735C55.2145 107.008 55.0354 107.251 54.8107 107.447C54.5353 107.688 54.1988 107.848 53.8383 107.909C53.7476 107.918 53.6562 107.918 53.5655 107.909C53.5287 107.924 53.4903 107.934 53.4511 107.94Z" fill="#263238"/>
<path d="M130.733 33.3477H174.293C174.92 33.3477 175.523 33.5971 175.967 34.041C176.41 34.4849 176.66 35.087 176.66 35.7149V65.6349C176.66 65.8978 176.608 66.1581 176.507 66.401C176.407 66.6439 176.259 66.8646 176.073 67.0505C175.888 67.2364 175.667 67.3839 175.424 67.4845C175.181 67.5851 174.921 67.6369 174.658 67.6369H130.372C130.109 67.6369 129.849 67.5851 129.606 67.4845C129.363 67.3839 129.142 67.2364 128.956 67.0505C128.77 66.8646 128.623 66.6439 128.522 66.401C128.422 66.1581 128.37 65.8978 128.37 65.6349V35.7149C128.37 35.0878 128.619 34.4864 129.062 34.0425C129.505 33.5987 130.106 33.3488 130.733 33.3477Z" fill="white"/>
<path d="M130.733 33.3477H174.293C174.921 33.3477 175.523 33.5971 175.967 34.041C176.41 34.4849 176.66 35.087 176.66 35.7149V41.1797H128.365V35.7105C128.367 35.0834 128.617 34.4824 129.06 34.0394C129.504 33.5965 130.106 33.3477 130.733 33.3477Z" fill="#E0E0E0"/>
<path d="M134.794 37.6722C134.794 37.955 134.71 38.2315 134.553 38.4667C134.396 38.7018 134.172 38.8851 133.911 38.9933C133.65 39.1016 133.362 39.1299 133.085 39.0747C132.807 39.0195 132.553 38.8833 132.353 38.6833C132.153 38.4834 132.016 38.2286 131.961 37.9512C131.906 37.6738 131.934 37.3862 132.043 37.125C132.151 36.8637 132.334 36.6403 132.569 36.4832C132.805 36.3261 133.081 36.2422 133.364 36.2422C133.743 36.2422 134.107 36.3928 134.375 36.661C134.643 36.9292 134.794 37.2929 134.794 37.6722Z" fill="white"/>
<path d="M139.181 37.6722C139.181 37.955 139.097 38.2315 138.94 38.4667C138.783 38.7018 138.559 38.8851 138.298 38.9933C138.037 39.1016 137.749 39.1299 137.472 39.0747C137.194 39.0195 136.94 38.8833 136.74 38.6834C136.54 38.4834 136.403 38.2286 136.348 37.9512C136.293 37.6738 136.321 37.3863 136.43 37.125C136.538 36.8637 136.721 36.6403 136.956 36.4832C137.192 36.3261 137.468 36.2422 137.751 36.2422C137.939 36.2416 138.125 36.2782 138.299 36.3499C138.472 36.4215 138.63 36.5268 138.763 36.6597C138.896 36.7926 139.001 36.9505 139.073 37.1243C139.145 37.298 139.181 37.4842 139.181 37.6722Z" fill="white"/>
<path d="M143.568 37.6722C143.568 37.9552 143.484 38.2319 143.326 38.4671C143.169 38.7024 142.945 38.8857 142.684 38.9938C142.422 39.1019 142.134 39.1299 141.857 39.0744C141.579 39.0189 141.325 38.8822 141.125 38.6818C140.925 38.4814 140.789 38.2261 140.734 37.9485C140.68 37.6708 140.709 37.3831 140.818 37.1219C140.927 36.8607 141.111 36.6377 141.346 36.4811C141.582 36.3245 141.859 36.2413 142.142 36.2422C142.329 36.2422 142.515 36.2792 142.688 36.3511C142.862 36.423 143.019 36.5285 143.152 36.6613C143.284 36.7941 143.389 36.9518 143.46 37.1253C143.532 37.2988 143.568 37.4846 143.568 37.6722Z" fill="white"/>
<path d="M148.381 45.5879H134.446C133.477 45.5879 132.691 46.3739 132.691 47.3435V61.2783C132.691 62.2479 133.477 63.0339 134.446 63.0339H148.381C149.351 63.0339 150.137 62.2479 150.137 61.2783V47.3435C150.137 46.3739 149.351 45.5879 148.381 45.5879Z" fill="#069550"/>
<path d="M171.6 49.1863H155.434C155.317 49.1863 155.201 49.1629 155.092 49.1173C154.984 49.0717 154.886 49.0049 154.804 48.9208C154.722 48.8368 154.658 48.7371 154.615 48.6278C154.572 48.5185 154.551 48.4017 154.554 48.2843C154.554 48.0509 154.647 47.8271 154.812 47.662C154.977 47.497 155.201 47.4043 155.434 47.4043H171.6C171.835 47.4042 172.061 47.4962 172.23 47.6607C172.399 47.8251 172.496 48.0489 172.502 48.2843C172.502 48.5235 172.407 48.7529 172.238 48.9221C172.068 49.0913 171.839 49.1863 171.6 49.1863Z" fill="#E0E0E0"/>
<path d="M171.6 53.3088H155.434C155.201 53.3088 154.977 53.2161 154.812 53.0511C154.647 52.886 154.554 52.6622 154.554 52.4288C154.554 52.1954 154.647 51.9716 154.812 51.8066C154.977 51.6415 155.201 51.5488 155.434 51.5488H171.6C171.835 51.5488 172.061 51.6408 172.23 51.8052C172.398 51.9696 172.496 52.1934 172.502 52.4288C172.496 52.6642 172.398 52.888 172.23 53.0525C172.061 53.2169 171.835 53.3089 171.6 53.3088Z" fill="#E0E0E0"/>
<path d="M171.6 57.4324H155.434C155.317 57.4324 155.201 57.409 155.092 57.3634C154.984 57.3178 154.886 57.251 154.804 57.1669C154.722 57.0829 154.658 56.9832 154.615 56.8739C154.572 56.7646 154.551 56.6478 154.554 56.5304C154.554 56.297 154.647 56.0732 154.812 55.9081C154.977 55.7431 155.201 55.6504 155.434 55.6504H171.6C171.835 55.6503 172.061 55.7423 172.23 55.9068C172.399 56.0712 172.496 56.295 172.502 56.5304C172.502 56.7696 172.407 56.999 172.238 57.1682C172.068 57.3374 171.839 57.4324 171.6 57.4324Z" fill="#E0E0E0"/>
<path d="M163.68 61.5554H155.434C155.317 61.5555 155.201 61.532 155.092 61.4864C154.984 61.4408 154.886 61.374 154.804 61.29C154.722 61.2059 154.658 61.1063 154.615 60.997C154.572 60.8876 154.551 60.7708 154.554 60.6534C154.554 60.42 154.647 60.1962 154.812 60.0312C154.977 59.8662 155.201 59.7734 155.434 59.7734H163.68C163.913 59.7734 164.137 59.8662 164.302 60.0312C164.467 60.1962 164.56 60.42 164.56 60.6534C164.563 60.7708 164.542 60.8876 164.499 60.997C164.456 61.1063 164.392 61.2059 164.31 61.29C164.228 61.374 164.13 61.4408 164.022 61.4864C163.914 61.532 163.797 61.5555 163.68 61.5554Z" fill="#E0E0E0"/>
<path d="M174.68 67.6184C174.817 67.6064 174.954 67.5873 175.089 67.5612C175.486 67.4725 175.847 67.2654 176.123 66.9672C176.324 66.7474 176.474 66.486 176.563 66.2016C176.648 65.852 176.678 65.4912 176.651 65.1324C176.651 64.3462 176.651 63.4413 176.651 62.4176C176.651 58.33 176.629 52.4208 176.616 45.1256C176.616 43.2996 176.616 41.3856 176.616 39.4056C176.616 38.4053 176.616 37.3889 176.616 36.3564C176.665 35.8465 176.605 35.332 176.44 34.8472C176.293 34.4898 176.056 34.1764 175.752 33.9375C175.448 33.6985 175.088 33.542 174.706 33.4832C174.442 33.4506 174.176 33.4403 173.91 33.4524H131.419C131.077 33.441 130.735 33.4499 130.394 33.4788C129.897 33.5519 129.438 33.7891 129.092 34.1526C128.745 34.5162 128.529 34.9852 128.48 35.4852C128.48 35.8064 128.48 36.1672 128.48 36.506V48.6192C128.48 53.8728 128.48 58.9416 128.48 63.7684C128.555 64.9388 128.185 66.3028 129.144 67.0552C129.355 67.2387 129.605 67.3725 129.875 67.4468C130.15 67.5084 130.433 67.5321 130.715 67.5172H139.075H151.021L168.313 67.5568H173.012H174.235H174.653C174.653 67.5568 174.513 67.5568 174.235 67.5568H173.012L168.313 67.5788L151.021 67.614H139.075H132.422H130.697C130.402 67.6291 130.106 67.604 129.817 67.5392C129.518 67.4546 129.242 67.3043 129.008 67.0992C128.771 66.8961 128.582 66.6433 128.455 66.3589C128.327 66.0745 128.263 65.7653 128.269 65.4536C128.269 64.8552 128.269 64.2568 128.269 63.654C128.269 58.814 128.269 53.7584 128.269 48.5048V40.6068C128.269 39.2472 128.269 37.8832 128.269 36.506C128.269 36.1584 128.269 35.8284 128.269 35.4632C128.325 34.9165 128.562 34.4042 128.941 34.0061C129.32 33.6081 129.82 33.3468 130.363 33.2632C130.715 33.2291 131.07 33.2188 131.423 33.2324H146.639H161.783H173.87C174.146 33.2202 174.423 33.232 174.697 33.2676C175.112 33.3334 175.502 33.5054 175.831 33.7667C176.159 34.0281 176.415 34.37 176.572 34.7592C176.675 35.0114 176.736 35.279 176.752 35.5512C176.752 35.824 176.752 36.0748 176.752 36.3388C176.752 37.3713 176.752 38.3877 176.752 39.388C176.752 41.3768 176.752 43.2908 176.752 45.108C176.752 52.4032 176.721 58.308 176.713 62.4C176.713 63.4208 176.713 64.3257 176.713 65.1148C176.738 65.4799 176.705 65.8467 176.616 66.2016C176.52 66.4916 176.362 66.7573 176.154 66.9804C175.868 67.2813 175.496 67.4871 175.089 67.57C174.955 67.6043 174.818 67.6205 174.68 67.6184Z" fill="#263238"/>
<g opacity="0.3">
<path d="M132.691 58.0789V61.3349C132.691 61.783 132.869 62.2128 133.186 62.5296C133.502 62.8465 133.932 63.0245 134.38 63.0245H148.416C148.873 63.0245 149.31 62.8432 149.633 62.5206C149.955 62.198 150.137 61.7604 150.137 61.3041V56.0725L146.08 52.2929C145.97 52.191 145.841 52.1123 145.7 52.0612C145.559 52.0102 145.409 51.9879 145.259 51.9957C145.11 52.0035 144.963 52.0412 144.828 52.1066C144.693 52.172 144.573 52.2638 144.474 52.3765L141.293 56.0241L138.16 54.5589C137.88 54.4272 137.569 54.3804 137.263 54.4242C136.957 54.468 136.671 54.6005 136.439 54.8053L132.691 58.0789Z" fill="black"/>
</g>
<g opacity="0.3">
<path d="M140.584 51.7871C141.454 51.7871 142.159 51.0819 142.159 50.2119C142.159 49.342 141.454 48.6367 140.584 48.6367C139.714 48.6367 139.009 49.342 139.009 50.2119C139.009 51.0819 139.714 51.7871 140.584 51.7871Z" fill="black"/>
</g>
<path d="M73.7791 89.957C74.9539 88.945 76.6215 88.6634 77.8183 87.6778C79.0151 86.6922 79.5783 85.1038 79.6663 83.555C79.6728 82.0031 79.4459 80.459 78.9931 78.9746L91.7927 95.039C90.7763 96.799 89.6807 98.5942 88.0879 99.879C86.4951 101.164 84.2863 101.846 82.3679 101.151C80.4495 100.455 79.1471 98.0706 80.0315 96.2446C78.3111 97.8418 75.3235 97.8726 73.6471 96.2446C71.9707 94.6166 71.9971 91.4882 73.7791 89.957Z" fill="#263238"/>
<path d="M110.765 43.0234C113.867 45.2938 114.382 47.551 114.505 48.7434C114.541 49.0998 114.479 49.5486 114.14 49.6586C113.971 49.6968 113.794 49.6814 113.634 49.6146L103.25 46.4598" fill="#263238"/>
<path d="M82.0731 83.5289C79.7411 79.3401 77.4135 75.1117 75.8339 70.5841C74.2543 66.0565 73.4403 61.1725 74.2103 56.4381C74.3247 55.7165 75.5611 50.8149 76.2871 50.7445C76.8019 50.6961 76.3223 55.1445 76.6655 55.5273C79.9435 59.2497 81.6023 64.1777 82.1655 69.1057C82.6737 73.9018 82.6427 78.7398 82.0731 83.5289Z" fill="#263238"/>
<path d="M87.0056 108.988L78.0736 65.6656C75.3676 53.944 79.9348 42.5964 91.7136 40.216L92.818 40.062C98.1686 39.3009 103.61 40.5829 108.057 43.6528C112.505 46.7227 115.634 51.3553 116.82 56.628C119.108 66.8008 121.51 78.0692 122.223 83.6C123.702 95.04 112.543 98.4456 112.543 98.4456C112.543 98.4456 114.633 110 115.254 113.331L97.9836 115.531L93.8256 115.905L87.0056 108.988Z" fill="#FFBF9D"/>
<path d="M112.539 98.4462C112.539 98.4462 105.393 99.8938 97.0332 96.1582C97.0332 96.1582 101.829 104.245 113.089 101.597L112.539 98.4462Z" fill="#FF9A6C"/>
<path d="M114.73 67.7592C114.796 68.1812 114.695 68.6123 114.448 68.9613C114.202 69.3102 113.83 69.5497 113.41 69.6292C113.205 69.6755 112.992 69.6802 112.785 69.643C112.578 69.6058 112.38 69.5274 112.204 69.4126C112.027 69.2977 111.876 69.1487 111.758 68.9743C111.64 68.7999 111.559 68.6037 111.518 68.3972C111.453 67.9747 111.554 67.5437 111.801 67.1943C112.047 66.8449 112.418 66.6042 112.838 66.5228C113.043 66.4765 113.256 66.472 113.464 66.5095C113.671 66.547 113.869 66.6257 114.045 66.741C114.222 66.8563 114.373 67.0058 114.491 67.1807C114.608 67.3556 114.69 67.5523 114.73 67.7592Z" fill="#263238"/>
<path d="M115.117 62.0392C114.945 62.2812 113.581 61.542 111.826 61.7972C110.07 62.0524 108.909 63.1172 108.684 62.9236C108.579 62.84 108.728 62.4264 109.234 61.938C109.92 61.3041 110.786 60.8983 111.711 60.7764C112.616 60.6409 113.54 60.7949 114.351 61.2164C114.967 61.5508 115.205 61.9072 115.117 62.0392Z" fill="#263238"/>
<path d="M99.5938 69.9061C99.6584 70.328 99.5569 70.7585 99.3108 71.1072C99.0647 71.4559 98.693 71.6957 98.2738 71.7761C98.0682 71.8217 97.8556 71.8258 97.6484 71.7881C97.4413 71.7503 97.2437 71.6715 97.0675 71.5563C96.8912 71.4411 96.7397 71.2919 96.622 71.1173C96.5042 70.9427 96.4226 70.7463 96.3818 70.5397C96.319 70.1148 96.4239 69.6821 96.6743 69.3331C96.9248 68.9841 97.3011 68.7462 97.7238 68.6697C97.9278 68.6273 98.1382 68.6258 98.3429 68.6651C98.5475 68.7044 98.7424 68.7838 98.9162 68.8987C99.09 69.0136 99.2394 69.1618 99.3557 69.3347C99.472 69.5076 99.5529 69.7018 99.5938 69.9061Z" fill="#263238"/>
<path d="M97.9615 64.8685C97.7899 65.1105 96.4215 64.3713 94.6659 64.6221C92.9103 64.8729 91.7487 65.9421 91.5287 65.7485C91.4187 65.6693 91.5683 65.2557 92.0743 64.7673C92.7603 64.1327 93.6254 63.7255 94.5515 63.6013C95.4559 63.4645 96.3804 63.6186 97.1915 64.0413C97.8075 64.3977 98.0451 64.7585 97.9615 64.8685Z" fill="#263238"/>
<path d="M106.176 77.4713C106.154 77.3701 107.219 77.0313 108.953 76.5517C109.393 76.4417 109.806 76.2921 109.833 75.9753C109.859 75.6585 109.635 75.1789 109.344 74.6905L107.532 71.4609C105.002 66.8585 103.101 63.0525 103.286 62.9513C103.47 62.8501 105.675 66.4977 108.209 71.1001L109.969 74.3561C110.211 74.8401 110.585 75.3769 110.453 76.0809C110.41 76.2484 110.329 76.4039 110.217 76.5358C110.105 76.6676 109.965 76.7724 109.806 76.8421C109.569 76.9453 109.319 77.0177 109.063 77.0577C107.298 77.4053 106.194 77.5681 106.176 77.4713Z" fill="#263238"/>
<path d="M97.7503 59.2935C97.5743 59.7775 95.8055 59.5443 93.7243 59.7951C91.6431 60.0459 89.9579 60.6135 89.6807 60.1779C89.5575 59.9711 89.8523 59.5179 90.5299 59.0515C91.4373 58.4768 92.4641 58.1173 93.5318 58.0007C94.5995 57.884 95.6798 58.0131 96.6899 58.3783C97.4423 58.6863 97.8251 59.0647 97.7503 59.2935Z" fill="#263238"/>
<path d="M114.941 59.1407C114.642 59.5807 113.15 59.4091 111.421 59.6599C109.692 59.9107 108.293 60.4255 107.901 60.0603C107.721 59.8799 107.901 59.4443 108.464 58.9691C109.27 58.3774 110.212 57.9993 111.203 57.87C112.194 57.7408 113.201 57.8646 114.131 58.2299C114.809 58.5423 115.073 58.9207 114.941 59.1407Z" fill="#263238"/>
<path d="M80.2076 73.9942C80.0008 73.937 72.028 72.7842 73.3832 80.5634C74.7384 88.3426 82.28 85.3594 82.2448 85.1482C82.2096 84.937 80.2076 73.9942 80.2076 73.9942Z" fill="#FFBF9D"/>
<path d="M79.354 82.6181C79.3188 82.5961 79.2352 82.7369 79.024 82.8821C78.7263 83.0758 78.3647 83.1453 78.0164 83.0757C77.1364 82.9217 76.2212 81.7337 75.9396 80.3389C75.8063 79.6752 75.8199 78.9904 75.9792 78.3325C76.0112 78.0774 76.1043 77.8338 76.2506 77.6224C76.3969 77.4109 76.5921 77.238 76.8196 77.1181C76.9693 77.0442 77.1406 77.0267 77.3022 77.0687C77.4638 77.1107 77.6048 77.2095 77.6996 77.3469C77.8448 77.5493 77.8184 77.7121 77.8624 77.7165C77.9064 77.7209 78.0076 77.5581 77.8888 77.2457C77.8127 77.0584 77.6744 76.903 77.4972 76.8057C77.2551 76.681 76.9735 76.6573 76.714 76.7397C76.12 76.8849 75.68 77.5317 75.5084 78.1917C75.2967 78.9229 75.2665 79.6946 75.4204 80.4401C75.7416 81.9977 76.802 83.3265 77.9812 83.4541C78.2017 83.4764 78.4243 83.4483 78.6324 83.3721C78.8404 83.2959 79.0285 83.1735 79.1824 83.0141C79.376 82.8073 79.3848 82.6269 79.354 82.6181Z" fill="#FF9A6C"/>
<path d="M109.445 44.6865C110.576 43.7625 106.057 40.3833 102.709 39.5517C97.6534 38.2801 90.2878 38.2801 86.2046 40.3041C81.2942 42.7285 77.4618 46.0945 75.7282 51.3041C73.9946 56.5137 74.0254 62.1721 75.165 67.5269C75.5126 69.1637 75.9966 70.8445 77.1274 72.0721C78.5266 73.5901 80.2338 74.1533 81.1534 76.6745C81.4526 77.5017 81.6858 78.3729 82.3942 78.8965C84.0926 80.1461 85.571 78.4081 86.1078 76.8373C87.2562 73.4801 86.781 69.7973 86.2882 66.3037C85.9406 63.8045 85.5754 61.2569 84.4402 59.0085C83.8242 57.7853 82.9882 56.6721 82.4426 55.4137C81.897 54.1553 81.6594 52.6593 82.2798 51.4537C82.4265 51.1878 82.5974 50.9359 82.7902 50.7013C83.6999 49.5566 84.898 48.6749 86.2613 48.1468C87.6246 47.6186 89.104 47.463 90.5474 47.6961C95.2026 48.4397 103.096 49.3769 104.773 47.5377C107.188 44.8977 107.602 43.3709 107.602 43.3709L109.445 44.6865Z" fill="#263238"/>
<path d="M100.901 79.5565C101.165 79.4905 101.503 81.2725 103.268 82.2493C105.032 83.2261 106.889 82.6893 106.951 82.9181C106.995 83.0237 106.594 83.3581 105.793 83.5165C104.756 83.7345 103.674 83.5786 102.74 83.0765C101.845 82.59 101.174 81.7741 100.87 80.8017C100.659 80.0493 100.76 79.5697 100.901 79.5565Z" fill="#263238"/>
<path d="M74.756 74.6589C74.5844 74.5533 74.36 74.5665 74.1972 74.4565C63.4216 67.4165 69.168 57.6705 68.8116 55.0613C68.3144 51.4445 64.8516 56.7685 63.4524 52.1441C61.5692 46.0193 67.7556 42.1209 75.4732 37.9233C78.7072 36.1633 87.0848 34.2713 94.7716 34.4649C101.631 34.6409 106.894 38.5217 110.053 41.6721C110.053 41.6721 111.729 42.1385 112.226 42.7545C113.78 44.6949 113.414 45.6761 113.414 45.6761C113.414 45.6761 97.4336 40.7701 87.0144 52.9757C76.5952 65.1813 80.4144 73.3653 77.1892 74.0649L74.756 74.6589Z" fill="#455A64"/>
<path d="M79.1472 42.7539C78.9586 42.8968 78.7601 43.0262 78.5532 43.1411C78.3552 43.2599 78.1132 43.4051 77.8536 43.5811C77.594 43.7571 77.2728 43.9595 76.9736 44.2103C76.2013 44.772 75.4664 45.3835 74.7736 46.0407C73.936 46.8518 73.1581 47.7223 72.446 48.6455C71.7461 49.5764 71.1152 50.5573 70.5584 51.5803C70.1087 52.4194 69.7133 53.2865 69.3748 54.1763C69.2164 54.5547 69.1152 54.9067 69.0096 55.2103C68.904 55.5139 68.8248 55.7823 68.7632 56.0023C68.7102 56.2343 68.6366 56.461 68.5432 56.6799C68.5707 56.4439 68.6148 56.2101 68.6752 55.9803C68.7236 55.7559 68.7896 55.4831 68.8864 55.1751C68.9832 54.8671 69.0756 54.5019 69.2252 54.1191C69.5436 53.2125 69.9275 52.3302 70.3736 51.4791C71.4656 49.3879 72.9042 47.4969 74.6284 45.8867C75.3315 45.2306 76.0799 44.6249 76.868 44.0739C77.198 43.8319 77.5192 43.6339 77.792 43.4711C78.0648 43.3083 78.3112 43.1587 78.518 43.0311C78.7192 42.9204 78.9298 42.8277 79.1472 42.7539Z" fill="#263238"/>
<path d="M110.484 41.7998C110.435 41.7968 110.386 41.7879 110.339 41.7734L109.899 41.6854C109.529 41.5974 108.983 41.4918 108.279 41.3554C107.575 41.219 106.709 41.0914 105.692 40.999C104.546 40.8809 103.394 40.8383 102.243 40.8714C99.2432 40.9492 96.2778 41.5277 93.469 42.583C91.8203 43.2003 90.2325 43.9692 88.7258 44.8798C87.104 45.8671 85.587 47.017 84.1982 48.3118C82.8132 49.6111 81.5698 51.0535 80.489 52.615C79.4994 54.0818 78.648 55.6373 77.9458 57.2614C76.7854 60.0287 75.9497 62.9212 75.4554 65.881C75.0154 68.4066 74.8218 70.4746 74.6986 71.9002C74.6414 72.6042 74.5974 73.1586 74.5666 73.5502C74.5666 73.7262 74.5358 73.867 74.527 73.9902C74.5318 74.0385 74.5318 74.0871 74.527 74.1354C74.519 74.0873 74.519 74.0383 74.527 73.9902C74.527 73.8802 74.527 73.7394 74.527 73.5502C74.527 73.1718 74.5666 72.6174 74.615 71.9002C74.7162 70.4658 74.8834 68.3802 75.3058 65.8546C75.7784 62.8836 76.5995 59.9786 77.7522 57.1998C78.4519 55.5602 79.3064 53.9911 80.3042 52.5138C81.39 50.935 82.6424 49.4776 84.0398 48.1666C86.7473 45.635 89.9359 43.6734 93.4162 42.3982C96.25 41.3443 99.2417 40.7775 102.265 40.7218C103.421 40.6991 104.578 40.7535 105.727 40.8846C106.744 40.9902 107.611 41.1486 108.319 41.2806C109.027 41.4126 109.564 41.5534 109.929 41.6546L110.343 41.7646C110.391 41.7697 110.439 41.7816 110.484 41.7998Z" fill="#263238"/>
<path d="M79.0458 69.9033C78.3605 70.1665 77.6104 70.2111 76.8987 70.0309C76.1738 69.9276 75.4972 69.607 74.9583 69.1113C75.5976 69.4019 76.2617 69.6345 76.9426 69.8065C77.6394 69.9022 78.3433 69.9346 79.0458 69.9033Z" fill="#263238"/>
<path d="M81.8707 62.2693C81.5942 62.3142 81.3116 62.3037 81.0391 62.2385C80.374 62.1301 79.7315 61.9115 79.1383 61.5917C78.5437 61.2744 78.0055 60.8611 77.5455 60.3685C77.3421 60.1776 77.1777 59.949 77.0615 59.6953C78.3283 61.0713 80.0232 61.9784 81.8707 62.2693Z" fill="#263238"/>
<path d="M87.3488 52.4968C86.7821 51.8268 86.1689 51.1976 85.514 50.6136C84.8139 50.0875 84.0789 49.6098 83.314 49.1836C84.1872 49.4084 84.9942 49.8383 85.668 50.4376C86.3857 50.9788 86.9623 51.6852 87.3488 52.4968Z" fill="#263238"/>
<path d="M93.7418 47.6783C93.4081 46.9493 93.0335 46.2398 92.6198 45.5531C92.1427 44.9102 91.6316 44.2934 91.0886 43.7051C92.4573 44.6244 93.4064 46.0481 93.7286 47.6651L93.7418 47.6783Z" fill="#263238"/>
<path d="M104.205 45.0505C104.174 44.2511 103.998 43.464 103.686 42.7273C103.31 42.0226 102.806 41.3943 102.199 40.8749C102.199 40.8485 102.472 40.9585 102.824 41.2445C103.273 41.6252 103.636 42.0962 103.891 42.6269C104.146 43.1576 104.286 43.736 104.302 44.3245C104.329 44.5708 104.295 44.8198 104.205 45.0505Z" fill="#263238"/>
<path d="M110.88 45.4083C110.872 44.7857 110.826 44.1642 110.743 43.5471C110.581 42.9494 110.385 42.3617 110.154 41.7871C110.56 42.2863 110.838 42.8769 110.965 43.5079C111.091 44.1389 111.062 44.7912 110.88 45.4083Z" fill="#263238"/>
<path d="M100.896 115.566C100.874 115.566 100.896 115.223 100.874 114.598C100.836 113.722 100.718 112.852 100.522 111.998C100.225 110.73 99.8214 109.489 99.3167 108.288C98.7623 106.924 98.0539 105.464 97.3543 103.888C96.7036 102.496 96.1608 101.056 95.7307 99.5808V99.4972L95.8055 99.4576C96.7405 98.9721 97.5633 98.2961 98.2211 97.4732L98.2651 97.416L98.3311 97.4512C99.0183 97.8297 99.7906 98.0265 100.575 98.0232H100.615V98.0584C100.875 98.5205 101.184 98.954 101.534 99.352C101.776 99.6336 101.922 99.792 101.913 99.792C101.904 99.792 101.869 99.7656 101.794 99.704C101.719 99.6424 101.614 99.5412 101.486 99.4092C101.108 99.0236 100.779 98.5937 100.505 98.1288L100.562 98.164C99.75 98.1863 98.9463 97.9967 98.2299 97.614H98.3399C97.6788 98.4699 96.8415 99.1736 95.8847 99.6776L95.9375 99.5544C96.3777 101.014 96.9217 102.44 97.5655 103.822C98.2651 105.376 98.9691 106.841 99.5147 108.222C100.016 109.436 100.408 110.692 100.685 111.976C100.869 112.844 100.963 113.728 100.967 114.616C100.969 114.857 100.958 115.097 100.936 115.337C100.934 115.415 100.92 115.492 100.896 115.566Z" fill="#FF9A6C"/>
<path d="M65.8547 116.674L83.7891 105.907C83.7891 105.907 97.7019 115.072 106.779 111.71C112.908 109.444 112.908 101.15 112.908 101.15L130.53 101.212L146.128 148.97L150.119 206.121H72.0675L68.9215 139.039L65.8547 116.674Z" fill="#069550"/>
<g opacity="0.3">
<path d="M71.3459 192.108C76.7975 196.728 83.9212 198.994 91.0272 199.729C98.1332 200.464 105.296 199.769 112.407 199.078C124.683 197.881 137.21 198.198 149.486 197.019C149.138 193.939 148.83 186.291 148.482 183.225L71.3459 188.76V192.108Z" fill="black"/>
</g>
<path d="M64.9527 169.017C64.9527 169.017 63.2631 168.203 62.4271 169.048C61.8479 169.679 61.362 170.391 60.9839 171.16C60.9839 171.16 58.2691 170.346 57.1427 172.598C57.1427 172.598 55.1143 173.879 56.3155 176.396C56.3155 176.396 54.1463 179.423 55.8755 182.041C56.0689 182.354 56.3076 182.638 56.5839 182.881C56.5839 182.881 57.3979 186.036 58.4847 186.564C59.5715 187.092 63.4523 188.276 63.5843 186.498C63.7163 184.72 63.0211 184.883 63.0211 184.883C63.0211 184.883 67.6103 187.369 69.6431 189.2C71.6759 191.03 77.0175 193.74 80.3131 193.732C83.6087 193.723 82.2007 186.639 82.2007 186.639L64.9527 169.017Z" fill="#FFBF9D"/>
<path d="M138.512 135.432C138.296 136.51 138.12 142.326 138.12 142.326L141.926 166.399C134.415 167.956 97.4862 175.445 97.4862 175.445L94.041 193.6C94.041 193.6 152.121 192.526 158.598 186.489C165.075 180.452 161.788 156.032 161.788 153.661C161.788 151.289 160.191 135.594 160.191 135.594L138.512 135.432Z" fill="#FFBF9D"/>
<path d="M57.7632 176.77C57.9664 176.829 58.1637 176.907 58.3528 177.003L59.928 177.72L62.2512 178.807L62.92 179.124L63.2676 179.286C63.4146 179.343 63.5364 179.451 63.6108 179.59C63.6305 179.634 63.6406 179.682 63.6406 179.731C63.6406 179.779 63.6305 179.827 63.6108 179.872C63.5732 179.952 63.5118 180.02 63.4348 180.065C63.3007 180.143 63.1499 180.189 62.9948 180.197C62.715 180.236 62.432 180.246 62.15 180.228C61.0104 180.153 59.9984 179.788 59.07 179.638C58.6354 179.541 58.1847 179.541 57.75 179.638C57.5659 179.688 57.3933 179.773 57.2422 179.889C57.0912 180.005 56.9647 180.15 56.87 180.316C56.6023 180.816 56.4832 181.383 56.5268 181.948C56.5421 182.159 56.5421 182.371 56.5268 182.582C56.4714 182.376 56.439 182.165 56.43 181.953C56.3552 181.364 56.4579 180.767 56.7248 180.237C56.824 180.051 56.959 179.886 57.1221 179.752C57.2853 179.619 57.4732 179.519 57.6752 179.458C58.1371 179.352 58.617 179.352 59.0788 179.458C60.0424 179.603 61.0588 179.96 62.1588 180.03C62.426 180.048 62.6942 180.039 62.9596 180.004C63.2104 180.004 63.4656 179.85 63.3996 179.709C63.3336 179.568 63.0344 179.467 62.8188 179.352L62.1544 179.027L59.84 177.865L58.2956 177.086C58.1084 176.998 57.9302 176.892 57.7632 176.77Z" fill="#FF9A6C"/>
<path d="M65.0407 175.445C64.6646 175.263 64.2988 175.06 63.9451 174.838C62.1876 173.857 60.2778 173.179 58.2955 172.831C57.8809 172.78 57.4696 172.705 57.0635 172.607C57.4841 172.577 57.9068 172.599 58.3219 172.673C59.3312 172.804 60.3239 173.041 61.2831 173.381C62.2416 173.722 63.1606 174.164 64.0243 174.701C64.3942 174.904 64.736 175.154 65.0407 175.445Z" fill="#FF9A6C"/>
<path d="M64.5919 172.318C63.9796 172.141 63.3823 171.916 62.8055 171.644C62.3916 171.48 61.9648 171.351 61.5295 171.257C61.3436 171.239 61.1606 171.199 60.9839 171.138C60.9839 171.108 61.1995 171.064 61.5559 171.094C62.0093 171.144 62.4535 171.257 62.8759 171.429C63.4905 171.634 64.0694 171.934 64.5919 172.318Z" fill="#FF9A6C"/>
<path d="M63.404 185.073C63.1387 185.112 62.8684 185.1 62.6076 185.038C61.9752 184.932 61.3568 184.755 60.764 184.51C60.1717 184.274 59.5942 184.002 59.0348 183.696C58.79 183.583 58.5631 183.435 58.3616 183.256C58.3968 183.186 59.4792 183.723 60.8476 184.281C61.4307 184.515 62.029 184.709 62.6384 184.862C62.8994 184.91 63.1556 184.98 63.404 185.073Z" fill="#FF9A6C"/>
<path d="M60.3811 184.126C60.4383 184.126 60.3327 184.566 59.9411 184.949C59.5495 185.332 59.1051 185.389 59.0919 185.336C59.0787 185.284 59.4395 185.112 59.7871 184.782C60.1347 184.452 60.3195 184.1 60.3811 184.126Z" fill="#FF9A6C"/>
<path d="M130.051 101.199C130.051 101.199 143.77 100.641 150.766 110.277C157.546 119.622 162.87 139.039 162.87 139.039L136.677 142.529L132.796 117.273L130.051 101.199Z" fill="#069550"/>
<path d="M152.117 177.425C152.073 177.425 151.892 176.567 151.351 175.26C151.206 174.903 151.043 174.553 150.863 174.213C150.682 173.839 150.449 173.46 150.212 173.06C149.669 172.205 149.05 171.401 148.364 170.658C147.664 169.925 146.901 169.255 146.084 168.656C145.697 168.392 145.336 168.132 144.971 167.934C144.644 167.73 144.306 167.543 143.959 167.375C142.688 166.75 141.834 166.517 141.852 166.469C142.055 166.501 142.256 166.553 142.45 166.623C142.684 166.687 142.915 166.765 143.141 166.856C143.405 166.962 143.708 167.067 144.021 167.23C144.376 167.39 144.723 167.569 145.059 167.767C145.433 167.965 145.803 168.207 146.194 168.484C147.886 169.665 149.312 171.186 150.383 172.95C150.616 173.359 150.85 173.746 151.021 174.129C151.198 174.477 151.355 174.834 151.492 175.198C151.633 175.528 151.721 175.841 151.809 176.114C151.897 176.386 151.954 176.62 151.998 176.813C152.06 177.012 152.1 177.217 152.117 177.425Z" fill="#FF9A6C"/>
<path d="M132.796 117.264C132.796 117.264 132.854 117.378 132.946 117.594C133.038 117.809 133.175 118.157 133.342 118.562C133.663 119.406 134.09 120.643 134.53 122.2C135.623 126.27 136.488 130.398 137.122 134.564C137.909 139.435 138.468 143.866 138.882 147.074C139.075 148.658 139.234 149.951 139.322 150.871C139.37 151.311 139.41 151.65 139.436 151.905C139.457 152.024 139.465 152.145 139.462 152.266C139.428 152.149 139.404 152.03 139.392 151.909L139.234 150.884C139.106 149.964 138.921 148.684 138.701 147.091C138.261 143.892 137.676 139.466 136.888 134.6C136.101 129.733 135.225 125.36 134.367 122.244C133.954 120.687 133.549 119.442 133.254 118.592L132.898 117.611C132.854 117.499 132.82 117.382 132.796 117.264Z" fill="#263238"/>
<path d="M86.2092 121.361L83.5384 149.692L79.4464 142.476L58.3616 144.984C58.5772 146.062 66.0836 172.427 69.3176 179.744C72.5516 187.061 81.598 200.085 91.7268 195.408C101.856 190.731 101.2 153.894 101.2 149.692C101.2 145.49 99.1716 120.428 99.1716 120.428" fill="#FFBF9D"/>
<path d="M99.1803 120.428C99.1803 120.428 99.2023 120.604 99.2331 120.947C99.2639 121.29 99.3079 121.805 99.3651 122.474C99.4751 123.82 99.6379 125.8 99.8491 128.343C100.06 130.887 100.289 134.015 100.562 137.636C100.691 139.449 100.826 141.383 100.967 143.44C101.094 145.495 101.257 147.668 101.288 149.956C101.327 154.532 101.288 159.544 100.962 164.916C100.694 170.638 100.002 176.333 98.8943 181.953C98.3047 185.005 97.3396 187.973 96.0211 190.788C95.334 192.254 94.3565 193.565 93.1479 194.643C92.8295 194.904 92.4878 195.135 92.1271 195.333C91.7616 195.522 91.3855 195.689 91.0007 195.835C90.6179 195.989 90.2175 196.09 89.8215 196.209C89.4185 196.307 89.01 196.382 88.5983 196.433C87.7684 196.537 86.9289 196.537 86.0991 196.433C85.2649 196.32 84.445 196.119 83.6527 195.835C82.0654 195.233 80.5811 194.388 79.2527 193.331C76.5685 191.141 74.2565 188.53 72.4063 185.601C71.3518 183.995 70.4095 182.319 69.5859 180.585C68.7807 178.855 68.1251 177.065 67.5047 175.305C66.2639 171.785 65.1463 168.265 64.0727 164.815C62.9991 161.365 61.9871 157.991 61.0191 154.695C60.0511 151.399 59.1051 148.17 58.2691 145.015L58.2427 144.905H58.3571L79.4419 142.41H79.4991L79.5299 142.459L83.5999 149.653L83.4503 149.688C84.2951 140.888 84.9727 133.817 85.4435 128.929C85.6811 126.491 85.8835 124.599 85.9935 123.314C86.0595 122.676 86.1079 122.188 86.1431 121.853C86.1783 121.519 86.2003 121.361 86.2003 121.361C86.2003 121.361 86.2003 121.528 86.1651 121.858C86.1299 122.188 86.0947 122.676 86.0375 123.314C85.9231 124.603 85.7515 126.495 85.5315 128.937C85.0915 133.826 84.4227 140.91 83.6087 149.701V149.952L83.4811 149.732L79.3803 142.52L79.4683 142.564L58.3879 145.085L58.4759 144.962C59.3075 148.099 60.2623 151.333 61.2303 154.642C62.1983 157.951 63.2191 161.33 64.3103 164.762C65.4015 168.194 66.5103 171.714 67.7423 175.239C68.3627 176.999 69.0183 178.759 69.8147 180.492C70.6277 182.217 71.5583 183.884 72.5999 185.482C74.4335 188.39 76.7246 190.982 79.3847 193.16C80.6952 194.204 82.1604 195.039 83.7275 195.633C84.5046 195.91 85.3082 196.106 86.1255 196.218C86.9378 196.319 87.7596 196.319 88.5719 196.218C88.973 196.168 89.3711 196.096 89.7643 196.002C90.1515 195.883 90.5475 195.782 90.9215 195.637C91.297 195.495 91.6643 195.332 92.0215 195.149C92.3683 194.954 92.698 194.73 93.0071 194.48C94.1914 193.421 95.1493 192.134 95.8231 190.696C97.1364 187.899 98.0985 184.951 98.6875 181.918C99.7957 176.305 100.488 170.618 100.76 164.903C101.077 159.539 101.143 154.528 101.112 149.943C101.09 147.659 100.927 145.486 100.808 143.431C100.689 141.376 100.54 139.44 100.421 137.627C100.157 134.006 99.9327 130.887 99.7435 128.335C99.5543 125.783 99.4091 123.807 99.3035 122.461C99.2551 121.792 99.2155 121.281 99.1935 120.934C99.1715 120.586 99.1803 120.428 99.1803 120.428Z" fill="#FF9A6C"/>
<path d="M83.4767 148.957C83.4803 149.07 83.4729 149.184 83.4547 149.296C83.4239 149.511 83.4107 149.841 83.3315 150.251C83.1392 151.421 82.8448 152.572 82.4515 153.691C81.8639 155.349 81.149 156.958 80.3131 158.505C79.3891 160.265 78.2715 162.126 77.1143 164.093C76.0135 165.932 75.0203 167.833 74.1399 169.787C73.4244 171.38 72.8759 173.043 72.5031 174.75C72.2574 175.907 72.1306 177.087 72.1247 178.27C72.1247 178.688 72.1467 179.009 72.1467 179.229C72.1554 179.342 72.1554 179.455 72.1467 179.568C72.1191 179.458 72.1043 179.346 72.1027 179.233C72.1027 179.013 72.0323 178.688 72.0367 178.27C72.0105 177.089 72.1138 175.908 72.3447 174.75C72.6963 173.025 73.2333 171.343 73.9463 169.734C74.8177 167.768 75.8096 165.858 76.9163 164.014C78.0735 162.043 79.1955 160.181 80.1283 158.439C80.9628 156.894 81.682 155.29 82.2799 153.639C82.6849 152.532 83.0012 151.394 83.2259 150.237C83.3183 149.828 83.3491 149.507 83.3887 149.287C83.4084 149.175 83.4378 149.064 83.4767 148.957Z" fill="#FF9A6C"/>
<path d="M65.8548 116.674C65.2784 116.788 55.3872 121.36 55.4532 136.597C55.506 147.971 58.5552 158.883 58.5552 158.883L82.3856 147.663L65.8548 116.674Z" fill="#069550"/>
<path d="M99.1802 120.428C99.1802 120.428 101.987 117.529 101.987 113.74C101.908 111.155 101.417 108.598 100.531 106.168C100.531 106.168 100.06 102.208 99.761 100.646L101.041 98.2301C101.041 98.2301 104.535 99.7613 105.116 97.5041L103.061 94.6881C102.6 94.0586 101.942 93.6016 101.191 93.3901L98.111 92.5101C97.5734 92.3586 97.0093 92.3258 96.4577 92.414C95.9061 92.5021 95.3803 92.7091 94.9166 93.0205L91.2822 95.4801L93.5394 90.8205L97.3278 90.0197C97.3278 90.0197 102.713 92.3473 103.734 89.2893L99.2198 86.6493L90.6266 86.7989C90.6266 86.7989 88.6598 89.2013 88.2242 89.9273C87.7886 90.6533 86.3674 93.1613 86.3674 93.1613L84.2158 87.5997C84.2158 87.5997 84.2818 84.0489 84.2158 81.0921C84.1234 77.8273 82.205 76.7361 80.2558 77.8273C80.0622 77.9329 79.1866 86.6757 79.6222 88.7173C80.0578 90.7589 83.8198 105.908 83.8198 105.908C83.8198 105.908 85.1398 109.358 85.6458 110.374C86.3811 111.88 86.749 113.539 86.7194 115.214C86.8074 116.825 86.1958 121.814 86.1958 121.814" fill="#FFBF9D"/>
<path d="M86.1651 121.841C86.1651 121.841 86.1651 121.744 86.1651 121.559C86.1651 121.374 86.2135 121.084 86.2531 120.723C86.3279 119.988 86.4423 118.901 86.5435 117.489C86.6134 116.706 86.6369 115.92 86.6139 115.135C86.6111 114.198 86.4989 113.265 86.2795 112.354C86.1598 111.851 85.9994 111.358 85.7999 110.88C85.5711 110.396 85.3203 109.886 85.1003 109.353C84.6603 108.284 84.2203 107.153 83.7407 105.939C83.1203 103.427 82.4207 100.659 81.7035 97.6627C81.3339 96.1608 80.9526 94.6091 80.5595 93.0075C80.3615 92.2023 80.1635 91.3883 79.9567 90.5611C79.8555 90.1431 79.7543 89.7295 79.6531 89.3071C79.6003 89.0959 79.5431 88.8891 79.4991 88.6735C79.4551 88.4579 79.4419 88.2335 79.4243 88.0091C79.3676 86.2005 79.422 84.3902 79.5871 82.5883C79.6575 81.6643 79.7367 80.7315 79.8379 79.7855C79.8907 79.3147 79.9435 78.8439 80.0183 78.3643C80.0183 78.2455 80.0535 78.1267 80.0799 78.0035C80.0784 77.9727 80.0784 77.9418 80.0799 77.9111V77.8627V77.8319L80.1151 77.7791C80.1284 77.7581 80.1487 77.7425 80.1723 77.7351H80.2163L80.2999 77.6955C80.5204 77.5803 80.7538 77.4917 80.9951 77.4314C81.4916 77.2977 82.0181 77.3285 82.4955 77.5194C82.9679 77.7302 83.362 78.0842 83.6219 78.5315C84.106 79.4326 84.3342 80.4491 84.2819 81.4707C84.2819 83.4888 84.2819 85.5421 84.2819 87.6307V87.5867C84.9639 89.3467 85.6943 91.2343 86.4335 93.1527H86.2267L88.1099 89.8835C88.8403 88.8011 89.6719 87.8023 90.4991 86.7727L90.5299 86.7331H90.6399L92.2503 86.7023L99.2331 86.5878H99.2683H99.2947L103.809 89.2278L103.888 89.2762L103.84 89.3203C103.742 89.6265 103.58 89.9082 103.365 90.1466C103.149 90.3849 102.885 90.5742 102.59 90.7019C102.009 90.9261 101.385 91.0163 100.764 90.9659C99.5659 90.8728 98.3905 90.586 97.2839 90.1167H97.3499L93.5615 90.9175L93.6363 90.8603L91.3747 95.5199L91.2207 95.3835L94.9343 92.9019C95.5635 92.5028 96.2925 92.2892 97.0375 92.2859C97.4016 92.2878 97.7639 92.3366 98.1155 92.4311L99.1275 92.7171L101.121 93.2803C101.795 93.4515 102.406 93.8135 102.881 94.3231C103.717 95.3878 104.443 96.4439 105.195 97.4559L105.222 97.4911V97.5351C105.117 97.9547 104.853 98.3175 104.487 98.5471C104.125 98.7511 103.713 98.8487 103.299 98.8287C102.515 98.8014 101.743 98.6267 101.024 98.3139L101.13 98.2787C100.69 99.1587 100.25 99.9243 99.8491 100.69V100.637C100.192 102.613 100.399 104.461 100.606 106.168C101.339 108.187 101.806 110.294 101.996 112.433C102.087 113.299 102.068 114.173 101.939 115.034C101.817 115.748 101.615 116.446 101.336 117.115C100.954 118.029 100.457 118.891 99.8579 119.68C99.6511 119.949 99.4883 120.142 99.3739 120.27C99.3173 120.335 99.2571 120.396 99.1935 120.455L99.3563 120.257C99.4707 120.129 99.6247 119.927 99.8271 119.658C100.409 118.862 100.893 118 101.27 117.089C101.539 116.421 101.733 115.726 101.851 115.016C101.969 114.163 101.982 113.299 101.891 112.442C101.686 110.317 101.211 108.226 100.478 106.221C100.263 104.513 100.038 102.665 99.6995 100.703V100.677V100.65L100.976 98.2346L101.011 98.1687L101.081 98.1994C101.779 98.4939 102.524 98.6608 103.281 98.6923C103.663 98.708 104.042 98.6182 104.377 98.4327C104.704 98.2239 104.938 97.8981 105.032 97.5219V97.6011C104.28 96.5935 103.532 95.5155 102.722 94.4859C102.273 94.0032 101.694 93.6609 101.055 93.5003L99.0615 92.9415C98.4046 92.7103 97.7192 92.5696 97.0243 92.5235C96.3168 92.5275 95.6246 92.7302 95.0267 93.1087L91.3263 95.5947L91.0051 95.8103L91.1723 95.4627L93.4295 90.7987V90.7503H93.4823L97.2663 89.9451H97.3015H97.3367C98.4283 90.3882 99.5842 90.6526 100.76 90.7283C101.346 90.7778 101.936 90.6935 102.485 90.4819C102.75 90.3667 102.989 90.1961 103.183 89.9813C103.377 89.7665 103.523 89.5126 103.611 89.2367L103.66 89.3731L99.1451 86.7331H99.2023L92.2195 86.8519L90.6091 86.8827L90.6971 86.8387C89.8787 87.8595 89.0339 88.8759 88.3255 89.9187C87.6875 91.0319 87.0583 92.1187 86.4467 93.1835L86.3279 93.3903L86.2443 93.1659L84.0971 87.6043V87.5823C84.0971 85.4967 84.0971 83.4433 84.0971 81.4223C84.1507 80.4379 83.933 79.4578 83.4679 78.5887C83.2334 78.1782 82.8743 77.853 82.4427 77.6603C82.0086 77.487 81.53 77.4592 81.0787 77.5811C80.8509 77.6361 80.6308 77.7189 80.4231 77.8275L80.3439 77.8671H80.3043C80.3395 77.9463 80.2339 77.7615 80.2647 77.8143C80.2955 77.8671 80.3131 77.8759 80.3131 77.8671V77.9023C80.3111 77.9301 80.3111 77.958 80.3131 77.9859C80.2867 78.1003 80.2691 78.2191 80.2515 78.3335C80.1811 78.8043 80.1283 79.2795 80.0755 79.7503C79.9699 80.6875 79.8863 81.6203 79.8159 82.5443C79.6526 84.336 79.5953 86.1358 79.6443 87.9343C79.6557 88.1483 79.6807 88.3614 79.7191 88.5723C79.7587 88.7835 79.8159 89.0123 79.8643 89.2059C79.9699 89.6459 80.0711 90.0419 80.1723 90.4555C80.3688 91.2885 80.5668 92.104 80.7663 92.9019C81.1535 94.5093 81.5304 96.0625 81.8971 97.5615C82.6231 100.553 83.2963 103.325 83.9035 105.842C84.3435 107.048 84.7835 108.192 85.2235 109.257C85.4435 109.793 85.6855 110.291 85.9187 110.788C86.1307 111.273 86.3029 111.775 86.4335 112.288C86.6502 113.207 86.758 114.147 86.7547 115.091C86.7725 115.881 86.7431 116.672 86.6667 117.458C86.5479 118.866 86.4247 119.953 86.3367 120.688C86.2898 121.049 86.2546 121.326 86.2311 121.519C86.1827 121.748 86.1651 121.841 86.1651 121.841Z" fill="#FF9A6C"/>
<path d="M100.236 93.5136C99.9041 93.5908 99.5831 93.7106 99.2816 93.87C98.5902 94.3308 97.9342 94.8427 97.3192 95.4012C96.5624 96.026 95.8716 96.5804 95.3656 96.972C95.1042 97.2039 94.8179 97.4061 94.512 97.5748C94.733 97.3053 94.984 97.0617 95.26 96.8488C95.7396 96.4088 96.4172 95.85 97.174 95.2208C97.7983 94.6536 98.4795 94.1523 99.2068 93.7248C99.5137 93.5337 99.879 93.4588 100.236 93.5136Z" fill="#FF9A6C"/>
<path d="M75.6271 128.039C75.6887 128.017 77.2815 132.408 79.1867 137.847C81.0919 143.285 82.5923 147.707 82.5307 147.729C82.4691 147.751 80.8807 143.36 78.9711 137.922C77.0615 132.483 75.5699 128.039 75.6271 128.039Z" fill="#263238"/>
</svg>
