<svg width="24" height="25" viewBox="0 0 24 25" fill="none" xmlns="http://www.w3.org/2000/svg">
<path opacity="0.5" d="M2 12.5C2 7.78595 2 5.42893 3.46447 3.96447C4.92893 2.5 7.28595 2.5 12 2.5C16.714 2.5 19.0711 2.5 20.5355 3.96447C22 5.42893 22 7.78595 22 12.5" stroke="#1C274C" stroke-width="1.5"/>
<path d="M2 14.5C2 11.6997 2 10.2996 2.54497 9.23005C3.02433 8.28924 3.78924 7.52433 4.73005 7.04497C5.79961 6.5 7.19974 6.5 10 6.5H14C16.8003 6.5 18.2004 6.5 19.27 7.04497C20.2108 7.52433 20.9757 8.28924 21.455 9.23005C22 10.2996 22 11.6997 22 14.5C22 17.3003 22 18.7004 21.455 19.77C20.9757 20.7108 20.2108 21.4757 19.27 21.955C18.2004 22.5 16.8003 22.5 14 22.5H10C7.19974 22.5 5.79961 22.5 4.73005 21.955C3.78924 21.4757 3.02433 20.7108 2.54497 19.77C2 18.7004 2 17.3003 2 14.5Z" stroke="#1C274C" stroke-width="1.5"/>
<path d="M12 11.5L12 17.5M12 17.5L14.5 15M12 17.5L9.5 15" stroke="#1C274C" stroke-width="1.5" stroke-linecap="round" stroke-linejoin="round"/>
</svg>
