<svg width="25" height="25" viewBox="0 0 25 25" fill="none" xmlns="http://www.w3.org/2000/svg">
<path d="M16 9.5L16.1716 9.67157C17.5049 11.0049 18.1716 11.6716 18.1716 12.5C18.1716 13.3284 17.5049 13.9951 16.1716 15.3284L16 15.5" stroke="#1C274C" stroke-width="1.5" stroke-linecap="round"/>
<path d="M13.7941 7.66992L12.5 12.4996L11.2059 17.3292" stroke="#1C274C" stroke-width="1.5" stroke-linecap="round"/>
<path d="M8.99994 9.5L8.82837 9.67157C7.49504 11.0049 6.82837 11.6716 6.82837 12.5C6.82837 13.3284 7.49504 13.9951 8.82837 15.3284L8.99994 15.5" stroke="#1C274C" stroke-width="1.5" stroke-linecap="round"/>
<path opacity="0.5" d="M2.5 12.5C2.5 7.78595 2.5 5.42893 3.96447 3.96447C5.42893 2.5 7.78595 2.5 12.5 2.5C17.214 2.5 19.5711 2.5 21.0355 3.96447C22.5 5.42893 22.5 7.78595 22.5 12.5C22.5 17.214 22.5 19.5711 21.0355 21.0355C19.5711 22.5 17.214 22.5 12.5 22.5C7.78595 22.5 5.42893 22.5 3.96447 21.0355C2.5 19.5711 2.5 17.214 2.5 12.5Z" stroke="#1C274C" stroke-width="1.5"/>
</svg>
