<svg width="25" height="25" viewBox="0 0 25 25" fill="none" xmlns="http://www.w3.org/2000/svg">
<path d="M11.3693 22.0102L12.0147 22.3922L11.3693 22.0102ZM11.6288 21.5719L10.9833 21.1899L11.6288 21.5719ZM9.37121 21.5719L10.0166 21.1899L10.0166 21.1899L9.37121 21.5719ZM9.63064 22.0102L8.98523 22.3922L9.63064 22.0102ZM2.80448 17.6308L3.49739 17.3438H3.49739L2.80448 17.6308ZM6.78931 20.085L6.81328 19.3354L6.78931 20.085ZM4.96927 19.7956L4.68225 20.4885H4.68225L4.96927 19.7956ZM18.1955 17.6308L18.8884 17.9178L18.8884 17.9178L18.1955 17.6308ZM14.2107 20.085L14.1867 19.3354L14.2107 20.085ZM16.0307 19.7956L16.3177 20.4885L16.0307 19.7956ZM16.59 7.08944L16.9819 6.44996V6.44996L16.59 7.08944ZM17.9106 8.41001L18.55 8.01814V8.01814L17.9106 8.41001ZM4.41001 7.08944L4.01813 6.44996V6.44996L4.41001 7.08944ZM3.08944 8.41001L2.44996 8.01814H2.44996L3.08944 8.41001ZM8.41637 20.3223L8.03453 20.9679H8.03453L8.41637 20.3223ZM12.0147 22.3922L12.2742 21.9539L10.9833 21.1899L10.7239 21.6282L12.0147 22.3922ZM8.72579 21.9539L8.98523 22.3922L10.2761 21.6282L10.0166 21.1899L8.72579 21.9539ZM10.7239 21.6282C10.6785 21.7049 10.5992 21.75 10.5 21.75C10.4007 21.75 10.3215 21.7049 10.2761 21.6282L8.98523 22.3922C9.66217 23.5359 11.3378 23.5359 12.0147 22.3922L10.7239 21.6282ZM9.3 7.25H11.7V5.75H9.3V7.25ZM17.75 13.3V14.1H19.25V13.3H17.75ZM3.25 14.1V13.3H1.75V14.1H3.25ZM1.75 14.1C1.75 15.0217 1.74959 15.7504 1.7898 16.3397C1.83047 16.9357 1.91517 17.4436 2.11157 17.9178L3.49739 17.3438C3.38931 17.0828 3.32178 16.7573 3.28632 16.2376C3.25041 15.7112 3.25 15.0422 3.25 14.1H1.75ZM6.81328 19.3354C6.02102 19.31 5.59046 19.2411 5.25628 19.1027L4.68225 20.4885C5.27912 20.7357 5.93744 20.8081 6.76533 20.8346L6.81328 19.3354ZM2.11157 17.9178C2.59367 19.0817 3.51837 20.0064 4.68225 20.4885L5.25628 19.1027C4.45994 18.7728 3.82725 18.1401 3.49739 17.3438L2.11157 17.9178ZM17.75 14.1C17.75 15.0422 17.7496 15.7112 17.7137 16.2376C17.6782 16.7573 17.6107 17.0828 17.5026 17.3438L18.8884 17.9178C19.0848 17.4436 19.1695 16.9357 19.2102 16.3397C19.2504 15.7504 19.25 15.0217 19.25 14.1H17.75ZM14.2346 20.8346C15.0625 20.8081 15.7209 20.7357 16.3177 20.4885L15.7437 19.1027C15.4095 19.2411 14.979 19.31 14.1867 19.3354L14.2346 20.8346ZM17.5026 17.3438C17.1728 18.1401 16.5401 18.7728 15.7437 19.1027L16.3177 20.4885C17.4816 20.0064 18.4063 19.0817 18.8884 17.9178L17.5026 17.3438ZM11.7 7.25C13.0239 7.25 13.9641 7.25079 14.6953 7.32031C15.4154 7.38877 15.8548 7.51855 16.1981 7.72892L16.9819 6.44996C16.3633 6.07089 15.6671 5.90595 14.8373 5.82705C14.0187 5.74921 12.9949 5.75 11.7 5.75V7.25ZM19.25 13.3C19.25 12.0052 19.2508 10.9814 19.173 10.1627C19.0941 9.33288 18.9291 8.63673 18.55 8.01814L17.2711 8.80189C17.4814 9.14518 17.6112 9.58466 17.6797 10.3047C17.7492 11.0359 17.75 11.9761 17.75 13.3H19.25ZM16.1981 7.72892C16.6354 7.9969 17.0031 8.36458 17.2711 8.80189L18.55 8.01814C18.1584 7.379 17.621 6.84163 16.9819 6.44996L16.1981 7.72892ZM9.3 5.75C8.00515 5.75 6.98135 5.74921 6.16269 5.82705C5.33287 5.90595 4.63672 6.07089 4.01813 6.44996L4.80188 7.72892C5.14517 7.51855 5.58465 7.38877 6.30467 7.32031C7.03585 7.25079 7.97611 7.25 9.3 7.25V5.75ZM3.25 13.3C3.25 11.9761 3.25079 11.0359 3.32031 10.3047C3.38877 9.58466 3.51855 9.14518 3.72892 8.80189L2.44996 8.01814C2.07089 8.63673 1.90595 9.33288 1.82705 10.1627C1.74921 10.9814 1.75 12.0052 1.75 13.3H3.25ZM4.01813 6.44996C3.37899 6.84163 2.84162 7.379 2.44996 8.01814L3.72892 8.80189C3.9969 8.36458 4.36458 7.9969 4.80188 7.72892L4.01813 6.44996ZM10.0166 21.1899C9.81582 20.8506 9.63969 20.5516 9.46888 20.3164C9.28917 20.069 9.08327 19.8454 8.79822 19.6768L8.03453 20.9679C8.08064 20.9951 8.14427 21.0451 8.25524 21.1979C8.37511 21.363 8.51082 21.5907 8.7258 21.9539L10.0166 21.1899ZM6.76533 20.8346C7.21078 20.8489 7.49552 20.8587 7.71182 20.8851C7.91631 20.91 7.99305 20.9433 8.03453 20.9679L8.79822 19.6768C8.50853 19.5055 8.20371 19.4339 7.89344 19.3961C7.59498 19.3597 7.23177 19.3488 6.81328 19.3354L6.76533 20.8346ZM12.2742 21.9539C12.4891 21.5907 12.6249 21.363 12.7447 21.1979C12.8557 21.0451 12.9193 20.9951 12.9654 20.9679L12.2018 19.6768C11.9167 19.8454 11.7108 20.069 11.5311 20.3164C11.3603 20.5516 11.1841 20.8506 10.9833 21.1899L12.2742 21.9539ZM14.1867 19.3354C13.7682 19.3488 13.405 19.3597 13.1065 19.3961C12.7963 19.4339 12.4914 19.5055 12.2018 19.6768L12.9654 20.9679C13.0069 20.9433 13.0837 20.91 13.2881 20.8851C13.5044 20.8587 13.7892 20.8489 14.2346 20.8346L14.1867 19.3354Z" fill="#1C274C"/>
<path opacity="0.5" d="M22.2145 12.9351L22.9074 13.2221V13.2221L22.2145 12.9351ZM20.185 14.9646L20.472 15.6575H20.472L20.185 14.9646ZM20.7093 3.0526L20.3174 3.69208V3.69208L20.7093 3.0526ZM21.9473 4.29064L22.5868 3.89876V3.89876L21.9473 4.29064ZM9.29058 3.0526L8.8987 2.41312V2.41312L9.29058 3.0526ZM8.05255 4.29064L7.41307 3.89876H7.41307L8.05255 4.29064ZM13.8749 3.25H16.1249V1.75H13.8749V3.25ZM21.7499 8.87503V9.62503H23.2499V8.87503H21.7499ZM21.7499 9.62503C21.7499 10.5089 21.7495 11.1343 21.716 11.6258C21.6829 12.1106 21.6201 12.4101 21.5216 12.6481L22.9074 13.2221C23.0943 12.7709 23.1742 12.2891 23.2125 11.7279C23.2504 11.1735 23.2499 10.4884 23.2499 9.62503H21.7499ZM21.5216 12.6481C21.2171 13.3832 20.6331 13.9672 19.898 14.2717L20.472 15.6575C21.5747 15.2008 22.4507 14.3247 22.9074 13.2221L21.5216 12.6481ZM16.1249 3.25C17.367 3.25 18.2459 3.25079 18.9286 3.31571C19.6002 3.37956 20.0042 3.50013 20.3174 3.69208L21.1012 2.41312C20.5127 2.05247 19.852 1.89674 19.0706 1.82244C18.3004 1.74921 17.338 1.75 16.1249 1.75V3.25ZM23.2499 8.87503C23.2499 7.66201 23.2507 6.69958 23.1775 5.92935C23.1032 5.14796 22.9475 4.48729 22.5868 3.89876L21.3079 4.68251C21.4998 4.99574 21.6204 5.39973 21.6842 6.07133C21.7492 6.75408 21.7499 7.63296 21.7499 8.87503H23.2499ZM20.3174 3.69208C20.7211 3.93945 21.0605 4.27884 21.3079 4.68251L22.5868 3.89876C22.2158 3.29326 21.7067 2.78417 21.1012 2.41312L20.3174 3.69208ZM13.8749 1.75C12.6619 1.75 11.6995 1.74921 10.9293 1.82244C10.1479 1.89674 9.48723 2.05247 8.8987 2.41312L9.68245 3.69208C9.99568 3.50013 10.3997 3.37956 11.0713 3.31571C11.754 3.25079 12.6329 3.25 13.8749 3.25V1.75ZM8.8987 2.41312C8.2932 2.78417 7.78412 3.29326 7.41307 3.89876L8.69203 4.68251C8.93939 4.27884 9.27879 3.93945 9.68245 3.69208L8.8987 2.41312ZM8.28219 6.53896C8.33215 5.57858 8.45706 5.06594 8.69203 4.68251L7.41307 3.89876C6.97594 4.61209 6.83747 5.43717 6.78422 6.46104L8.28219 6.53896ZM18.5249 15.9848C19.2916 15.9593 19.9094 15.8906 20.472 15.6575L19.898 14.2717C19.596 14.3968 19.2039 14.4614 18.4751 14.4857L18.5249 15.9848Z" fill="#1C274C"/>
<path opacity="0.5" d="M7.00928 13.5H7.01828M10.5 13.5H10.509M13.991 13.5H14" stroke="#1C274C" stroke-width="2" stroke-linecap="round" stroke-linejoin="round"/>
</svg>
