<svg width="24" height="25" viewBox="0 0 24 25" fill="none" xmlns="http://www.w3.org/2000/svg">
<path d="M2.38351 14.293C1.93748 11.1294 1.71447 9.54765 2.66232 8.52383C3.61017 7.5 5.29758 7.5 8.67239 7.5H15.3276C18.7024 7.5 20.3898 7.5 21.3377 8.52383C22.2855 9.54765 22.0625 11.1294 21.6165 14.293L21.1935 17.293C20.8437 19.7739 20.6689 21.0143 19.7717 21.7572C18.8745 22.5 17.5512 22.5 14.9046 22.5H9.09536C6.44881 22.5 5.12553 22.5 4.22834 21.7572C3.33115 21.0143 3.15626 19.7739 2.80648 17.293L2.38351 14.293Z" stroke="#1C274C" stroke-width="1.5"/>
<path opacity="0.5" d="M19.5617 7.5C19.7904 6.19523 18.7863 5 17.4617 5H6.53788C5.21323 5 4.20922 6.19523 4.43784 7.5M17.4999 5C17.5283 4.74092 17.5425 4.61135 17.5427 4.50435C17.545 3.48072 16.7739 2.62064 15.7561 2.51142C15.6497 2.5 15.5194 2.5 15.2588 2.5H8.74099C8.48035 2.5 8.35002 2.5 8.24362 2.51142C7.22584 2.62064 6.45481 3.48072 6.45704 4.50434C6.45727 4.61135 6.47146 4.7409 6.49983 5" stroke="#1C274C" stroke-width="1.5"/>
<circle opacity="0.5" cx="16.5" cy="12" r="1.5" stroke="#1C274C" stroke-width="1.5"/>
<path opacity="0.5" d="M19.9999 20.5L17.1157 18.3514C16.1856 17.6586 14.8004 17.5896 13.7766 18.1851L13.5098 18.3403C12.7984 18.7542 11.8304 18.6848 11.2156 18.1758L7.37738 14.9989C6.6113 14.3648 5.38245 14.3309 4.5671 14.9214L3.24316 15.8803" stroke="#1C274C" stroke-width="1.5" stroke-linecap="round"/>
</svg>
