<svg width="25" height="25" viewBox="0 0 25 25" fill="none" xmlns="http://www.w3.org/2000/svg">
<path opacity="0.5" d="M3 7C3 5.11438 3 4.17157 3.58579 3.58579C4.17157 3 5.11438 3 7 3C8.88562 3 9.82843 3 10.4142 3.58579C11 4.17157 11 5.11438 11 7C11 8.88562 11 9.82843 10.4142 10.4142C9.82843 11 8.88562 11 7 11C5.11438 11 4.17157 11 3.58579 10.4142C3 9.82843 3 8.88562 3 7Z" stroke="#1C274C" stroke-width="1.5"/>
<path opacity="0.5" d="M14 18C14 16.1144 14 15.1716 14.5858 14.5858C15.1716 14 16.1144 14 18 14C19.8856 14 20.8284 14 21.4142 14.5858C22 15.1716 22 16.1144 22 18C22 19.8856 22 20.8284 21.4142 21.4142C20.8284 22 19.8856 22 18 22C16.1144 22 15.1716 22 14.5858 21.4142C14 20.8284 14 19.8856 14 18Z" stroke="#1C274C" stroke-width="1.5"/>
<path d="M3 18C3 16.1144 3 15.1716 3.58579 14.5858C4.17157 14 5.11438 14 7 14C8.88562 14 9.82843 14 10.4142 14.5858C11 15.1716 11 16.1144 11 18C11 19.8856 11 20.8284 10.4142 21.4142C9.82843 22 8.88562 22 7 22C5.11438 22 4.17157 22 3.58579 21.4142C3 20.8284 3 19.8856 3 18Z" stroke="#1C274C" stroke-width="1.5"/>
<path d="M14 7C14 5.11438 14 4.17157 14.5858 3.58579C15.1716 3 16.1144 3 18 3C19.8856 3 20.8284 3 21.4142 3.58579C22 4.17157 22 5.11438 22 7C22 8.88562 22 9.82843 21.4142 10.4142C20.8284 11 19.8856 11 18 11C16.1144 11 15.1716 11 14.5858 10.4142C14 9.82843 14 8.88562 14 7Z" stroke="#1C274C" stroke-width="1.5"/>
</svg>
