<svg width="25" height="25" viewBox="0 0 25 25" fill="none" xmlns="http://www.w3.org/2000/svg">
<path d="M2.88351 14.293C2.43748 11.1294 2.21447 9.54765 3.16232 8.52383C4.11017 7.5 5.79758 7.5 9.17239 7.5H15.8276C19.2024 7.5 20.8898 7.5 21.8377 8.52383C22.7855 9.54765 22.5625 11.1294 22.1165 14.293L21.6935 17.293C21.3437 19.7739 21.1689 21.0143 20.2717 21.7572C19.3745 22.5 18.0512 22.5 15.4046 22.5H9.59536C6.94881 22.5 5.62553 22.5 4.72834 21.7572C3.83115 21.0143 3.65626 19.7739 3.30648 17.293L2.88351 14.293Z" stroke="#1C274C" stroke-width="1.5"/>
<path opacity="0.5" d="M20.0617 7.5C20.2904 6.19523 19.2863 5 17.9617 5H7.03788C5.71323 5 4.70922 6.19523 4.93784 7.5M17.9999 5C18.0283 4.74092 18.0425 4.61135 18.0427 4.50435C18.045 3.48072 17.2739 2.62064 16.2561 2.51142C16.1497 2.5 16.0194 2.5 15.7588 2.5H9.24099C8.98035 2.5 8.85002 2.5 8.74362 2.51142C7.72584 2.62064 6.95481 3.48072 6.95704 4.50434C6.95727 4.61135 6.97146 4.7409 6.99983 5" stroke="#1C274C" stroke-width="1.5"/>
<circle opacity="0.5" cx="17" cy="12" r="1.5" stroke="#1C274C" stroke-width="1.5"/>
<path opacity="0.5" d="M20.4999 20.5L17.6157 18.3514C16.6856 17.6586 15.3004 17.5896 14.2766 18.1851L14.0098 18.3403C13.2984 18.7542 12.3304 18.6848 11.7156 18.1758L7.87738 14.9989C7.1113 14.3648 5.88245 14.3309 5.0671 14.9214L3.74316 15.8803" stroke="#1C274C" stroke-width="1.5" stroke-linecap="round"/>
</svg>
