<svg width="25" height="25" viewBox="0 0 25 25" fill="none" xmlns="http://www.w3.org/2000/svg">
<path d="M2.5 7C2.5 6.44772 2.94772 6 3.5 6H6.5C7.05228 6 7.5 6.44772 7.5 7V10C7.5 10.5523 7.05228 11 6.5 11H3.5C2.94772 11 2.5 10.5523 2.5 10V7Z" fill="#28303F"/>
<g opacity="0.4">
<path d="M2.5 15C2.5 14.4477 2.94772 14 3.5 14H6.5C7.05228 14 7.5 14.4477 7.5 15V18C7.5 18.5523 7.05228 19 6.5 19H3.5C2.94772 19 2.5 18.5523 2.5 18V15Z" fill="#28303F"/>
</g>
<path opacity="0.4" fill-rule="evenodd" clip-rule="evenodd" d="M9.75 6.75C9.75 6.33579 10.0858 6 10.5 6L16.5 6C16.9142 6 17.25 6.33579 17.25 6.75C17.25 7.16421 16.9142 7.5 16.5 7.5L10.5 7.5C10.0858 7.5 9.75 7.16421 9.75 6.75Z" fill="#28303F"/>
<path fill-rule="evenodd" clip-rule="evenodd" d="M9.75 14.75C9.75 14.3358 10.0858 14 10.5 14H16.5C16.9142 14 17.25 14.3358 17.25 14.75C17.25 15.1642 16.9142 15.5 16.5 15.5H10.5C10.0858 15.5 9.75 15.1642 9.75 14.75Z" fill="#28303F"/>
<path opacity="0.4" fill-rule="evenodd" clip-rule="evenodd" d="M9.75 10.25C9.75 9.83579 10.0858 9.5 10.5 9.5L22.5 9.5C22.9142 9.5 23.25 9.83579 23.25 10.25C23.25 10.6642 22.9142 11 22.5 11L10.5 11C10.0858 11 9.75 10.6642 9.75 10.25Z" fill="#28303F"/>
<path fill-rule="evenodd" clip-rule="evenodd" d="M9.75 18.25C9.75 17.8358 10.0858 17.5 10.5 17.5H22.5C22.9142 17.5 23.25 17.8358 23.25 18.25C23.25 18.6642 22.9142 19 22.5 19H10.5C10.0858 19 9.75 18.6642 9.75 18.25Z" fill="#28303F"/>
</svg>
