<svg width="25" height="25" viewBox="0 0 25 25" fill="none" xmlns="http://www.w3.org/2000/svg">
<path fill-rule="evenodd" clip-rule="evenodd" d="M7.5 7.49985C7.5 6.60988 7.5 6.1649 7.2322 5.877C7.15621 5.79531 7.04711 5.71363 6.94732 5.66372C6.59566 5.48783 6.20533 5.60239 5.42468 5.83151C3.91701 6.27401 3 6.85875 3 7.49985C3 8.14095 3.91701 8.72569 5.42468 9.16819C6.20533 9.39731 6.59566 9.51187 6.94732 9.33598C7.04711 9.28607 7.15621 9.20439 7.2322 9.1227C7.5 8.8348 7.5 8.38982 7.5 7.49985ZM17.5 7.49985C17.5 8.38982 17.5 8.8348 17.7678 9.1227C17.8438 9.20439 17.9529 9.28607 18.0527 9.33598C18.4043 9.51187 18.7947 9.39731 19.5753 9.16819C21.083 8.72569 22 8.14095 22 7.49985C22 6.85875 21.083 6.27401 19.5753 5.83151C18.7947 5.60239 18.4043 5.48783 18.0527 5.66372C17.9529 5.71363 17.8438 5.79531 17.7678 5.877C17.5 6.1649 17.5 6.60988 17.5 7.49985Z" fill="#7E869E" fill-opacity="0.25"/>
<path d="M6.46062 15.8157L4 18.5L8.46641 19.7181C8.98244 19.8588 9.24045 19.9292 9.50474 19.9646C9.76903 20 10.0365 20 10.5713 20H14.6218C15.0605 20 15.2798 20 15.4974 19.9761C15.715 19.9522 15.9291 19.9047 16.3573 19.8095L20 19L18.8779 17.1298L18.8779 17.1298C18.4603 16.4338 18.2515 16.0859 18.0165 15.8796C17.3622 15.3056 16.4118 15.2206 15.6661 15.6694C15.3982 15.8307 15.1309 16.1361 14.5965 16.7469L14.5965 16.7469C14.3499 17.0287 14.2266 17.1695 14.1002 17.2482C13.7491 17.4665 13.2999 17.4463 12.9698 17.1973C12.851 17.1076 12.7408 16.9562 12.5206 16.6534L12.1456 16.1377C11.0357 14.6116 10.4808 13.8485 9.71743 13.6943C9.5305 13.6565 9.33911 13.6457 9.14911 13.6621C8.37325 13.7292 7.7357 14.4247 6.46062 15.8157Z" fill="#7E869E" fill-opacity="0.25"/>
<path d="M4 18.5L6.46062 15.8157C7.7357 14.4247 8.37325 13.7292 9.14911 13.6621C9.33911 13.6457 9.5305 13.6565 9.71743 13.6943C10.4808 13.8485 11.0357 14.6116 12.1456 16.1377L12.5206 16.6534C12.7408 16.9562 12.851 17.1076 12.9698 17.1973C13.2999 17.4463 13.7491 17.4665 14.1002 17.2482C14.2267 17.1695 14.3499 17.0287 14.5965 16.7469V16.7469C15.1309 16.1361 15.3982 15.8307 15.6661 15.6694C16.4118 15.2206 17.3622 15.3056 18.0165 15.8796C18.2515 16.0859 18.4603 16.4339 18.8779 17.1298L20 19" stroke="#222222" stroke-width="1.4"/>
<path d="M7 9.5V5.5" stroke="#222222" stroke-width="1.4" stroke-linecap="round"/>
<path d="M18 9.5V5.5" stroke="#222222" stroke-width="1.4" stroke-linecap="round"/>
<path d="M3 17.5V7.5M22 7.5V17.5" stroke="#222222" stroke-width="1.4" stroke-linecap="round"/>
<path d="M18.0074 5.46298C19.6476 5.77007 20.8747 6.20633 21.5117 6.70882C22.1488 7.21132 22.1628 7.75408 21.5518 8.25881C20.9409 8.76354 19.7364 9.20415 18.1123 9.5171C16.4882 9.83004 14.5283 9.99914 12.5154 10C10.5024 10.0009 8.5405 9.83343 6.91253 9.52187C5.28457 9.21031 4.07474 8.77073 3.45756 8.26652C2.84037 7.76231 2.84774 7.21955 3.47859 6.71651C4.10943 6.21347 5.33116 5.77617 6.96753 5.46768" stroke="#222222" stroke-width="1.4" stroke-linecap="round"/>
<path d="M22 17.5C22 18.163 20.9991 18.7989 19.2175 19.2678C17.4359 19.7366 15.0196 20 12.5 20C9.98044 20 7.56408 19.7366 5.78249 19.2678C4.00089 18.7989 3 18.163 3 17.5" stroke="#222222" stroke-width="1.4"/>
</svg>
