<svg width="24" height="25" viewBox="0 0 24 25" fill="none" xmlns="http://www.w3.org/2000/svg">
<path d="M12.5 5.5C14.3856 5.5 15.3284 5.5 15.9142 6.08579C16.5 6.67157 16.5 7.61438 16.5 9.5V15.5C16.5 17.3856 16.5 18.3284 15.9142 18.9142C15.3284 19.5 14.3856 19.5 12.5 19.5H11.5C9.61438 19.5 8.67157 19.5 8.08579 18.9142C7.5 18.3284 7.5 17.3856 7.5 15.5L7.5 9.5C7.5 7.61438 7.5 6.67157 8.08579 6.08579C8.67157 5.5 9.61438 5.5 11.5 5.5L12.5 5.5Z" stroke="#1C274C" stroke-width="1.5"/>
<path opacity="0.7" d="M22 19.5H21.5C20.1193 19.5 19 18.3807 19 17L19 8C19 6.61929 20.1193 5.5 21.5 5.5L22 5.5" stroke="#1C274C" stroke-width="1.5" stroke-linecap="round"/>
<path opacity="0.7" d="M2 19.5H2.5C3.88071 19.5 5 18.3807 5 17L5 8C5 6.61929 3.88071 5.5 2.5 5.5L2 5.5" stroke="#1C274C" stroke-width="1.5" stroke-linecap="round"/>
</svg>
