<svg width="25" height="25" viewBox="0 0 25 25" fill="none" xmlns="http://www.w3.org/2000/svg">
<path d="M2.5 12.5C2.5 8.72876 2.5 6.84315 3.67157 5.67157C4.84315 4.5 6.72876 4.5 10.5 4.5H14.5C18.2712 4.5 20.1569 4.5 21.3284 5.67157C22.5 6.84315 22.5 8.72876 22.5 12.5C22.5 16.2712 22.5 18.1569 21.3284 19.3284C20.1569 20.5 18.2712 20.5 14.5 20.5H10.5C6.72876 20.5 4.84315 20.5 3.67157 19.3284C2.5 18.1569 2.5 16.2712 2.5 12.5Z" stroke="#1C274C" stroke-width="1.5"/>
<path opacity="0.5" d="M10.5 17H6.5" stroke="#1C274C" stroke-width="1.5" stroke-linecap="round"/>
<path opacity="0.5" d="M8.5 14H6.5" stroke="#1C274C" stroke-width="1.5" stroke-linecap="round"/>
<path opacity="0.5" d="M2.5 10.5L22.5 10.5" stroke="#1C274C" stroke-width="1.5" stroke-linecap="round"/>
<path opacity="0.5" d="M14.5 15.5C14.5 14.5572 14.5 14.0858 14.7929 13.7929C15.0858 13.5 15.5572 13.5 16.5 13.5C17.4428 13.5 17.9142 13.5 18.2071 13.7929C18.5 14.0858 18.5 14.5572 18.5 15.5C18.5 16.4428 18.5 16.9142 18.2071 17.2071C17.9142 17.5 17.4428 17.5 16.5 17.5C15.5572 17.5 15.0858 17.5 14.7929 17.2071C14.5 16.9142 14.5 16.4428 14.5 15.5Z" stroke="#1C274C" stroke-width="1.5"/>
</svg>
